<?xml version="1.0" standalone="no"?>
<!DOCTYPE svg PUBLIC "-//W3C//DTD SVG 1.1//EN" "http://www.w3.org/Graphics/SVG/1.1/DTD/svg11.dtd" >
<svg xmlns="http://www.w3.org/2000/svg">
<metadata>Generated by IcoMoon</metadata>
<defs>
<font id="icomoon" horiz-adv-x="1024">
<font-face units-per-em="1024" ascent="960" descent="-64" />
<missing-glyph horiz-adv-x="1024" />
<glyph unicode="&#x20;" horiz-adv-x="512" d="" />
<glyph unicode="&#xe900;" glyph-name="amenities" d="M810.667 490.667c44.987 0 81.842-34.81 85.099-78.965l0.234-6.369v-256c0-44.987-34.81-81.842-78.965-85.099l-6.369-0.234h-170.667c-44.987 0-81.842 34.81-85.099 78.965l-0.234 6.369v256c0 44.987 34.81 81.842 78.965 85.099l6.369 0.234h170.667zM384 320c47.13 0 85.333-38.204 85.333-85.333v-85.333c0-47.13-38.204-85.333-85.333-85.333h-170.667c-47.128 0-85.333 38.204-85.333 85.333v85.333c0 47.13 38.205 85.333 85.333 85.333h170.667zM810.667 405.333h-170.667v-256h170.667v256zM384 234.667h-170.667v-85.333h170.667v85.333zM384 832c47.13 0 85.333-38.205 85.333-85.333v-256c0-47.13-38.204-85.333-85.333-85.333h-170.667c-47.128 0-85.333 38.204-85.333 85.333v256c0 47.128 38.205 85.333 85.333 85.333h170.667zM384 746.667h-170.667v-256h170.667v256zM810.667 832c47.13 0 85.333-38.205 85.333-85.333v-85.333c0-47.128-38.204-85.333-85.333-85.333h-170.667c-47.13 0-85.333 38.205-85.333 85.333v85.333c0 47.128 38.204 85.333 85.333 85.333h170.667zM810.667 746.667h-170.667v-85.333h170.667v85.333z" />
<glyph unicode="&#xe901;" glyph-name="campaign" d="M896 813.837v-731.674c0-39.957-42.88-66.667-78.993-46.848-48.499 26.62-192.102 104.192-278.097 138.368-58.091 23.083-111.501 37.798-165.399 46.976l-33.006-165.026c-4.621-23.108-27.099-38.093-50.206-33.472s-38.092 27.102-33.47 50.206l31.7 158.502c-11.361 0.853-22.854 1.54-34.521 2.082-68.434 3.17-126.007 58.402-126.007 129.715v170.667c0 71.314 57.573 126.543 126.007 129.717 98.697 4.578 184.858 19.509 284.902 59.266 85.995 34.174 229.598 111.749 278.097 138.366 36.117 19.82 78.993-6.89 78.993-46.846zM384 305.425c60.506-10.031 120.887-26.398 186.423-52.442 70.502-28.019 174.357-81.886 240.243-117.171v624.375c-65.886-35.283-169.741-89.153-240.243-117.171-65.536-26.044-125.918-42.411-186.423-52.443v-285.149zM298.667 580.328c-13.428-1.053-26.979-1.882-40.706-2.518-25.721-1.193-44.627-21.533-44.627-44.476v-170.667c0-22.942 18.906-43.281 44.628-44.476 13.727-0.636 27.278-1.463 40.706-2.517v264.654z" />
<glyph unicode="&#xe902;" glyph-name="charge-point" d="M264.385 791.907c-25.749-25.737-40.114-62.064-40.114-104.527v-569.795h-16.134c-20.544 0-37.47-16.93-37.47-37.47 0-20.544 16.926-37.47 37.47-37.47h607.539c20.544 0 37.47 16.926 37.47 37.47 0 20.54-16.926 37.47-37.47 37.47h-16.141v569.795c0 42.463-14.362 78.789-40.111 104.527s-62.093 40.093-104.572 40.093h-285.899c-42.479 0-78.82-14.357-104.568-40.093zM724.595 687.38v-569.795h-425.385v569.795c0 23.062 6.831 40.183 18.182 51.529s28.483 18.176 51.561 18.176h285.899c23.078 0 40.209-6.83 51.563-18.176 11.349-11.345 18.18-28.467 18.18-51.529zM449.489 693.333c-25.816 0-47.65-8.032-63.045-23.42s-23.433-37.214-23.433-63.023v-36.182c0-25.809 8.036-47.633 23.433-63.023s37.229-23.42 63.045-23.42h124.489c25.818 0 47.65 8.030 63.049 23.42 15.394 15.39 23.433 37.214 23.433 63.023v36.182c0 25.809-8.038 47.634-23.433 63.023-15.398 15.389-37.231 23.42-63.049 23.42h-124.489zM425.018 606.597c0 11.007 2.292 16.521 5.262 19.49s8.491 5.261 19.503 5.261h124.489c11.017 0 16.533-2.291 19.507-5.261 2.97-2.969 5.261-8.483 5.261-19.49v-36.182c0-11.007-2.291-16.521-5.261-19.49-2.974-2.97-8.491-5.261-19.507-5.261h-124.489c-11.012 0-16.533 2.291-19.503 5.261s-5.262 8.483-5.262 19.49v36.182zM394.159 415.036c-16.917 0-30.857-13.939-30.857-30.857s13.939-30.857 30.857-30.857h88.29c16.917 0 30.857 13.939 30.857 30.857s-13.939 30.857-30.857 30.857h-88.29z" />
<glyph unicode="&#xe903;" glyph-name="close" d="M85.333 448c0 234.773 191.894 426.667 426.667 426.667s426.667-191.894 426.667-426.667c0-234.773-191.893-426.667-426.667-426.667s-426.667 191.893-426.667 426.667zM512 781.729c-183.445 0-333.729-150.284-333.729-333.729s150.284-333.73 333.729-333.73c183.445 0 333.73 150.285 333.73 333.73s-150.285 333.729-333.73 333.729zM371.543 588.453c18.147 18.147 47.569 18.147 65.718 0l74.735-74.737 74.739 74.737c18.146 18.147 47.569 18.147 65.715 0 18.15-18.147 18.15-47.569 0-65.718l-74.735-74.735 74.735-74.739c18.15-18.146 18.15-47.569 0-65.715-18.146-18.15-47.569-18.15-65.715 0l-74.739 74.735-74.735-74.735c-18.149-18.15-47.571-18.15-65.718 0-18.147 18.146-18.147 47.569 0 65.715l74.738 74.739-74.738 74.735c-18.147 18.148-18.147 47.571 0 65.718z" />
<glyph unicode="&#xe904;" glyph-name="connector" d="M512 874.667c235.639 0 426.667-191.025 426.667-426.667 0-134.919-62.623-255.209-160.386-333.396l-10.238-7.937h85.291c23.565 0 42.667-19.102 42.667-42.667 0-21.882-16.47-39.915-37.691-42.38l-4.976-0.287h-341.333c-235.642 0-426.667 191.027-426.667 426.667 0 235.642 191.025 426.667 426.667 426.667zM512 789.333c-188.513 0-341.333-152.82-341.333-341.333s152.82-341.333 341.333-341.333c188.514 0 341.333 152.819 341.333 341.333s-152.819 341.333-341.333 341.333zM512 362.667c47.13 0 85.333-38.204 85.333-85.333s-38.204-85.333-85.333-85.333c-47.13 0-85.333 38.204-85.333 85.333s38.204 85.333 85.333 85.333zM341.333 533.333c47.128 0 85.333-38.204 85.333-85.333s-38.205-85.333-85.333-85.333c-47.128 0-85.333 38.204-85.333 85.333s38.205 85.333 85.333 85.333zM682.667 533.333c47.13 0 85.333-38.204 85.333-85.333s-38.204-85.333-85.333-85.333c-47.13 0-85.333 38.204-85.333 85.333s38.204 85.333 85.333 85.333zM512 704c47.13 0 85.333-38.205 85.333-85.333s-38.204-85.333-85.333-85.333c-47.13 0-85.333 38.205-85.333 85.333s38.204 85.333 85.333 85.333z" />
<glyph unicode="&#xe905;" glyph-name="cube-icon" d="M457.186 817.001c16.602 9.798 35.507 14.999 54.814 14.999s38.217-5.201 54.818-15.001c0.030-0.018 0.060-0.036 0.090-0.054l232.299-136.003c13.278-7.855 24.674-18.412 33.545-30.899 2.116-2.249 4.019-4.763 5.662-7.53 1.69-2.851 3.008-5.819 3.972-8.848 7.189-15.031 10.931-31.519 10.948-48.224v-272.093c-0.021-19.209-4.966-38.131-14.413-54.882-9.455-16.755-23.117-30.801-39.714-40.619l-0.166-0.098-232.132-135.906c-0.030-0.017-0.055-0.034-0.085-0.051-11.072-6.537-23.172-11.025-35.733-13.295-5.743-2.876-12.228-4.497-19.089-4.497s-13.346 1.621-19.089 4.497c-12.561 2.27-24.657 6.758-35.733 13.295-0.026 0.017-0.055 0.034-0.085 0.051l-232.297 136.004c-16.6 9.818-30.261 23.863-39.714 40.619-9.449 16.747-14.396 35.674-14.415 54.882v272.093c0.017 16.705 3.759 33.193 10.949 48.224 0.964 3.029 2.284 5.997 3.974 8.848 1.641 2.767 3.545 5.282 5.661 7.53 8.868 12.487 20.266 23.044 33.545 30.899l0.165 0.098 232.225 135.96zM256 551.184v-237.768c0.007-4.634 1.206-9.126 3.403-13.022 2.183-3.87 5.242-6.959 8.774-9.062 0.021-0.013 0.043-0.026 0.064-0.038l201.092-117.734v251.187l-213.333 126.438zM554.667 424.747v-251.187l201.092 117.734c0.021 0.013 0.043 0.026 0.064 0.038 3.533 2.103 6.592 5.193 8.772 9.062 2.197 3.891 3.396 8.384 3.405 13.013 0 0.009 0-0.009 0 0v237.776l-213.333-126.438zM725.517 625.201l-202.057 118.299c-3.554 2.103-7.501 3.167-11.46 3.167s-7.906-1.064-11.46-3.167l-0.166-0.098-201.892-118.201 213.519-126.547 213.517 126.547z" />
<glyph unicode="&#xe906;" glyph-name="customization" d="M248.62 405.184c2.842 6.396 11.917 6.396 14.759 0l7.254-15.851c31.035-64.205 79.926-118.101 140.793-155.226l11.302-6.622c5.253-2.957 5.253-10.517 0-13.47l-11.302-6.626c-60.867-37.124-109.757-91.017-140.793-155.221l-7.254-15.855c-2.842-6.391-11.917-6.391-14.759 0l-7.254 15.855c-31.035 64.205-79.926 118.097-140.793 155.221l-11.302 6.626c-5.252 2.953-5.252 10.513 0 13.47l11.302 6.622c60.867 37.124 109.757 91.021 140.793 155.226 2.526 5.222 4.893 10.539 7.254 15.851zM255.87 256.427l-7.473-8.789c-5.314-5.982-10.785-11.823-16.407-17.518l-8.546-8.432-1.154-1.015 9.7-9.515 8.319-8.652 8.088-8.867 7.472-8.764 7.489 8.764c5.314 5.982 10.785 11.823 16.407 17.518l9.682 9.515-1.136 1.015c-5.772 5.547-11.395 11.243-16.864 17.083l-8.088 8.867-7.49 8.789zM617.502 843.524c4.975 11.19 20.855 11.19 25.83 0l6.421-14.334 6.272-13.407 8.354-16.666 9.639-17.871 4.783-8.401c42.535-73.403 99.017-137.702 166.176-189.296l18.225-13.502c12.723-9.086 25.801-17.73 39.211-25.908 6.515-3.974 13.107-7.838 19.776-11.591 9.19-5.167 9.19-18.402 0-23.569-6.669-3.755-13.261-7.616-19.776-11.593-8.94-5.45-17.732-11.109-26.37-16.968l-15.379-10.761c-74.074-53.436-136.055-121.924-181.862-200.977l-5.611-9.882c-6.025-10.829-11.75-21.854-17.165-33.054l-6.272-13.406-6.421-14.336c-4.975-11.187-20.855-11.187-25.83 0l-6.421 14.336-6.272 13.406-8.354 16.666-9.639 17.873-4.783 8.397c-42.535 73.406-99.020 137.703-166.177 189.298l-18.226 13.501c-12.724 9.088-25.801 17.732-39.209 25.907-6.515 3.977-13.109 7.838-19.779 11.593-9.19 5.167-9.19 18.402 0 23.569 6.67 3.753 13.263 7.617 19.779 11.591 8.939 5.452 17.73 11.111 26.368 16.97l15.381 10.761c74.070 53.435 136.056 121.926 181.863 200.975l5.611 9.883c6.025 10.831 11.75 21.853 17.165 33.054l6.272 13.407 6.421 14.334zM630.417 689.282c-42.91-63.999-95.654-120.881-156.288-168.518 60.634-47.637 113.378-104.516 156.288-168.516 42.91 64 95.65 120.879 156.288 168.516-60.638 47.637-113.378 104.519-156.288 168.518z" />
<glyph unicode="&#xe907;" glyph-name="directory" d="M640 874.667c23.565 0 42.667-19.103 42.667-42.667v-42.667h42.667c70.694 0 128-57.308 128-128v-42.667h42.667c23.565 0 42.667-19.103 42.667-42.667s-19.102-42.667-42.667-42.667h-42.667v-170.667h42.667c23.565 0 42.667-19.102 42.667-42.667s-19.102-42.667-42.667-42.667h-42.667v-42.667c0-70.694-57.306-128-128-128h-42.667v-42.667c0-23.565-19.102-42.667-42.667-42.667s-42.667 19.102-42.667 42.667v42.667h-170.667v-42.667c0-23.565-19.103-42.667-42.667-42.667s-42.667 19.102-42.667 42.667v42.667h-42.667c-70.692 0-128 57.306-128 128v42.667h-42.667c-23.564 0-42.667 19.102-42.667 42.667s19.103 42.667 42.667 42.667h42.667v170.667h-42.667c-23.564 0-42.667 19.103-42.667 42.667s19.103 42.667 42.667 42.667h42.667v42.667c0 70.692 57.308 128 128 128h42.667v42.667c0 23.564 19.103 42.667 42.667 42.667s42.667-19.103 42.667-42.667v-42.667h170.667v42.667c0 23.564 19.102 42.667 42.667 42.667zM725.333 704h-426.667c-23.564 0-42.667-19.103-42.667-42.667v-426.667c0-23.565 19.102-42.667 42.667-42.667h426.667c23.565 0 42.667 19.102 42.667 42.667v426.667c0 23.564-19.102 42.667-42.667 42.667zM597.333 618.667c44.987 0 81.842-34.811 85.099-78.965l0.234-6.369v-170.667c0-44.987-34.81-81.842-78.965-85.099l-6.369-0.234h-170.667c-44.986 0-81.842 34.81-85.099 78.965l-0.234 6.369v170.667c0 44.986 34.811 81.842 78.965 85.099l6.369 0.234h170.667zM597.333 533.333h-170.667v-170.667h170.667v170.667z" />
<glyph unicode="&#xe908;" glyph-name="finance" d="M126.518 898.308c47.735 51.025 121.738 61.692 209.791 61.692h351.844c88.033 0 162.074-10.66 209.761-61.722 46.653-49.954 56.207-126.393 55.982-219.424v-524.466c0-34.662-4.654-66.15-15.252-92.273-10.665-26.266-28.81-50.243-56.94-62.387-28.467-12.283-58.414-8.689-84.664 2.627-25.8 11.126-50.621 30.597-73.974 55.526l-0.082 0.087c-10.332 11.090-21.294 14.362-30.090 13.88-8.812-0.481-19.384-4.936-28.462-17.039-0.005-0.005 0.005 0.005 0 0l-47.145-63.012c-26.317-34.76-63.974-55.798-105.289-55.798s-78.974 21.038-105.288 55.798l-0.159 0.21-46.972 62.787c-0.004 0.005 0.005-0.005 0 0-9.081 12.099-19.665 16.573-28.476 17.055-8.795 0.481-19.757-2.79-30.089-13.88l-0.079-0.082c-23.256-24.832-48.033-44.252-73.821-55.342-26.234-11.284-56.159-14.848-84.612-2.596-28.131 12.119-46.342 36.055-57.061 62.382-10.654 26.163-15.341 57.728-15.341 92.524v524.043c0 93.068 9.716 169.489 56.418 219.41zM194.49 834.717c-19.152-20.471-31.31-61.331-31.31-155.82v-524.043c0-27.336 3.807-45.978 8.467-57.421 2.267-5.565 4.45-8.735 5.878-10.368 0.697-0.799 1.202-1.219 1.465-1.413 0.135-0.102 0.225-0.159 0.27-0.184l0.049-0.026 0.132-0.031c0.144-0.026 0.56-0.082 1.32-0.041 1.559 0.082 4.697 0.584 9.573 2.678 10.12 4.352 24.728 14.316 42.66 33.464l33.97-31.816-34.049 31.729c27.831 29.87 65.037 45.445 103.248 43.366 38.19-2.079 73.456-21.586 97.88-54.149l46.88-62.664c0.024-0.031 0.048-0.061 0.071-0.092 11.361-14.961 23.003-18.806 31.004-18.806 7.998 0 19.641 3.845 31.003 18.806 0.026 0.031 0.046 0.061 0.072 0.092l46.879 62.664c24.428 32.563 59.689 52.070 97.879 54.149 38.2 2.079 75.392-13.486 103.219-43.331 18.043-19.251 32.707-29.261 42.849-33.633 6.758-2.913 9.999-2.79 10.926-2.627 0.701 0.445 3.922 2.929 7.572 11.919 4.639 11.433 8.417 30.034 8.417 57.267v524.624c0.236 94.494-11.853 135.309-30.93 155.735-18.048 19.329-53.842 32.172-141.732 32.172h-351.844c-87.868 0-123.7-12.835-141.819-32.202zM279.531 680.759c0 25.703 20.836 46.54 46.54 46.54h372.323c25.702 0 46.541-20.837 46.541-46.54s-20.838-46.54-46.541-46.54h-372.323c-25.703 0-46.54 20.836-46.54 46.54zM326.071 494.598c0 25.703 20.837 46.54 46.54 46.54h279.242c25.702 0 46.541-20.837 46.541-46.54s-20.838-46.54-46.541-46.54h-279.242c-25.703 0-46.54 20.836-46.54 46.54z" />
<glyph unicode="&#xe909;" glyph-name="integration" d="M436.565 523.465c80.79 80.789 210.251 83.237 293.987 7.344l7.713-7.344 120.678-120.678c83.315-83.311 83.315-218.385 0-301.696-80.786-80.79-210.246-83.239-293.983-7.345l-7.713 7.345-90.509 90.509c-16.666 16.661-16.666 43.678 0 60.339 15.38 15.38 39.579 16.563 56.319 3.549l4.020-3.549 90.509-90.509c49.988-49.988 131.034-49.988 181.018 0 47.989 47.985 49.908 124.595 5.759 174.874l-5.759 6.144-120.678 120.678c-49.988 49.988-131.029 49.988-181.013 0-16.666-16.661-43.678-16.661-60.343 0-16.66 16.661-16.663 43.678-0.004 60.339zM165.036 794.995c80.787 80.787 210.248 83.235 293.985 7.344l7.714-7.344 90.509-90.51c16.661-16.662 16.661-43.677 0-60.34-15.38-15.381-39.583-16.564-56.32-3.549l-4.019 3.549-90.51 90.51c-49.987 49.987-131.032 49.987-181.019 0-47.988-47.988-49.907-124.598-5.759-174.876l5.759-6.144 120.68-120.681c49.987-49.988 131.035-49.984 181.019 0 16.661 16.666 43.678 16.666 60.339 0 16.666-16.661 16.661-43.678 0-60.339-80.786-80.786-210.247-83.234-293.984-7.344l-7.714 7.344-120.68 120.678c-83.312 83.313-83.312 218.388 0 301.7z" />
<glyph unicode="&#xe90a;" glyph-name="key" d="M608.993 642.199c-53.565 0-96.988-43.423-96.988-96.988s43.423-96.988 96.988-96.988c53.565 0 96.988 43.423 96.988 96.988s-43.423 96.988-96.988 96.988zM589.594 545.211c0 10.713 8.684 19.398 19.4 19.398 10.711 0 19.395-8.685 19.395-19.398s-8.684-19.398-19.395-19.398c-10.716 0-19.4 8.685-19.4 19.398zM371.317 777.511c129.625 129.588 339.958 129.51 469.894 0.013 130.038-129.599 130.038-340.804 0.435-470.407l-0.067-0.067c-84.372-83.963-202.798-113.674-310.712-88.376l-166.642-166.292c-12.192-12.442-28.024-20.547-42.487-25.236-14.576-4.721-31.782-7.281-48.316-4.905l-84.493 11.628c-23.918 3.323-44.838 15.775-60.129 31.135-15.301 15.37-27.495 36.183-31.077 59.628l-0.082 0.568-11.621 84.444c-2.436 16.973 0.543 34.365 5.296 48.625 4.78 14.341 12.764 29.742 24.29 41.62l0.407 0.41 166.501 166.502c-24.969 108.041 4.242 226.537 88.804 310.711zM786.437 722.567c-99.717 99.382-261.018 99.316-360.289 0.047l-0.067-0.067c-69.2-68.864-90.236-168.135-63.221-255.935 4.226-13.734 0.514-28.678-9.647-38.841l-182.040-182.042c-1.325-1.428-4.106-5.565-6.249-11.996-2.212-6.641-2.333-11.479-2.101-13.071l0.045-0.312 11.587-84.204c0.741-4.475 3.674-10.716 9.335-16.404 5.745-5.77 11.776-8.453 15.791-9.016l84.857-11.679c2.032-0.297 7.060-0.138 13.381 1.91 6.389 2.074 10.033 4.746 10.999 5.745l0.424 0.43 38.922 38.835-61.837 61.839c-15.151 15.15-15.151 39.711 0 54.866 15.151 15.15 39.714 15.15 54.865 0l61.895-61.896 88.881 88.689c10.207 10.189 25.221 13.87 38.983 9.564 87.137-27.249 186.455-6.052 255.852 62.976 99.267 99.291 99.261 261.278-0.364 360.563z" />
<glyph unicode="&#xe90b;" glyph-name="language" d="M598.835 840.157c15.74 11.329 37.939 16.627 59.772 8.639 46.818-17.129 89.762-42.207 127.211-73.574 17.796-14.906 24.307-36.748 22.374-56.029-3.217-32.122 2.449-63.136 17.882-89.868 13.725-23.773 34.247-42.551 59.318-55.753l9.61-4.688c17.698-7.977 33.395-24.58 37.372-47.51 4.139-23.868 6.293-48.388 6.293-73.378s-2.155-49.515-6.293-73.382c-3.579-20.636-16.651-36.147-32.132-44.859l-5.24-2.65c-29.444-13.274-53.487-33.698-68.928-60.442-15.433-26.731-21.099-57.741-17.882-89.86 1.929-19.281-4.578-41.122-22.374-56.030-37.449-31.364-80.393-56.444-127.206-73.57-21.833-7.991-44.032-2.692-59.772 8.64-26.227 18.876-55.945 29.491-86.839 29.491s-60.612-10.615-86.838-29.491c-15.739-11.332-37.94-16.631-59.774-8.64-46.815 17.126-89.76 42.206-127.21 73.574-17.795 14.903-24.303 36.745-22.373 56.026 3.216 32.119-2.453 63.13-17.886 89.86-13.725 23.772-34.244 42.551-59.313 55.753l-9.61 4.688c-17.696 7.979-33.391 24.58-37.369 47.509-4.141 23.868-6.294 48.393-6.294 73.382 0 24.994 2.153 49.515 6.294 73.387 3.58 20.635 16.651 36.146 32.13 44.858l5.239 2.65c29.444 13.273 53.483 33.696 68.924 60.44 15.433 26.731 21.103 57.743 17.886 89.863-1.931 19.28 4.577 41.12 22.373 56.026 37.45 31.369 80.397 56.448 127.214 73.577 21.833 7.988 44.033 2.69 59.772-8.639 26.224-18.877 55.941-29.492 86.836-29.492s60.612 10.615 86.835 29.492zM639.646 764.675c-36.932-24.287-80.486-39.343-127.646-39.343s-90.714 15.056-127.645 39.343c-29.911-12.070-57.741-28.267-82.778-47.899 2.548-44.093-6.196-89.305-29.756-130.112-23.567-40.819-58.361-71.003-97.835-90.843-2.186-15.607-3.319-31.573-3.319-47.825s1.133-32.213 3.319-47.825c39.474-19.84 74.269-50.022 97.835-90.842 23.56-40.806 32.305-86.016 29.756-130.108 25.037-19.635 52.865-35.831 82.775-47.902 36.931 24.29 80.489 39.347 127.648 39.347s90.718-15.057 127.65-39.347c29.905 12.070 57.732 28.267 82.769 47.898-2.547 44.092 6.195 89.306 29.756 130.112 23.569 40.823 58.364 71.006 97.839 90.846 2.189 15.607 3.319 31.569 3.319 47.821s-1.131 32.213-3.319 47.817c-39.475 19.84-74.27 50.025-97.839 90.846-23.561 40.81-32.307 86.025-29.756 130.121-25.037 19.631-52.864 35.828-82.773 47.897zM512 618.667c94.255 0 170.667-76.41 170.667-170.667 0-94.255-76.412-170.667-170.667-170.667-94.257 0-170.667 76.412-170.667 170.667 0 94.257 76.41 170.667 170.667 170.667zM512 533.333c-47.13 0-85.333-38.204-85.333-85.333s38.204-85.333 85.333-85.333c47.13 0 85.333 38.204 85.333 85.333s-38.204 85.333-85.333 85.333z" />
<glyph unicode="&#xe90c;" glyph-name="location" d="M512 874.667c212.079 0 384-171.923 384-384 0-131.149-71.505-238.473-146.842-315.499-41.332-42.256-85.28-76.92-122.739-103.117l-18.147-12.389c-2.92-1.946-5.785-3.832-8.589-5.658l-16.051-10.227-14.337-8.755-17.74-10.319c-24.713-13.956-54.4-13.956-79.113 0l-17.74 10.319-22.164 13.686c-2.677 1.705-5.42 3.47-8.224 5.296l-17.511 11.674c-39.341 26.845-87.186 63.712-131.963 109.489-75.337 77.026-146.842 184.35-146.842 315.499 0 212.077 171.923 384 384 384zM512 789.333c-164.949 0-298.667-133.718-298.667-298.667 0-99.089 54.273-186.061 122.513-255.829 31.379-32.082 64.688-59.455 94.784-81.507l19.532-13.906c6.314-4.368 12.414-8.467 18.241-12.289l16.612-10.632 14.645-8.934 12.339-7.196 19.394 11.449 15.671 9.788c8.313 5.317 17.301 11.262 26.773 17.815l19.532 13.906c30.096 22.052 63.405 49.425 94.784 81.507 68.241 69.769 122.513 156.74 122.513 255.829 0 164.949-133.717 298.667-298.667 298.667zM512 661.333c94.255 0 170.667-76.41 170.667-170.667 0-94.255-76.412-170.667-170.667-170.667-94.257 0-170.667 76.412-170.667 170.667 0 94.257 76.41 170.667 170.667 170.667zM512 576c-47.13 0-85.333-38.205-85.333-85.333 0-47.13 38.204-85.333 85.333-85.333s85.333 38.204 85.333 85.333c0 47.128-38.204 85.333-85.333 85.333z" />
<glyph unicode="&#xe90d;" glyph-name="photo" d="M853.333 832c47.13 0 85.333-38.205 85.333-85.333v-597.333c0-47.13-38.204-85.333-85.333-85.333h-682.667c-47.128 0-85.333 38.204-85.333 85.333v597.333c0 47.128 38.205 85.333 85.333 85.333h682.667zM853.333 746.667h-682.667v-597.333h39.635l397.161 397.162c20.83 20.828 54.601 20.828 75.426 0l170.445-170.444v370.615zM645.175 463.526l-314.194-314.193h522.352v106.039l-208.158 208.154zM320 661.333c35.346 0 64-28.654 64-64s-28.654-64-64-64c-35.346 0-64 28.654-64 64s28.654 64 64 64z" />
<glyph unicode="&#xe90e;" glyph-name="plug" d="M640 106.667c23.565 0 42.667-19.102 42.667-42.667 0-21.882-16.47-39.915-37.691-42.38l-4.976-0.287h-256c-23.564 0-42.667 19.102-42.667 42.667 0 21.882 16.471 39.915 37.691 42.38l4.976 0.287h256zM640 874.667c21.882 0 39.915-16.471 42.38-37.691l0.287-4.976v-128h85.333c44.987 0 81.842-34.811 85.099-78.965l0.234-6.369v-213.333c0-138.171-109.465-250.776-246.403-255.823l-9.597-0.177h-170.667c-138.172 0-250.776 109.465-255.823 246.403l-0.177 9.597v213.333c0 44.986 34.811 81.842 78.965 85.099l6.369 0.234h85.333v128c0 23.564 19.103 42.667 42.667 42.667 21.881 0 39.915-16.471 42.38-37.691l0.287-4.976v-128h170.667v128c0 23.564 19.102 42.667 42.667 42.667zM768 618.667h-512v-213.333c0-91.399 71.849-166.019 162.149-170.458l8.518-0.209h170.667c91.399 0 166.019 71.851 170.458 162.149l0.209 8.518v213.333z" />
<glyph unicode="&#xe90f;" glyph-name="rate" d="M395.050 641.939c-42.844 0-77.577-34.732-77.577-77.576s34.734-77.575 77.577-77.575c42.842 0 77.573 34.731 77.573 77.575s-34.726 77.576-77.573 77.576zM660.058 547.41c15.151 15.148 15.151 39.707 0 54.854-15.147 15.148-39.706 15.148-54.852 0l-253.672-253.673c-15.148-15.147-15.148-39.706 0-54.852s39.706-15.147 54.854 0l253.67 253.671zM562.039 345.988c0 42.846 34.731 77.577 77.572 77.577 42.846 0 77.577-34.731 77.577-77.577s-34.731-77.577-77.577-77.577c-42.846 0-77.572 34.735-77.572 77.577zM512 874.667c-235.642 0-426.667-191.025-426.667-426.667 0-235.639 191.025-426.667 426.667-426.667 235.639 0 426.667 191.027 426.667 426.667 0 235.642-191.027 426.667-426.667 426.667zM162.909 448c0 192.797 156.294 349.091 349.091 349.091s349.090-156.294 349.090-349.091c0-192.798-156.292-349.090-349.090-349.090s-349.091 156.292-349.091 349.090z" />
<glyph unicode="&#xe910;" glyph-name="receipt" d="M175.020 823.25c39.784 42.525 101.46 51.416 174.846 51.416h293.235c73.387 0 135.061-8.891 174.848-51.416 38.921-41.605 47.019-105.297 47.019-182.863v-165.234c0-21.423-17.365-38.788-38.788-38.788-21.419 0-38.788 17.365-38.788 38.788v165.234c0 78.749-10.129 112.803-26.091 129.865-15.104 16.142-44.966 26.839-118.199 26.839h-293.235c-73.231 0-103.095-10.697-118.196-26.839-15.962-17.062-26.095-51.116-26.095-129.865v-436.752c0-22.669 3.169-38.153 7.049-47.667 1.888-4.629 3.707-7.266 4.899-8.627 0.582-0.666 1.004-1.020 1.225-1.186 0.113-0.081 0.227-0.154 0.227-0.154l0.041-0.021 0.106-0.026c0.116-0.017 0.459-0.064 1.088-0.030 1.287 0.068 3.892 0.482 7.947 2.231 8.417 3.635 20.588 11.959 35.534 28.006 0.299 0.32 0.602 0.636 0.912 0.943l0.038 0.038c48.216 50.675 124.74 46.519 166.705-9.617l39.177-52.365c12.834-17.152 9.331-41.459-7.821-54.293-17.152-12.83-41.461-9.331-54.294 7.825l-39.176 52.361c-12.996 17.391-33.13 18.807-48.546 2.453-0.228-0.243-0.46-0.482-0.695-0.721-19.248-20.565-39.744-36.638-61.083-45.85-21.891-9.455-46.846-12.425-70.567-2.21-23.437 10.095-38.613 30.037-47.548 51.947-8.883 21.781-12.793 48.043-12.793 76.962v436.752c0 77.566 8.097 141.258 47.020 182.863zM574.059 207.514c0 89.971 72.939 162.91 162.91 162.91 89.975 0 162.91-72.939 162.91-162.91 0-30.925-8.619-59.84-23.582-84.471l35.494-35.494c15.147-15.147 15.147-39.706 0-54.852-15.147-15.151-39.706-15.151-54.857 0l-35.494 35.494c-24.627-14.967-53.542-23.582-84.471-23.582-89.971 0-162.91 72.934-162.91 162.906zM736.969 292.847c-47.125 0-85.333-38.204-85.333-85.333 0-47.125 38.208-85.333 85.333-85.333 47.13 0 85.333 38.208 85.333 85.333 0 47.13-38.204 85.333-85.333 85.333zM302.545 641.939c0 21.422 17.366 38.788 38.788 38.788h310.302c21.423 0 38.788-17.366 38.788-38.788s-17.365-38.788-38.788-38.788h-310.302c-21.422 0-38.788 17.366-38.788 38.788zM380.121 525.577c-21.422 0-38.788-17.365-38.788-38.788s17.366-38.788 38.788-38.788h232.726c21.423 0 38.788 17.365 38.788 38.788s-17.365 38.788-38.788 38.788h-232.726z" />
<glyph unicode="&#xe911;" glyph-name="reservation" d="M498.342 665.694c-26.022 0-47.407-21.385-47.407-47.407v-155.494c0-40.414 25.122-84.915 60.066-105.792l117.218-69.952c8.085-5.248 16.67-7.061 24.482-7.061 16.047 0 31.595 8.324 40.73 22.946l0.154 0.243 0.149 0.252c12.971 22.238 6.455 51.43-16.597 64.947l-117.692 70.234c-1.882 1.092-5.594 4.689-9.015 10.705-3.409 5.995-4.681 11.14-4.681 13.478v155.494c0 26.023-21.385 47.407-47.407 47.407zM512 874.667c-235.374 0-426.667-191.293-426.667-426.667s191.293-426.667 426.667-426.667c235.375 0 426.667 191.292 426.667 426.667s-191.292 426.667-426.667 426.667zM180.148 448c0 182.949 148.903 331.852 331.852 331.852s331.853-148.903 331.853-331.852c0-182.95-148.902-331.853-331.853-331.853-182.949 0-331.852 148.902-331.852 331.853z" />
<glyph unicode="&#xe912;" glyph-name="site-host" d="M85.333 746.667c0 70.692 57.308 128 128 128h554.667c70.694 0 128-57.308 128-128v-554.667c0-70.694-57.306-128-128-128h-554.667c-70.692 0-128 57.306-128 128v554.667zM810.667 746.667c0 23.564-19.102 42.667-42.667 42.667h-554.667c-23.564 0-42.667-19.103-42.667-42.667v-42.667c0-47.128 38.205-85.333 85.333-85.333s85.333 38.205 85.333 85.333c0 23.564 19.103 42.667 42.667 42.667s42.667-19.103 42.667-42.667v-21.333c0-35.346 28.655-64 64-64s64 28.654 64 64v21.333c0 23.564 19.102 42.667 42.667 42.667s42.667-19.103 42.667-42.667c0-47.128 38.204-85.333 85.333-85.333s85.333 38.205 85.333 85.333v42.667zM725.333 533.333c-47.804 0-91.012 19.653-121.997 51.319-27.379-31.444-67.703-51.319-112.67-51.319s-85.292 19.875-112.669 51.319c-30.983-31.667-74.195-51.319-121.997-51.319-31.086 0-60.23 8.311-85.333 22.832v-364.166c0-23.565 19.103-42.667 42.667-42.667h128v170.667c0 70.694 57.308 128 128 128h42.667c70.694 0 128-57.306 128-128v-170.667h128c23.565 0 42.667 19.102 42.667 42.667v364.166c-25.101-14.521-54.246-22.832-85.333-22.832zM554.667 149.333v170.667c0 23.565-19.102 42.667-42.667 42.667h-42.667c-23.565 0-42.667-19.102-42.667-42.667v-170.667h128z" />
<glyph unicode="&#xe913;" glyph-name="system-user" d="M511.228 711.337c-91.493 0-166.034-74.654-166.034-166.225 0-90.004 70.217-162.964 163.376-165.839l8.021-0.009 0.375 0.013c89.446 2.889 159.881 75.571 160.294 165.782v0.053c0 91.571-74.543 166.225-166.033 166.225zM425.466 545.496c0 46.984 38.163 85.499 85.378 85.499 47.202 0 85.355-38.493 85.38-85.459-0.363-45.837-35.435-82.748-80.188-85.508-1.954 0.171-3.9 0.256-5.623 0.256-0.994 0-2.039-0.030-3.034-0.111-0.286-0.021-0.7-0.060-1.199-0.128-45.257 2.317-80.715 39.497-80.715 85.451zM512 874.667c-235.369 0-426.667-191.298-426.667-426.667 0-235.371 191.298-426.667 426.667-426.667 235.371 0 426.667 191.296 426.667 426.667 0 235.369-191.296 426.667-426.667 426.667zM166.419 448c0 190.525 155.055 345.581 345.581 345.581 190.524 0 345.579-155.055 345.579-345.581 0-78.933-26.598-151.761-71.326-210.022-14.656 21.794-34.82 41.472-59.648 58.227l-0.055 0.034c-59.631 39.757-137.289 59.285-214.4 59.285-77.116 0-154.878-19.541-214.692-59.285-24.9-16.597-45.098-36.318-59.757-58.197-44.699 58.249-71.281 131.055-71.281 209.958zM342.37 229.094c45.542 30.097 107.341 45.538 169.728 45.538 62.404 0 123.994-15.445 169.131-45.525 22.903-15.488 38.336-33.515 45.734-51.43-60.975-48.708-136.563-75.255-214.959-75.255-78.404 0-153.996 26.551-214.973 75.264 7.351 17.963 22.515 35.968 45.339 51.409z" />
<glyph unicode="&#xe914;" glyph-name="tour" d="M653.385 874.667c22.63 0 44.339-8.99 60.339-24.994l199.949-199.948c16.004-16.003 24.994-37.708 24.994-60.34v-282.769c0-22.63-8.99-44.339-24.994-60.339l-199.949-199.949c-16.004-16.004-37.709-24.994-60.339-24.994h-282.769c-22.632 0-44.337 8.99-60.34 24.994l-199.948 199.949c-16.003 16.004-24.994 37.709-24.994 60.339v282.769c0 22.632 8.99 44.337 24.994 60.34l199.948 199.948c16.003 16.003 37.708 24.994 60.34 24.994h282.769zM653.385 789.333h-282.769l-199.948-199.948v-282.769l199.948-199.949h282.769l199.949 199.949v282.769l-199.949 199.948zM512 320c23.565 0 42.667-19.102 42.667-42.667s-19.102-42.667-42.667-42.667c-23.565 0-42.667 19.102-42.667 42.667s19.102 42.667 42.667 42.667zM512 704c23.565 0 42.667-19.103 42.667-42.667v-256c0-23.565-19.102-42.667-42.667-42.667s-42.667 19.102-42.667 42.667v256c0 23.564 19.102 42.667 42.667 42.667z" />
<glyph unicode="&#xe915;" glyph-name="transaction" d="M279.273 327.757c-21.422 0-38.788-17.365-38.788-38.788s17.366-38.788 38.788-38.788h77.576c21.422 0 38.788 17.365 38.788 38.788s-17.366 38.788-38.788 38.788h-77.576zM415.030 288.969c0 21.423 17.367 38.788 38.79 38.788h155.149c21.423 0 38.788-17.365 38.788-38.788s-17.365-38.788-38.788-38.788h-155.149c-21.423 0-38.79 17.365-38.79 38.788zM85.333 622.933v-318.835c0-67.857 7.666-125.909 46.015-163.755 38.198-37.696 96.537-45.116 165.047-44.924h431.263c68.54 0 126.857 7.556 165.018 45.291 38.319 37.884 45.99 95.898 45.99 163.776v318.447c0 67.872-7.671 125.912-46.063 163.802-38.212 37.712-96.619 45.265-165.329 45.265h-430.935c-68.538 0-126.854-7.557-165.017-45.291-38.316-37.885-45.989-95.901-45.989-163.776zM163.079 638.061c1.337 57.259 10.452 81.289 22.787 93.484 13.522 13.37 41.315 22.879 110.474 22.879h430.935c69.367 0 97.267-9.514 110.835-22.905 12.356-12.191 21.474-36.2 22.81-93.459h-697.841zM861.090 560.485v-255.998c0-68.271-9.587-95.394-22.955-108.612-13.521-13.372-41.318-22.882-110.477-22.882h-431.429c-69.164-0.192-96.913 9.267-110.391 22.566-13.335 13.163-22.93 40.247-22.93 108.54v256.387h698.181z" />
<glyph unicode="&#xe916;" glyph-name="workspace" d="M492.339 452.902c-19.793 0-39.953 3.665-55.714 10.628l-216.26 96.036c-54.982 24.559-63.045 57.548-63.045 75.508s8.064 50.95 63.045 75.508l216.26 96.034c31.889 14.295 79.906 14.295 111.795 0l216.627-96.034c54.618-24.192 63.049-57.548 63.049-75.508s-8.064-50.95-63.049-75.508l-216.627-96.036c-16.128-7.33-35.921-10.628-56.081-10.628zM492.339 762.265c-12.463 0-24.559-1.833-33.353-5.865l-216.262-96.034c-22.359-10.263-30.423-20.527-30.423-25.292s8.064-15.395 30.057-25.292l216.262-96.034c17.591-7.697 49.481-7.697 67.076 0l216.627 96.034c22.357 9.897 30.421 20.527 30.421 25.292s-8.064 15.395-30.421 25.292l-216.26 96.034c-8.798 3.665-21.261 5.865-33.724 5.865zM500.041 261.935c-13.926 0-27.857 2.931-41.050 8.794l-248.885 110.699c-37.754 16.495-67.444 62.31-67.444 103.731 0 15.027 12.463 27.49 27.491 27.49s27.491-12.463 27.491-27.49c0-20.16 16.495-45.453 34.822-53.884l248.883-110.694c11.729-5.133 25.293-5.133 37.389 0l248.883 110.694c18.325 8.064 34.82 33.724 34.82 53.884 0 15.027 12.463 27.49 27.49 27.49s27.49-12.463 27.49-27.49c0-41.421-29.687-87.236-67.443-104.098l-248.883-110.699c-13.197-5.495-27.123-8.427-41.054-8.427zM458.991 87.458c13.193-5.862 27.123-8.798 41.050-8.798 13.931 0 27.857 2.935 41.054 8.431l248.883 110.699c41.054 18.325 67.443 59.012 67.443 104.098 0 15.027-12.463 27.49-27.49 27.49s-27.49-12.463-27.49-27.49c0-23.458-13.564-44.352-34.82-53.884l-248.883-110.694c-12.096-5.133-25.66-5.133-37.389 0l-248.883 110.694c-21.26 9.532-34.822 30.788-34.822 53.884 0 15.027-12.463 27.857-27.491 27.857s-27.491-12.463-27.491-27.49c0-45.086 26.391-85.773 67.444-104.098l248.885-110.699zM430.677 450.133l-216.262 96.033c-29.509 13.181-47.728 29.227-58.453 45.591-10.745 16.394-13.304 32.062-13.304 43.317s2.559 26.923 13.304 43.317c10.725 16.364 28.915 32.397 58.424 45.578l216.244 96.026c-0.009-0.003 0.004 0.003 0 0 18.244 8.175 40.375 12.004 61.892 12.004s43.618-3.818 61.867-11.99c-0.013 0.005 0.009-0.005 0 0l216.597-96.022c29.376-13.011 47.561-29.057 58.321-45.449 10.765-16.397 13.449-32.143 13.449-43.464 0-11.255-2.56-26.923-13.303-43.317-10.726-16.364-28.915-32.398-58.423-45.578l-0.038-0.017-216.503-95.978c-0.021-0.009-0.043-0.021-0.064-0.030-18.556-8.418-40.538-11.913-62.084-11.913-21.376 0-43.657 3.934-61.662 11.891zM548.42 463.531l216.627 96.036c54.985 24.559 63.049 57.548 63.049 75.508s-8.431 51.316-63.049 75.508l-216.627 96.034c-31.889 14.295-79.906 14.295-111.795 0l-216.26-96.034c-54.982-24.559-63.045-57.548-63.045-75.508s8.064-50.95 63.045-75.508l216.26-96.036c15.761-6.963 35.921-10.628 55.714-10.628 20.16 0 39.953 3.298 56.081 10.628zM464.934 743l-216.175-95.997c-10.042-4.617-16.185-8.912-19.58-12.020 3.312-3.109 9.33-7.388 19.162-11.816-0.011 0.005 0.011-0.005 0 0l216.153-95.987c-0.013 0.004 0.013-0.004 0 0 6.285-2.739 16.457-4.544 27.661-4.544 11.209 0 21.35 1.792 27.635 4.531-0.013-0.004 0.009 0.004 0 0l216.589 96.019c10.082 4.461 16.201 8.774 19.537 11.885-3.337 3.111-9.451 7.426-19.529 11.887l-216.107 95.967c-6.596 2.714-16.973 4.678-27.942 4.678-11.396 0-21.129-1.728-27.247-4.531l-0.158-0.072zM526.063 756.4l216.26-96.034c22.357-9.897 30.421-20.527 30.421-25.292s-8.064-15.395-30.421-25.292l-216.627-96.034c-17.596-7.697-49.485-7.697-67.076 0l-216.262 96.034c-21.993 9.897-30.057 20.527-30.057 25.292s8.064 15.028 30.423 25.292l216.262 96.034c8.794 4.032 20.89 5.865 33.353 5.865s24.926-2.199 33.724-5.865zM453.030 257.335l-248.794 110.656c-0.016 0.004-0.031 0.013-0.047 0.021-21.986 9.617-40.89 27.362-54.259 47.945-13.381 20.604-21.93 45.146-21.93 69.201 0 23.125 19.027 42.15 42.153 42.15s42.153-19.025 42.153-42.15c0-6.434 2.791-15.049 8.18-23.364 5.361-8.273 12.107-14.413 18.034-17.165l248.705-110.618c0.013-0.004 0.026-0.009 0.038-0.017 7.889-3.435 17.19-3.516 25.643 0.038l248.811 110.665c5.747 2.53 12.467 8.563 17.865 16.93 5.393 8.358 8.201 17.075 8.201 23.531 0 23.125 19.025 42.15 42.15 42.15s42.155-19.025 42.155-42.15c0-24.060-8.55-48.593-21.922-69.231s-32.265-38.455-54.208-48.256l-249.22-110.844c-14.861-6.195-30.703-9.557-46.694-9.557-16 0-31.957 3.375-47.010 10.065zM518.737 320.58c-12.096-5.133-25.66-5.133-37.389 0l-248.883 110.694c-18.327 8.431-34.822 33.724-34.822 53.884 0 15.027-12.463 27.49-27.491 27.49s-27.491-12.463-27.491-27.49c0-41.421 29.69-87.236 67.444-103.731l248.885-110.699c13.193-5.862 27.123-8.794 41.050-8.794 13.931 0 27.857 2.931 41.054 8.427l248.883 110.699c37.756 16.862 67.443 62.677 67.443 104.098 0 15.027-12.463 27.49-27.49 27.49s-27.49-12.463-27.49-27.49c0-20.16-16.495-45.82-34.82-53.884l-248.883-110.694zM453.030 74.061l-248.883 110.699c-46.345 20.689-76.147 66.633-76.147 117.495 0 23.125 19.027 42.15 42.153 42.15 23.376 0 42.153-19.644 42.153-42.517 0-17.37 10.216-33.348 26.137-40.495-0.007 0.004 0.007-0.004 0 0l248.781-110.652c0.013-0.004 0.030-0.013 0.043-0.017 7.885-3.439 17.186-3.516 25.634 0.038l248.721 110.622c-0.009-0.004 0.009 0.004 0 0 15.966 7.168 26.159 22.822 26.159 40.503 0 23.125 19.025 42.15 42.15 42.15s42.155-19.025 42.155-42.15c0-50.863-29.786-96.798-76.13-117.487l-249.22-110.848c-14.861-6.191-30.703-9.553-46.694-9.553-16 0-31.957 3.375-47.010 10.061zM767.62 248.004l-248.883-110.694c-12.096-5.133-25.66-5.133-37.389 0l-248.883 110.694c-21.26 9.532-34.822 30.788-34.822 53.884 0 15.027-12.463 27.857-27.491 27.857s-27.491-12.463-27.491-27.49c0-45.086 26.391-85.773 67.444-104.098l248.885-110.699c13.193-5.862 27.123-8.798 41.050-8.798 13.931 0 27.857 2.935 41.054 8.431l248.883 110.699c41.054 18.325 67.443 59.012 67.443 104.098 0 15.027-12.463 27.49-27.49 27.49s-27.49-12.463-27.49-27.49c0-23.458-13.564-44.352-34.82-53.884z" />
</font>
</defs>
</svg>
