<svg width="24" height="24" viewBox="0 0 24 24" fill="none" xmlns="http://www.w3.org/2000/svg">
<path fill-rule="evenodd" clip-rule="evenodd" d="M6.19653 3.93969C6.80001 3.33649 7.65176 3 8.64735 3H15.3481C16.3437 3 17.1955 3.33649 17.799 3.93969C18.4025 4.54291 18.7391 5.39431 18.7391 6.38953V19.7441H19.1174C19.5989 19.7441 19.9956 20.1409 19.9956 20.6223C19.9956 21.1038 19.5989 21.5005 19.1174 21.5005H4.8782C4.39671 21.5005 4 21.1038 4 20.6223C4 20.1409 4.39671 19.7441 4.8782 19.7441H5.25635V6.38953C5.25635 5.39431 5.59303 4.54291 6.19653 3.93969ZM16.9827 6.38953V19.7441H7.01275V6.38953C7.01275 5.84901 7.17286 5.44773 7.4389 5.18182C7.70496 4.91589 8.10648 4.75581 8.64735 4.75581H15.3481C15.889 4.75581 16.2905 4.91589 16.5566 5.18182C16.8226 5.44773 16.9827 5.84901 16.9827 6.38953ZM10.5349 6.25C9.92983 6.25 9.41811 6.43824 9.05728 6.79891C8.69643 7.15958 8.50808 7.67111 8.50808 8.276V9.12401C8.50808 9.7289 8.69643 10.2404 9.05728 10.6011C9.41811 10.9618 9.92983 11.15 10.5349 11.15H13.4526C14.0577 11.15 14.5694 10.9618 14.9303 10.6011C15.2911 10.2404 15.4795 9.7289 15.4795 9.12401V8.276C15.4795 7.67111 15.2911 7.15958 14.9303 6.79891C14.5694 6.43824 14.0577 6.25 13.4526 6.25H10.5349ZM9.96137 8.28289C9.96137 8.02491 10.0151 7.89568 10.0847 7.8261C10.1543 7.7565 10.2837 7.7028 10.5418 7.7028H13.4595C13.7177 7.7028 13.847 7.7565 13.9167 7.8261C13.9863 7.89568 14.04 8.02491 14.04 8.28289V9.1309C14.04 9.38888 13.9863 9.51811 13.9167 9.58769C13.847 9.65729 13.7177 9.71099 13.4595 9.71099H10.5418C10.2837 9.71099 10.1543 9.65729 10.0847 9.58769C10.0151 9.51811 9.96137 9.38888 9.96137 9.1309V8.28289ZM9.23811 12.7726C8.84161 12.7726 8.51491 13.0993 8.51491 13.4958C8.51491 13.8923 8.84161 14.219 9.23811 14.219H11.3074C11.7039 14.219 12.0306 13.8923 12.0306 13.4958C12.0306 13.0993 11.7039 12.7726 11.3074 12.7726H9.23811Z" fill="#1a2c51"/>
</svg>
