<svg width="20" height="20" viewBox="0 0 20 20" fill="none" xmlns="http://www.w3.org/2000/svg">
<path fill-rule="evenodd" clip-rule="evenodd" d="M2.47106 1.20493C3.40339 0.208356 4.84875 0 6.56855 0H13.4405C15.1599 0 16.606 0.208197 17.5374 1.20551C18.4486 2.18118 18.6352 3.67413 18.6308 5.49113V15.7346C18.6308 16.4116 18.5399 17.0266 18.3329 17.5368C18.1246 18.0498 17.7702 18.5181 17.2208 18.7553C16.6648 18.9952 16.0799 18.925 15.5672 18.704C15.0633 18.4867 14.5785 18.1064 14.1224 17.6195L14.1208 17.6178C13.919 17.4012 13.7049 17.3373 13.5331 17.3467C13.361 17.3561 13.1545 17.4431 12.9772 17.6795C12.9771 17.6796 12.9773 17.6794 12.9772 17.6795L12.0595 18.9061L12.0564 18.9102C11.5424 19.5891 10.8069 20 9.99998 20C9.19304 20 8.45752 19.5891 7.94357 18.9102L7.94046 18.9061L7.02304 17.6798C7.02296 17.6797 7.02313 17.6799 7.02304 17.6798C6.84567 17.4435 6.63895 17.3561 6.46686 17.3467C6.29509 17.3373 6.08098 17.4012 5.87918 17.6178L5.87763 17.6194C5.42341 18.1044 4.93949 18.4837 4.43581 18.7003C3.92342 18.9207 3.33895 18.9903 2.78323 18.751C2.23379 18.5143 1.87812 18.0468 1.66876 17.5326C1.46068 17.0216 1.36914 16.4051 1.36914 15.7255V5.49028C1.36914 3.67254 1.5589 2.17994 2.47106 1.20493ZM3.79864 2.44693C3.42458 2.84676 3.18712 3.64481 3.18712 5.49028V15.7255C3.18712 16.2594 3.26147 16.6235 3.3525 16.847C3.39677 16.9557 3.43941 17.0176 3.4673 17.0495C3.48091 17.0651 3.49078 17.0733 3.49591 17.0771C3.49854 17.0791 3.5003 17.0802 3.50119 17.0807L3.50214 17.0812L3.50472 17.0818C3.50753 17.0823 3.51565 17.0834 3.53051 17.0826C3.56096 17.081 3.62224 17.0712 3.71748 17.0303C3.91514 16.9453 4.20045 16.7507 4.55069 16.3767L5.21416 16.9981L4.54914 16.3784C5.09271 15.795 5.8194 15.4908 6.56571 15.5314C7.31161 15.572 8.00039 15.953 8.47742 16.589L9.39305 17.8129C9.39352 17.8135 9.39398 17.8141 9.39444 17.8147C9.61633 18.1069 9.84372 18.182 9.99998 18.182C10.1562 18.182 10.3836 18.1069 10.6055 17.8147C10.606 17.8141 10.6064 17.8135 10.6069 17.8129L11.5225 16.589C11.9996 15.953 12.6883 15.572 13.4342 15.5314C14.1803 15.4908 14.9067 15.7948 15.4502 16.3777C15.8026 16.7537 16.089 16.9492 16.2871 17.0346C16.4191 17.0915 16.4824 17.0891 16.5005 17.0859C16.5142 17.0772 16.5771 17.0287 16.6484 16.8531C16.739 16.6298 16.8128 16.2665 16.8128 15.7346V5.49028L16.8128 5.48803C16.8174 3.64245 16.5813 2.84527 16.2087 2.44634C15.8562 2.06882 15.1571 1.81798 13.4405 1.81798H6.56855C4.85238 1.81798 4.15253 2.06866 3.79864 2.44693ZM5.45959 5.45393C5.45959 4.95191 5.86655 4.54494 6.36857 4.54494H13.6405C14.1425 4.54494 14.5495 4.95191 14.5495 5.45393C14.5495 5.95595 14.1425 6.36291 13.6405 6.36291H6.36857C5.86655 6.36291 5.45959 5.95595 5.45959 5.45393ZM6.36857 9.08988C6.36857 8.58786 6.77554 8.18089 7.27756 8.18089H12.7315C13.2335 8.18089 13.6405 8.58786 13.6405 9.08988C13.6405 9.5919 13.2335 9.99886 12.7315 9.99886H7.27756C6.77554 9.99886 6.36857 9.5919 6.36857 9.08988Z" fill="#1a2c51"/>
</svg>
