<svg width="20" height="20" viewBox="0 0 20 20" fill="none" xmlns="http://www.w3.org/2000/svg">
<path fill-rule="evenodd" clip-rule="evenodd" d="M11.8944 6.20706C10.8482 6.20706 10.0001 7.05516 10.0001 8.10135C10.0001 9.14754 10.8482 9.99564 11.8944 9.99564C12.9406 9.99564 13.7887 9.14754 13.7887 8.10135C13.7887 7.05516 12.9406 6.20706 11.8944 6.20706ZM11.5155 8.10135C11.5155 7.89211 11.6851 7.72249 11.8944 7.72249C12.1036 7.72249 12.2732 7.89211 12.2732 8.10135C12.2732 8.31059 12.1036 8.48021 11.8944 8.48021C11.6851 8.48021 11.5155 8.31059 11.5155 8.10135Z" fill="#1A2C51"/>
<path fill-rule="evenodd" clip-rule="evenodd" d="M7.25229 3.56423C9.78402 1.03321 13.8921 1.03473 16.4299 3.56397C18.9697 6.0952 18.9697 10.2203 16.4384 12.7516L16.4371 12.7529C14.7892 14.3928 12.4762 14.9731 10.3685 14.479L7.11378 17.7269C6.87566 17.9699 6.56644 18.1282 6.28395 18.2198C5.99927 18.312 5.6632 18.362 5.34027 18.3156L3.69001 18.0885C3.22286 18.0236 2.81426 17.7804 2.51561 17.4804C2.21677 17.1802 1.97859 16.7737 1.90864 16.3158L1.90703 16.3047L1.68006 14.6554C1.63248 14.3239 1.69066 13.9842 1.7835 13.7057C1.87686 13.4256 2.03279 13.1248 2.25791 12.8928L2.26585 12.8848L5.51783 9.63281C5.03016 7.52263 5.60069 5.20826 7.25229 3.56423ZM15.3601 4.63736C13.4125 2.6963 10.2621 2.6976 8.32321 4.63645L8.32191 4.63775C6.97035 5.98275 6.55948 7.92164 7.08712 9.63648C7.16966 9.90473 7.09716 10.1966 6.8987 10.3951L3.34323 13.9506C3.31735 13.9785 3.26303 14.0593 3.22117 14.1849C3.17796 14.3146 3.1756 14.4091 3.18014 14.4402L3.18102 14.4463L3.40732 16.0909C3.4218 16.1783 3.47908 16.3002 3.58965 16.4113C3.70186 16.524 3.81965 16.5764 3.89806 16.5874L5.55542 16.8155C5.59511 16.8213 5.69331 16.8182 5.81676 16.7782C5.94154 16.7377 6.01271 16.6855 6.03158 16.666L6.03986 16.6576L6.80005 15.8991L5.59229 14.6913C5.29638 14.3954 5.29638 13.9157 5.59229 13.6197C5.8882 13.3238 6.36796 13.3238 6.66387 13.6197L7.87276 14.8286L9.60871 13.0964C9.80806 12.8974 10.1013 12.8255 10.3701 12.9096C12.072 13.4418 14.0118 13.0278 15.3672 11.6796C17.306 9.74033 17.3059 6.57651 15.3601 4.63736Z" fill="#1a2c51"/>
</svg>
