<svg width="24" height="24" viewBox="0 0 24 24" fill="none" xmlns="http://www.w3.org/2000/svg">
<path d="M11.6799 6.89779C11.07 6.89779 10.5688 7.39899 10.5688 8.0089V11.6533C10.5688 12.6005 11.1576 13.6435 11.9766 14.1328L14.7239 15.7723C14.9134 15.8953 15.1146 15.9378 15.2977 15.9378C15.6738 15.9378 16.0382 15.7427 16.2523 15.4L16.2559 15.3943L16.2594 15.3884C16.5634 14.8672 16.4107 14.183 15.8704 13.8662L13.1166 12.2228L13.112 12.2201C13.0679 12.1945 12.9809 12.1102 12.9007 11.9692C12.8208 11.8287 12.791 11.7081 12.791 11.6533V8.0089C12.791 7.39899 12.2898 6.89779 11.6799 6.89779Z" fill="#1a2c51"/>
<path fill-rule="evenodd" clip-rule="evenodd" d="M12 2C6.48343 2 2 6.48343 2 12C2 17.5166 6.48343 22 12 22C17.5166 22 22 17.5166 22 12C22 6.48343 17.5166 2 12 2ZM4.22222 12C4.22222 7.71213 7.71213 4.22222 12 4.22222C16.2879 4.22222 19.7778 7.71213 19.7778 12C19.7778 16.2879 16.2879 19.7778 12 19.7778C7.71213 19.7778 4.22222 16.2879 4.22222 12Z" fill="#1a2c51"/>
</svg>
