<svg width="24" height="24" viewBox="0 0 24 24" fill="none" xmlns="http://www.w3.org/2000/svg">
<path fill-rule="evenodd" clip-rule="evenodd" d="M11.9819 5.82804C9.83753 5.82804 8.09048 7.57774 8.09048 9.72394C8.09048 11.8334 9.73618 13.5434 11.9196 13.6108L12.1076 13.611L12.1164 13.6107C14.2128 13.543 15.8636 11.8395 15.8733 9.72518L15.8733 9.72394C15.8733 7.57774 14.1262 5.82804 11.9819 5.82804ZM9.97185 9.71494C9.97185 8.61376 10.8663 7.71106 11.9729 7.71106C13.0792 7.71106 13.9734 8.61325 13.974 9.714C13.9655 10.7883 13.1435 11.6534 12.0946 11.7181C12.0488 11.7141 12.0032 11.7121 11.9628 11.7121C11.9395 11.7121 11.915 11.7128 11.8917 11.7147C11.885 11.7152 11.8753 11.7161 11.8636 11.7177C10.8029 11.6634 9.97185 10.792 9.97185 9.71494Z" fill="#1a2c51"/>
<path fill-rule="evenodd" clip-rule="evenodd" d="M12 2C6.48354 2 2 6.48354 2 12C2 17.5165 6.48354 22 12 22C17.5165 22 22 17.5165 22 12C22 6.48354 17.5165 2 12 2ZM3.90045 12C3.90045 7.53456 7.53456 3.90045 12 3.90045C16.4654 3.90045 20.0995 7.53456 20.0995 12C20.0995 13.85 19.4761 15.5569 18.4278 16.9224C18.0843 16.4116 17.6117 15.9504 17.0298 15.5577L17.0285 15.5569C15.6309 14.6251 13.8108 14.1674 12.0035 14.1674C10.1961 14.1674 8.37355 14.6254 6.97165 15.5569C6.38805 15.9459 5.91466 16.4081 5.57109 16.9209C4.52345 15.5557 3.90045 13.8493 3.90045 12ZM8.02429 17.1306C9.09167 16.4252 10.5401 16.0633 12.0023 16.0633C13.4649 16.0633 14.9084 16.4253 15.9663 17.1303C16.5031 17.4933 16.8648 17.9158 17.0382 18.3357C15.6091 19.4773 13.8375 20.0995 12.0001 20.0995C10.1625 20.0995 8.39083 19.4772 6.96166 18.3355C7.13394 17.9145 7.48936 17.4925 8.02429 17.1306Z" fill="#1a2c51"/>
</svg>
