<svg width="24" height="24" viewBox="0 0 24 24" fill="none" xmlns="http://www.w3.org/2000/svg">
<path d="M6.54545 14.8182C6.04338 14.8182 5.63636 15.2252 5.63636 15.7273C5.63636 16.2294 6.04338 16.6364 6.54545 16.6364H8.36364C8.86571 16.6364 9.27273 16.2294 9.27273 15.7273C9.27273 15.2252 8.86571 14.8182 8.36364 14.8182H6.54545Z" fill="#1a2c51"/>
<path d="M9.72727 15.7273C9.72727 15.2252 10.1343 14.8182 10.6364 14.8182H14.2727C14.7748 14.8182 15.1818 15.2252 15.1818 15.7273C15.1818 16.2294 14.7748 16.6364 14.2727 16.6364H10.6364C10.1343 16.6364 9.72727 16.2294 9.72727 15.7273Z" fill="#1a2c51"/>
<path fill-rule="evenodd" clip-rule="evenodd" d="M2 7.9C2 6.30918 2.17984 4.94942 3.07787 4.0615C3.97232 3.17712 5.33909 3 6.94545 3H17.0455C18.6559 3 20.0248 3.17702 20.9204 4.0609C21.8202 4.94894 22 6.30926 22 7.9V15.3636C22 16.9545 21.8202 18.3142 20.9221 19.2021C20.0277 20.0865 18.6609 20.2636 17.0545 20.2636H6.94677C5.34107 20.2681 3.97374 20.0942 3.07848 19.2107C2.17967 18.3237 2 16.9631 2 15.3727V7.9ZM3.82216 7.54545C3.8535 6.20344 4.06714 5.64023 4.35622 5.35441C4.67314 5.04106 5.32455 4.81818 6.94545 4.81818H17.0455C18.6713 4.81818 19.3252 5.04116 19.6432 5.35501C19.9328 5.64073 20.1465 6.20345 20.1778 7.54545H3.82216ZM20.1818 9.36364V15.3636C20.1818 16.9637 19.9571 17.5994 19.6438 17.9092C19.3269 18.2226 18.6754 18.4455 17.0545 18.4455L6.94545 18.4455L6.94289 18.4455C5.32186 18.45 4.67148 18.2283 4.35561 17.9166C4.04306 17.6081 3.81818 16.9733 3.81818 15.3727V9.36364H20.1818Z" fill="#1a2c51"/>
</svg>
