<svg width="24" height="24" viewBox="0 0 24 24" fill="none" xmlns="http://www.w3.org/2000/svg">
<path fill-rule="evenodd" clip-rule="evenodd" d="M11.5392 11.8851C11.0753 11.8851 10.6028 11.7992 10.2334 11.636L5.16481 9.38516C3.87618 8.80957 3.68719 8.03639 3.68719 7.61544C3.68719 7.19449 3.87618 6.42131 5.16481 5.84572L10.2334 3.59492C10.9808 3.25987 12.1062 3.25987 12.8536 3.59492L17.9308 5.84572C19.2109 6.41272 19.4085 7.19449 19.4085 7.61544C19.4085 8.03639 19.2195 8.80957 17.9308 9.38516L12.8536 11.636C12.4756 11.8078 12.0117 11.8851 11.5392 11.8851ZM11.5392 4.63441C11.2471 4.63441 10.9636 4.67737 10.7575 4.77187L5.68886 7.02267C5.16481 7.26322 4.97582 7.50376 4.97582 7.61544C4.97582 7.72712 5.16481 7.97626 5.68027 8.20821L10.7489 10.459C11.1612 10.6394 11.9086 10.6394 12.321 10.459L17.3982 8.20821C17.9222 7.97626 18.1112 7.72712 18.1112 7.61544C18.1112 7.50376 17.9222 7.25463 17.3982 7.02267L12.3296 4.77187C12.1234 4.68596 11.8313 4.63441 11.5392 4.63441ZM11.7197 16.3609C11.3933 16.3609 11.0668 16.2922 10.7576 16.1548L4.92435 13.5603C4.03949 13.1737 3.34363 12.0999 3.34363 11.1291C3.34363 10.7769 3.63572 10.4848 3.98795 10.4848C4.34017 10.4848 4.63226 10.7769 4.63226 11.1291C4.63226 11.6016 5.01885 12.1944 5.4484 12.392L11.2816 14.9864C11.5565 15.1067 11.8744 15.1067 12.1579 14.9864L17.9911 12.392C18.4206 12.203 18.8072 11.6016 18.8072 11.1291C18.8072 10.7769 19.0993 10.4848 19.4515 10.4848C19.8037 10.4848 20.0958 10.7769 20.0958 11.1291C20.0958 12.0999 19.4 13.1737 18.5151 13.5689L12.6819 16.1634C12.3726 16.2922 12.0462 16.3609 11.7197 16.3609ZM10.7576 20.4502C11.0668 20.5876 11.3933 20.6564 11.7197 20.6564C12.0462 20.6564 12.3726 20.5876 12.6819 20.4588L18.5151 17.8643C19.4773 17.4348 20.0958 16.4812 20.0958 15.4245C20.0958 15.0723 19.8037 14.7802 19.4515 14.7802C19.0993 14.7802 18.8072 15.0723 18.8072 15.4245C18.8072 15.9743 18.4893 16.464 17.9911 16.6874L12.1579 19.2818C11.8744 19.4021 11.5565 19.4021 11.2816 19.2818L5.4484 16.6874C4.95013 16.464 4.63226 15.9658 4.63226 15.4245C4.63226 15.0723 4.34017 14.7716 3.98795 14.7716C3.63572 14.7716 3.34363 15.0637 3.34363 15.4159C3.34363 16.4726 3.96218 17.4262 4.92435 17.8557L10.7576 20.4502Z" fill="#1a2c51"/>
<path fill-rule="evenodd" clip-rule="evenodd" d="M10.094 11.95L5.02535 9.69922C4.33374 9.3903 3.90673 9.01422 3.65536 8.63068C3.40353 8.24645 3.34355 7.87923 3.34355 7.61544C3.34355 7.35165 3.40353 6.98443 3.65536 6.6002C3.90673 6.21667 4.33306 5.84089 5.02467 5.53197L10.0929 3.28135C10.0927 3.28143 10.093 3.28127 10.0929 3.28135C10.5205 3.08975 11.0392 3 11.5435 3C12.0478 3 12.5658 3.08948 12.9935 3.28101C12.9932 3.2809 12.9937 3.28112 12.9935 3.28101L18.07 5.53153C18.7585 5.83648 19.1847 6.21256 19.4369 6.59675C19.6892 6.98106 19.7521 7.35009 19.7521 7.61544C19.7521 7.87923 19.6921 8.24645 19.4403 8.63068C19.1889 9.01422 18.7626 9.39 18.071 9.69892L18.0701 9.69931L12.9958 11.9488C12.9953 11.949 12.9948 11.9493 12.9943 11.9495C12.5594 12.1468 12.0442 12.2287 11.5392 12.2287C11.0382 12.2287 10.516 12.1365 10.094 11.95ZM12.8536 11.636L17.9308 9.38516C19.2195 8.80957 19.4085 8.03639 19.4085 7.61544C19.4085 7.19449 19.2109 6.41272 17.9308 5.84572L12.8536 3.59492C12.1062 3.25987 10.9808 3.25987 10.2334 3.59492L5.16481 5.84572C3.87618 6.42131 3.68719 7.19449 3.68719 7.61544C3.68719 8.03639 3.87618 8.80957 5.16481 9.38516L10.2334 11.636C10.6028 11.7992 11.0753 11.8851 11.5392 11.8851C12.0117 11.8851 12.4756 11.8078 12.8536 11.636ZM10.8969 5.08593L5.83031 7.33585C5.59494 7.44407 5.45097 7.54472 5.37141 7.61757C5.44904 7.69044 5.59008 7.79072 5.82051 7.8945C5.82025 7.89438 5.82077 7.89461 5.82051 7.8945L10.8866 10.1442C10.8863 10.1441 10.8869 10.1443 10.8866 10.1442C11.0339 10.2084 11.2723 10.2507 11.5349 10.2507C11.7976 10.2507 12.0353 10.2087 12.1826 10.1445C12.1823 10.1446 12.1828 10.1444 12.1826 10.1445L17.2589 7.89406C17.4952 7.78951 17.6386 7.68843 17.7168 7.61551C17.6386 7.54259 17.4953 7.44146 17.2591 7.3369L12.1941 5.08768C12.0395 5.02408 11.7963 4.97805 11.5392 4.97805C11.2721 4.97805 11.044 5.01855 10.9006 5.08425L10.8969 5.08593ZM12.3296 4.77187L17.3982 7.02267C17.9222 7.25463 18.1112 7.50376 18.1112 7.61544C18.1112 7.72712 17.9222 7.97626 17.3982 8.20821L12.321 10.459C11.9086 10.6394 11.1612 10.6394 10.7489 10.459L5.68027 8.20821C5.16481 7.97626 4.97582 7.72712 4.97582 7.61544C4.97582 7.50376 5.16481 7.26322 5.68886 7.02267L10.7575 4.77187C10.9636 4.67737 11.2471 4.63441 11.5392 4.63441C11.8313 4.63441 12.1234 4.68596 12.3296 4.77187ZM10.6179 16.4687L4.78678 13.8752C4.78641 13.8751 4.78605 13.8749 4.78569 13.8747C4.27039 13.6493 3.82732 13.2334 3.51399 12.751C3.20037 12.2681 3 11.6929 3 11.1291C3 10.5871 3.44594 10.1412 3.98795 10.1412C4.52996 10.1412 4.9759 10.5871 4.9759 11.1291C4.9759 11.2799 5.04131 11.4818 5.16761 11.6767C5.29325 11.8706 5.45137 12.0145 5.59028 12.079L11.4193 14.6716C11.4196 14.6717 11.4199 14.6718 11.4202 14.672C11.6051 14.7525 11.8231 14.7544 12.0212 14.6711L17.8527 12.0774C17.9874 12.0181 18.1449 11.8767 18.2714 11.6806C18.3978 11.4847 18.4636 11.2804 18.4636 11.1291C18.4636 10.5871 18.9095 10.1412 19.4515 10.1412C19.9935 10.1412 20.4395 10.5871 20.4395 11.1291C20.4395 11.693 20.2391 12.268 19.9257 12.7517C19.6123 13.2354 19.1695 13.653 18.6552 13.8827L12.8141 16.4806C12.4658 16.6258 12.0945 16.7046 11.7197 16.7046C11.3447 16.7046 10.9707 16.6255 10.6179 16.4687ZM12.1579 14.9864C11.8744 15.1067 11.5565 15.1067 11.2816 14.9864L5.4484 12.392C5.01885 12.1944 4.63226 11.6016 4.63226 11.1291C4.63226 10.7769 4.34017 10.4848 3.98795 10.4848C3.63572 10.4848 3.34363 10.7769 3.34363 11.1291C3.34363 12.0999 4.03949 13.1737 4.92435 13.5603L10.7576 16.1548C11.0668 16.2922 11.3933 16.3609 11.7197 16.3609C12.0462 16.3609 12.3726 16.2922 12.6819 16.1634L18.5151 13.5689C19.4 13.1737 20.0958 12.0999 20.0958 11.1291C20.0958 10.7769 19.8037 10.4848 19.4515 10.4848C19.0993 10.4848 18.8072 10.7769 18.8072 11.1291C18.8072 11.6016 18.4206 12.203 17.9911 12.392L12.1579 14.9864ZM10.6179 20.7642L4.7847 18.1697C3.6985 17.6848 3 16.608 3 15.4159C3 14.8739 3.44594 14.428 3.98795 14.428C4.53582 14.428 4.9759 14.8884 4.9759 15.4245C4.9759 15.8316 5.21534 16.2061 5.58849 16.3736C5.58833 16.3735 5.58865 16.3737 5.58849 16.3736L11.4193 18.967C11.4196 18.9671 11.42 18.9673 11.4203 18.9674C11.6051 19.048 11.8231 19.0498 12.0211 18.9665L17.8505 16.3738C17.8503 16.3739 17.8507 16.3737 17.8505 16.3738C18.2247 16.2058 18.4636 15.8389 18.4636 15.4245C18.4636 14.8825 18.9095 14.4366 19.4515 14.4366C19.9935 14.4366 20.4395 14.8825 20.4395 15.4245C20.4395 16.6166 19.7414 17.6932 18.6552 18.1781L12.8141 20.7761C12.4658 20.9212 12.0945 21 11.7197 21C11.3447 21 10.9707 20.9209 10.6179 20.7642ZM17.9911 16.6874L12.1579 19.2818C11.8744 19.4021 11.5565 19.4021 11.2816 19.2818L5.4484 16.6874C4.95013 16.464 4.63226 15.9658 4.63226 15.4245C4.63226 15.0723 4.34017 14.7716 3.98795 14.7716C3.63572 14.7716 3.34363 15.0637 3.34363 15.4159C3.34363 16.4726 3.96218 17.4262 4.92435 17.8557L10.7576 20.4502C11.0668 20.5876 11.3933 20.6564 11.7197 20.6564C12.0462 20.6564 12.3726 20.5876 12.6819 20.4588L18.5151 17.8643C19.4773 17.4348 20.0958 16.4812 20.0958 15.4245C20.0958 15.0723 19.8037 14.7802 19.4515 14.7802C19.0993 14.7802 18.8072 15.0723 18.8072 15.4245C18.8072 15.9743 18.4893 16.464 17.9911 16.6874Z" fill="#1a2c51"/>
</svg>
