<svg width="121" height="86" viewBox="0 0 121 86" fill="none" xmlns="http://www.w3.org/2000/svg">
<g clip-path="url(#clip0_419_2217)">
<path d="M24.461 61.5C31.8972 61.5 37.9255 55.3887 37.9255 47.85C37.9255 40.3113 31.8972 34.2 24.461 34.2C17.0248 34.2 10.9965 40.3113 10.9965 47.85C10.9965 55.3887 17.0248 61.5 24.461 61.5Z" fill="#C7D3EC"/>
<path d="M32.3858 7.2H15.9088C13.5592 7.2 11.6475 9.138 11.6475 11.52V16.992C11.6475 19.374 13.5592 21.312 15.9088 21.312H32.3858C34.7354 21.312 36.6471 19.374 36.6471 16.992V11.52C36.6471 9.138 34.7354 7.2 32.3858 7.2ZM33.8062 16.992C33.8062 17.787 33.1685 18.432 32.3858 18.432H15.9088C15.1261 18.432 14.4884 17.787 14.4884 16.992V11.52C14.4884 10.725 15.1261 10.08 15.9088 10.08H32.3858C33.1685 10.08 33.8062 10.725 33.8062 11.52V16.992Z" fill="#1A2C51"/>
<path d="M33.238 52.992H15.0565C14.2723 52.992 13.6361 53.6355 13.6361 54.432C13.6361 55.2285 14.2723 55.872 15.0565 55.872H33.238C34.0222 55.872 34.6585 55.2285 34.6585 54.432C34.6585 53.6355 34.0222 52.992 33.238 52.992Z" fill="#1A2C51"/>
<path d="M52.6314 45.792H43.7492V7.2C43.7492 3.2295 40.5636 0 36.6471 0H11.6475C7.73098 0 4.54537 3.2295 4.54537 7.2V59.904H4.26129C1.91166 59.904 0 61.842 0 64.224V67.68C0 70.062 1.91166 72 4.26129 72H44.0333C46.3829 72 48.2946 70.062 48.2946 67.68V64.224C48.2946 61.842 46.3829 59.904 44.0333 59.904H43.7492V48.672H52.6314C54.3536 48.672 54.5549 45.792 52.6314 45.792ZM45.4538 64.224V67.68C45.4538 68.475 44.816 69.12 44.0333 69.12H4.26129C3.47857 69.12 2.84086 68.475 2.84086 67.68V64.224C2.84086 63.429 3.47857 62.784 4.26129 62.784H44.0333C44.816 62.784 45.4538 63.429 45.4538 64.224ZM7.38623 59.904V7.2C7.38623 4.818 9.2979 2.88 11.6475 2.88H36.6471C38.9967 2.88 40.9084 4.818 40.9084 7.2V59.904H7.38623Z" fill="#1A2C51"/>
<path d="M31.68 37.9933L23.7867 37.5L28.4734 31.0867C28.72 30.84 28.72 30.3467 28.4734 30.1C28.2267 29.8533 27.7334 29.8533 27.4867 30.1L17.62 39.2267C17.1267 39.2267 17.1267 39.2267 17.1267 39.4733C17.1267 39.72 17.1267 39.9667 17.1267 39.9667C17.1267 40.2133 17.3734 40.2133 17.3734 40.46C17.62 40.7067 17.8667 40.7067 17.8667 40.7067L25.76 41.2L21.0734 47.6133C21.0734 47.86 20.8267 47.86 20.8267 48.1067C20.8267 48.3533 20.8267 48.3533 21.0734 48.6C21.32 48.8467 21.8134 48.8467 22.06 48.6L31.9267 39.4733C32.9134 39.2267 32.42 37.9933 31.68 37.9933Z" fill="#1A2C51"/>
</g>
<path d="M83.456 47.392C89.836 47.392 95.008 42.22 95.008 35.84C95.008 29.46 89.836 24.288 83.456 24.288C77.076 24.288 71.904 29.46 71.904 35.84C71.904 42.22 77.076 47.392 83.456 47.392Z" fill="#C7D3EC"/>
<path d="M89.68 39.9933L81.7866 39.5L86.4733 33.0867C86.72 32.84 86.72 32.3467 86.4733 32.1C86.2266 31.8533 85.7333 31.8533 85.4866 32.1L75.62 41.2267C75.1266 41.2267 75.1266 41.2267 75.1266 41.4733C75.1266 41.72 75.1266 41.9667 75.1266 41.9667C75.1266 42.2133 75.3733 42.2133 75.3733 42.46C75.62 42.7067 75.8666 42.7067 75.8666 42.7067L83.76 43.2L79.0733 49.6133C79.0733 49.86 78.8266 49.86 78.8266 50.1067C78.8266 50.3533 78.8266 50.3533 79.0733 50.6C79.32 50.8467 79.8133 50.8467 80.06 50.6L89.9266 41.4733C90.9133 41.2267 90.42 39.9933 89.68 39.9933Z" fill="#1A2C51"/>
<path d="M97.0083 57.1641H102.613C104.652 57.1641 106.312 55.5042 106.312 53.4644V52.3442C106.312 50.3028 104.652 48.643 102.613 48.643H98.1301C95.4731 48.643 93.3087 50.8059 93.3087 53.4644C93.3087 55.5042 94.9685 57.1641 97.0083 57.1641ZM98.1301 51.5614H102.613C103.043 51.5614 103.394 51.9125 103.394 52.3442V53.4644C103.394 53.8961 103.043 54.2457 102.613 54.2457H97.0083C96.5782 54.2457 96.2271 53.8946 96.2271 53.4644C96.2271 52.4156 97.0813 51.5614 98.1301 51.5614Z" fill="#1A2C51"/>
<path d="M63.389 57.1641H68.9917C71.0331 57.1641 72.6929 55.5042 72.6929 53.4644C72.6929 50.8059 70.53 48.643 67.8715 48.643H63.389C61.3492 48.643 59.6878 50.3028 59.6878 52.3442V53.4644C59.6878 55.5042 61.3476 57.1641 63.389 57.1641ZM62.6062 52.3426C62.6062 51.911 62.9573 51.5598 63.389 51.5598H67.8715C68.9203 51.5598 69.7745 52.4141 69.7745 53.4629C69.7745 53.8946 69.4234 54.2442 68.9917 54.2442H63.389C62.9573 54.2442 62.6062 53.893 62.6062 53.4629V52.3426Z" fill="#1A2C51"/>
<path d="M115.219 36.0346H112.418C110.2 36.0346 108.396 37.7415 108.197 39.9075L103.365 27.0225C102.748 25.3794 101.255 24.3184 99.5665 24.3184H66.4351C64.7448 24.3184 63.2537 25.3794 62.6366 27.024L57.8045 39.909C57.6054 37.743 55.7996 36.0346 53.5835 36.0346H50.7821C48.4337 36.0346 46.5215 37.9467 46.5215 40.2966C46.5215 42.6466 48.4337 44.5572 50.7821 44.5572H52.8432C52.3903 45.2336 52.1243 46.0453 52.1243 46.9178V59.6523C52.1243 61.4398 53.2339 62.969 54.7995 63.5998V67.304C54.7995 69.7178 56.7633 71.6816 59.1771 71.6816H64.0365C66.4503 71.6816 68.4141 69.7178 68.4141 67.304V63.9129H97.5875V67.304C97.5875 69.7178 99.5513 71.6816 101.965 71.6816H106.826C109.24 71.6816 111.204 69.7178 111.204 67.304V63.5998C112.769 62.969 113.879 61.4398 113.879 59.6523V46.9178C113.879 46.0453 113.613 45.2336 113.161 44.5572H115.223C117.572 44.5572 119.483 42.645 119.483 40.2966C119.483 37.9482 117.572 36.0346 115.223 36.0346H115.219ZM59.6437 43.3169L65.368 28.05C65.5535 27.5575 65.9715 27.2383 66.4335 27.2383H99.565C100.029 27.2383 100.445 27.5575 100.631 28.05L106.356 43.3169C106.863 44.6682 108.171 45.5771 109.615 45.5771C110.355 45.5771 110.957 46.179 110.957 46.9193V59.6538C110.957 60.3941 110.354 60.996 109.615 60.996H56.3833C55.6431 60.996 55.0411 60.3941 55.0411 59.6538V46.9193C55.0411 46.179 55.6431 45.5771 56.3833 45.5771C57.8258 45.5771 59.136 44.6697 59.6437 43.3184V43.3169ZM49.4384 40.2966C49.4384 39.5564 50.0403 38.953 50.7806 38.953H53.5819C54.3222 38.953 54.9241 39.5564 54.9241 40.2966V41.6388H50.7806C50.0403 41.6388 49.4384 41.0369 49.4384 40.2966ZM65.4942 67.304C65.4942 68.1081 64.8391 68.7632 64.035 68.7632H59.1755C58.3715 68.7632 57.7163 68.1081 57.7163 67.304V63.9129H65.4942V67.304ZM108.284 67.304C108.284 68.1081 107.63 68.7632 106.825 68.7632H101.964C101.158 68.7632 100.504 68.1081 100.504 67.304V63.9129H108.284V67.304ZM115.219 41.6388H111.076V40.2966C111.076 39.5564 111.679 38.953 112.418 38.953H115.219C115.96 38.953 116.562 39.5564 116.562 40.2966C116.562 41.0369 115.958 41.6388 115.219 41.6388Z" fill="#1A2C51"/>
<defs>
<clipPath id="clip0_419_2217">
<rect width="54" height="72" fill="white"/>
</clipPath>
</defs>
</svg>
