<svg width="12" height="13" viewBox="0 0 12 13" fill="none" xmlns="http://www.w3.org/2000/svg">
<path fill-rule="evenodd" clip-rule="evenodd" d="M6.0104 8.49999L6.00982 8.38235L6.01392 8.49993C6.09079 8.49738 6.1663 8.47942 6.23579 8.44718C6.30408 8.41549 6.36512 8.37069 6.41535 8.31549L9.41779 5.36241L9.42577 5.3486C9.48868 5.23978 9.51257 5.11345 9.49373 4.98981C9.47489 4.86617 9.41437 4.75215 9.32163 4.6661C9.22887 4.58003 9.10925 4.52694 8.98189 4.51557C8.85453 4.5042 8.72705 4.53523 8.61994 4.60354L8.60943 4.61023L6.00982 7.14995L3.4125 4.61247L3.40499 4.6071C3.29637 4.52949 3.16321 4.49199 3.02901 4.50143C2.89481 4.51087 2.76851 4.5666 2.6723 4.65855C2.57612 4.75047 2.5162 4.87266 2.50284 5.00351C2.48948 5.13436 2.52351 5.26573 2.59909 5.37449L2.60539 5.38355L5.60656 8.33539C5.6592 8.38773 5.72197 8.42929 5.79125 8.45757C5.86067 8.48591 5.93518 8.50034 6.0104 8.49999Z" fill="#1A2C51"/>
</svg>
