<svg width="12" height="12" viewBox="0 0 12 12" fill="none" xmlns="http://www.w3.org/2000/svg">
<path fill-rule="evenodd" clip-rule="evenodd" d="M7.99999 5.9896L7.88235 5.99018L7.99993 5.98608C7.99738 5.90921 7.97942 5.8337 7.94718 5.76421C7.9155 5.69592 7.87069 5.63488 7.81549 5.58465L4.86241 2.58221L4.8486 2.57423C4.73978 2.51132 4.61345 2.48743 4.48981 2.50627C4.36617 2.52511 4.25215 2.58563 4.1661 2.67837C4.08003 2.77113 4.02694 2.89075 4.01557 3.01811C4.0042 3.14547 4.03523 3.27295 4.10354 3.38006L4.11023 3.39057L6.64995 5.99018L4.11247 8.5875L4.1071 8.59501C4.02949 8.70363 3.99199 8.83679 4.00143 8.97099C4.01087 9.10519 4.0666 9.23149 4.15855 9.3277C4.25047 9.42388 4.37266 9.4838 4.50351 9.49716C4.63436 9.51052 4.76573 9.47649 4.87449 9.40091L4.88355 9.39461L7.83539 6.39344C7.88773 6.3408 7.92929 6.27803 7.95757 6.20875C7.98591 6.13933 8.00034 6.06482 7.99999 5.9896Z" fill="#1A2C51"/>
</svg>
