<svg width="24" height="24" viewBox="0 0 24 24" fill="none" xmlns="http://www.w3.org/2000/svg">
<path fill-rule="evenodd" clip-rule="evenodd" d="M12.0208 16L12.0196 15.7647L12.0278 15.9999C12.1816 15.9948 12.3326 15.9588 12.4716 15.8944C12.6082 15.831 12.7302 15.7414 12.8307 15.631L18.8356 9.72481L18.8516 9.6972C18.9774 9.47956 19.0251 9.2269 18.9875 8.97963C18.9498 8.73234 18.8287 8.5043 18.6433 8.33219C18.4577 8.16005 18.2185 8.05388 17.9638 8.03113C17.7091 8.00839 17.4541 8.07045 17.2399 8.20707L17.2189 8.22046L12.0196 13.2999L6.82499 8.22494L6.80998 8.21421C6.59274 8.05897 6.32641 7.98399 6.05802 8.00286C5.78963 8.02173 5.53701 8.1332 5.34461 8.31709C5.15224 8.50094 5.0324 8.74533 5.00568 9.00703C4.97896 9.26871 5.04702 9.53146 5.19819 9.74899L5.21078 9.76711L11.2131 15.6708C11.3184 15.7755 11.4439 15.8586 11.5825 15.9151C11.7213 15.9718 11.8704 16.0007 12.0208 16Z" fill="white"/>
</svg>
