<svg width="38" height="42" viewBox="0 0 38 42" fill="none" xmlns="http://www.w3.org/2000/svg">
<g filter="url(#filter0_f_732_7142)">
<ellipse cx="18.8477" cy="38.936" rx="6.688" ry="1.216" fill="black" fill-opacity="0.15"/>
</g>
<path d="M19.9069 37.6199C19.5708 38.0205 19.2549 38.417 18.9998 38.7447C18.7446 38.417 18.4287 38.0205 18.0927 37.6199C17.686 37.1351 17.238 36.6304 16.8259 36.2328C16.6206 36.0349 16.4102 35.8497 16.2076 35.7044C16.0283 35.5759 15.7638 35.4101 15.4636 35.3654C7.0912 34.1195 1.51977 27.2252 1.51977 18.5241C1.51977 8.98606 9.33807 1.23998 18.9998 1.23998C28.6615 1.23998 36.4798 8.98606 36.4798 18.5241C36.4798 27.2253 30.9083 34.1195 22.5359 35.3654C22.2358 35.4101 21.9712 35.5759 21.792 35.7044C21.5894 35.8497 21.3789 36.0349 21.1736 36.2328C20.7615 36.6304 20.3136 37.1351 19.9069 37.6199Z" stroke="#25B400" stroke-width="1.52"/>
<path d="M19.0808 35.6342C19.0537 35.6668 19.0266 35.6993 18.9998 35.7318C18.9729 35.6993 18.9459 35.6668 18.9187 35.6342C18.5377 35.1772 18.1018 34.6815 17.6879 34.2798C17.4827 34.0807 17.2519 33.8741 17.0125 33.7014C16.8249 33.5661 16.4226 33.2926 15.9034 33.2148C8.75275 32.1442 3.95178 26.2356 3.95178 18.6422C3.95178 10.3817 10.6816 3.672 18.9998 3.672C27.3179 3.672 34.0478 10.3817 34.0478 18.6422C34.0478 26.2356 29.2468 32.1442 22.0962 33.2148C21.577 33.2926 21.1746 33.5661 20.9871 33.7014C20.7477 33.8741 20.5169 34.0807 20.3117 34.2798C19.8978 34.6815 19.4619 35.1772 19.0808 35.6342Z" fill="#D5F4CD" stroke="white" stroke-width="3.344"/>
<mask id="path-4-inside-1_732_7142" fill="white">
<path d="M14.4399 14.0657C14.4399 12.8585 15.4186 11.8799 16.6258 11.8799H20.6331C21.8403 11.8799 22.8189 12.8585 22.8189 14.0657V22.4447C22.8189 22.8471 22.4927 23.1733 22.0903 23.1733H15.1685C14.7662 23.1733 14.4399 22.8471 14.4399 22.4447V14.0657Z"/>
</mask>
<path d="M14.4399 14.0657C14.4399 12.8585 15.4186 11.8799 16.6258 11.8799H20.6331C21.8403 11.8799 22.8189 12.8585 22.8189 14.0657V22.4447C22.8189 22.8471 22.4927 23.1733 22.0903 23.1733H15.1685C14.7662 23.1733 14.4399 22.8471 14.4399 22.4447V14.0657Z" fill="white" stroke="#2BC605" stroke-width="2.18582" mask="url(#path-4-inside-1_732_7142)"/>
<rect x="15.1685" y="17.3445" width="6.92178" height="4.73595" fill="#2BC605"/>
<defs>
<filter id="filter0_f_732_7142" x="10.6397" y="36.2" width="16.416" height="5.47188" filterUnits="userSpaceOnUse" color-interpolation-filters="sRGB">
<feFlood flood-opacity="0" result="BackgroundImageFix"/>
<feBlend mode="normal" in="SourceGraphic" in2="BackgroundImageFix" result="shape"/>
<feGaussianBlur stdDeviation="0.76" result="effect1_foregroundBlur_732_7142"/>
</filter>
</defs>
</svg>
