<svg width="111" height="37" viewBox="0 0 111 37" fill="none" xmlns="http://www.w3.org/2000/svg">
<circle cx="16.9537" cy="17.9839" r="16.875" fill="white"/>
<circle cx="16.981" cy="17.984" r="16.875" fill="#2755F6"/>
<rect x="12.7537" y="12.5851" width="10.4843" height="10.4843" transform="rotate(-1.05557 12.7537 12.5851)" fill="#2755F6"/>
<path d="M16.9486 11.2088C13.1879 11.2781 9.953 14.363 10.0272 18.3901C10.0578 20.051 10.7553 22.2267 12.7768 23.8491C14.0457 24.8247 15.6082 25.3403 17.2084 25.3114C19.0104 25.2782 20.8075 24.5554 22.1532 23.1513C22.7979 22.4863 23.3045 21.7002 23.6437 20.8384C23.983 19.9766 24.1482 19.0562 24.1298 18.1302L24.0466 13.6142C24.0208 12.214 22.8648 11.0998 21.4645 11.1256L16.9486 11.2088ZM20.083 18.4086L16.1071 22.1105C15.9839 22.2304 15.7879 22.2262 15.6682 22.1108C15.6137 22.0591 15.5797 21.9894 15.5726 21.9147C15.5654 21.8399 15.5856 21.765 15.6293 21.704L17.493 19.0598L14.3141 18.8048C14.2364 18.799 14.1621 18.7707 14.1002 18.7235C14.0383 18.6763 13.9913 18.6122 13.9651 18.5389C13.9389 18.4655 13.9344 18.3862 13.9524 18.3104C13.9703 18.2346 14.0099 18.1656 14.0662 18.1119L18.0421 14.4099C18.1653 14.29 18.3613 14.2943 18.481 14.4096C18.5927 14.5173 18.6116 14.6894 18.5199 14.8164L16.6562 17.4607L19.8351 17.7156C20.1882 17.7404 20.3372 18.1687 20.083 18.4086Z" fill="white"/>
<path d="M48.06 28.531C52.164 28.531 55.08 26.371 55.08 22.726C55.08 18.73 51.867 17.731 49.005 16.867C46.062 15.976 45.603 15.382 45.603 14.518C45.603 13.762 46.278 13.087 47.628 13.087C49.356 13.087 50.247 13.924 50.895 15.274L54.54 13.141C53.163 10.36 50.733 8.875 47.628 8.875C44.361 8.875 41.283 10.981 41.283 14.626C41.283 18.244 44.037 19.594 46.845 20.377C49.68 21.16 50.76 21.619 50.76 22.78C50.76 23.509 50.247 24.319 48.195 24.319C46.062 24.319 44.901 23.266 44.226 21.7L40.5 23.86C41.553 26.641 44.091 28.531 48.06 28.531Z" fill="#2755F6"/>
<path d="M64.6999 14.653V22.024C64.6999 23.941 63.6739 24.805 62.1889 24.805C60.8929 24.805 59.8399 24.022 59.8399 22.348V14.653H55.7899V22.942C55.7899 26.587 58.1119 28.531 60.8389 28.531C62.6209 28.531 63.9709 27.883 64.6999 26.884V28.153H68.7499V14.653H64.6999Z" fill="#2755F6"/>
<path d="M74.6452 17.056V14.653H70.5952V28.153H74.6452V22.051C74.6452 19.378 77.0212 18.703 78.6952 18.973V14.383C76.9942 14.383 75.1852 15.247 74.6452 17.056Z" fill="#2755F6"/>
<path d="M88.9768 14.653V16.03C88.0858 14.923 86.7898 14.275 85.0348 14.275C81.2008 14.275 78.3928 17.407 78.3928 21.133C78.3928 24.859 81.2008 27.991 85.0348 27.991C86.7898 27.991 88.0858 27.343 88.9768 26.236V27.478C88.9768 29.395 87.8158 30.367 85.9258 30.367C84.1438 30.367 83.3608 29.611 82.8478 28.666L79.3918 30.664C80.6338 32.878 82.9828 33.931 85.7908 33.931C89.3818 33.931 92.9188 32.014 92.9188 27.478V14.653H88.9768ZM85.7098 24.265C83.7928 24.265 82.4428 22.996 82.4428 21.133C82.4428 19.27 83.7928 18.001 85.7098 18.001C87.6268 18.001 88.9768 19.27 88.9768 21.133C88.9768 22.996 87.6268 24.265 85.7098 24.265Z" fill="#2755F6"/>
<path d="M98.3831 23.023H107.968C108.076 22.51 108.13 21.97 108.13 21.403C108.13 17.326 105.214 14.275 101.272 14.275C97.0061 14.275 94.0901 17.38 94.0901 21.403C94.0901 25.426 96.9521 28.531 101.569 28.531C104.134 28.531 106.132 27.586 107.455 25.75L104.215 23.887C103.675 24.481 102.73 24.913 101.623 24.913C100.138 24.913 98.8961 24.427 98.3831 23.023ZM98.3021 19.999C98.6801 18.622 99.7061 17.866 101.245 17.866C102.46 17.866 103.675 18.433 104.107 19.999H98.3021Z" fill="#2755F6"/>
</svg>
