<svg width="123" height="40" viewBox="0 0 123 40" fill="none" xmlns="http://www.w3.org/2000/svg">
<circle cx="18.75" cy="20" r="18.75" fill="#2755F6"/>
<rect x="14.1708" y="14.1516" width="11.6493" height="11.6493" transform="rotate(-1.05557 14.1708 14.1516)" fill="#2755F6"/>
<path d="M18.8317 12.6224C14.6532 12.6994 11.0589 16.1271 11.1413 20.6016C11.1753 22.4471 11.9503 24.8645 14.1965 26.6672C15.6063 27.7512 17.3424 28.3241 19.1205 28.292C21.1227 28.2551 23.1195 27.452 24.6147 25.8918C25.331 25.153 25.8938 24.2796 26.2708 23.322C26.6477 22.3645 26.8313 21.3417 26.8109 20.3129L26.7132 15.0134C26.6874 13.6132 25.5314 12.499 24.1312 12.5248L18.8317 12.6224ZM22.3144 20.6221L17.8967 24.7355C17.7598 24.8686 17.5421 24.8639 17.4091 24.7357C17.3485 24.6783 17.3108 24.6009 17.3028 24.5178C17.2949 24.4347 17.3173 24.3516 17.3659 24.2837L19.4366 21.3457L15.9045 21.0625C15.8182 21.056 15.7357 21.0246 15.6669 20.9721C15.598 20.9197 15.5459 20.8484 15.5167 20.7669C15.4876 20.6854 15.4827 20.5973 15.5026 20.5131C15.5226 20.4289 15.5665 20.3522 15.6291 20.2925L20.0468 16.1792C20.1836 16.046 20.4014 16.0507 20.5344 16.1789C20.6585 16.2985 20.6795 16.4897 20.5776 16.6309L18.5069 19.5689L22.039 19.8522C22.4314 19.8798 22.5969 20.3557 22.3144 20.6221Z" fill="white"/>
<path d="M53.4 31.8693C57.96 31.8693 61.2 29.4693 61.2 25.4193C61.2 20.9793 57.63 19.8693 54.45 18.9093C51.18 17.9193 50.67 17.2593 50.67 16.2993C50.67 15.4593 51.42 14.7093 52.92 14.7093C54.84 14.7093 55.83 15.6393 56.55 17.1393L60.6 14.7693C59.07 11.6793 56.37 10.0293 52.92 10.0293C49.29 10.0293 45.87 12.3693 45.87 16.4193C45.87 20.4393 48.93 21.9393 52.05 22.8093C55.2 23.6793 56.4 24.1893 56.4 25.4793C56.4 26.2893 55.83 27.1893 53.55 27.1893C51.18 27.1893 49.89 26.0193 49.14 24.2793L45 26.6793C46.17 29.7693 48.99 31.8693 53.4 31.8693Z" fill="#2755F6"/>
<path d="M71.8888 16.4493V24.6393C71.8888 26.7693 70.7488 27.7293 69.0988 27.7293C67.6588 27.7293 66.4888 26.8593 66.4888 24.9993V16.4493H61.9888V25.6593C61.9888 29.7093 64.5688 31.8693 67.5988 31.8693C69.5788 31.8693 71.0788 31.1493 71.8888 30.0393V31.4493H76.3888V16.4493H71.8888Z" fill="#2755F6"/>
<path d="M82.9391 19.1193V16.4493H78.4391V31.4493H82.9391V24.6693C82.9391 21.6993 85.5791 20.9493 87.4391 21.2493V16.1493C85.5491 16.1493 83.5391 17.1093 82.9391 19.1193Z" fill="#2755F6"/>
<path d="M98.8631 16.4493V17.9793C97.8731 16.7493 96.4331 16.0293 94.4831 16.0293C90.2231 16.0293 87.1031 19.5093 87.1031 23.6493C87.1031 27.7893 90.2231 31.2693 94.4831 31.2693C96.4331 31.2693 97.8731 30.5493 98.8631 29.3193V30.6993C98.8631 32.8293 97.5731 33.9093 95.4731 33.9093C93.4931 33.9093 92.6231 33.0693 92.0531 32.0193L88.2131 34.2393C89.5931 36.6993 92.2031 37.8693 95.3231 37.8693C99.3131 37.8693 103.243 35.7393 103.243 30.6993V16.4493H98.8631ZM95.2331 27.1293C93.1031 27.1293 91.6031 25.7193 91.6031 23.6493C91.6031 21.5793 93.1031 20.1693 95.2331 20.1693C97.3631 20.1693 98.8631 21.5793 98.8631 23.6493C98.8631 25.7193 97.3631 27.1293 95.2331 27.1293Z" fill="#2755F6"/>
<path d="M109.315 25.7493H119.965C120.085 25.1793 120.145 24.5793 120.145 23.9493C120.145 19.4193 116.905 16.0293 112.525 16.0293C107.785 16.0293 104.545 19.4793 104.545 23.9493C104.545 28.4193 107.725 31.8693 112.855 31.8693C115.705 31.8693 117.925 30.8193 119.395 28.7793L115.795 26.7093C115.195 27.3693 114.145 27.8493 112.915 27.8493C111.265 27.8493 109.885 27.3093 109.315 25.7493ZM109.225 22.3893C109.645 20.8593 110.785 20.0193 112.495 20.0193C113.845 20.0193 115.195 20.6493 115.675 22.3893H109.225Z" fill="#2755F6"/>
</svg>
