<svg width="24" height="24" viewBox="0 0 24 24" fill="none" xmlns="http://www.w3.org/2000/svg">
<path d="M5.63578 13.9739C5.63578 13.4718 6.04283 13.0647 6.54496 13.0647H9.27249C9.77461 13.0647 10.1817 13.4718 10.1817 13.9739C10.1817 14.476 9.77461 14.8831 9.27249 14.8831H6.54496C6.04283 14.8831 5.63578 14.476 5.63578 13.9739Z" fill="white"/>
<path d="M14.7275 13.0647C14.2254 13.0647 13.8184 13.4718 13.8184 13.9739C13.8184 14.476 14.2254 14.8831 14.7275 14.8831H17.4551C17.9572 14.8831 18.3643 14.476 18.3643 13.9739C18.3643 13.4718 17.9572 13.0647 17.4551 13.0647H14.7275Z" fill="white"/>
<path fill-rule="evenodd" clip-rule="evenodd" d="M8.80881 2C7.52704 2 6.56336 2.32264 5.89139 3.01008C5.25254 3.66363 5.01452 4.51766 4.8643 5.2312L4.55741 6.70048H3.81743C3.3153 6.70048 2.90825 7.10754 2.90825 7.60966C2.90825 8.11178 3.3153 8.51884 3.81743 8.51884H4.1776L3.87677 9.95912C3.64832 10.1012 3.44666 10.2741 3.27244 10.4806C2.68724 11.1745 2.58297 12.0732 2.52122 12.7348L2.01214 18.271L2.01204 18.2721C1.86066 19.8887 3.15676 21.2473 4.76295 21.2473H6.47221C7.08004 21.2473 7.63099 21.1185 8.04702 20.7237C8.39544 20.393 8.53719 19.9597 8.611 19.734L8.62576 19.6892L8.80759 19.1437C8.93623 18.7578 8.98218 18.6813 9.02687 18.6391C9.03469 18.6314 9.14742 18.5198 9.67251 18.5198H14.3275C14.6023 18.5198 14.7671 18.5467 14.8625 18.5741C14.9456 18.598 14.9677 18.6196 14.9699 18.6217C14.9753 18.6268 14.9994 18.65 15.0395 18.7351C15.0847 18.8309 15.1257 18.9485 15.1935 19.1469L15.3742 19.6892L15.389 19.734C15.4628 19.9597 15.6046 20.393 15.953 20.7237C16.369 21.1185 16.92 21.2473 17.5278 21.2473H19.237C20.8433 21.2473 22.1395 19.8885 21.9879 18.2718L21.4789 12.736L21.4788 12.7348C21.417 12.0732 21.3128 11.1745 20.7276 10.4806C20.5534 10.2741 20.3517 10.1012 20.1233 9.95915L19.8224 8.51884H20.1826C20.6847 8.51884 21.0918 8.11178 21.0918 7.60966C21.0918 7.10754 20.6847 6.70048 20.1826 6.70048H19.4426L19.136 5.23261L19.1357 5.2312C18.9855 4.51766 18.7475 3.66363 18.1086 3.01008C17.4367 2.32264 16.473 2 15.1912 2H8.80881ZM6.6438 5.60507C6.78448 4.93711 6.94192 4.53667 7.19171 4.28114C7.40845 4.0594 7.82672 3.81835 8.80881 3.81835H11.0908V3.97295H10.6363C10.1341 3.97295 9.72708 4.38001 9.72708 4.88213C9.72708 5.38425 10.1341 5.79131 10.6363 5.79131H13.3638C13.8659 5.79131 14.273 5.38425 14.273 4.88213C14.273 4.38001 13.8659 3.97295 13.3638 3.97295H12.9092V3.81835H15.1912C16.1733 3.81835 16.5916 4.0594 16.8083 4.28114C17.0581 4.53668 17.2156 4.93712 17.3562 5.6051L18.1547 9.42797H5.8453L6.6438 5.60507ZM4.33177 12.9031C4.3973 12.2013 4.4885 11.8592 4.66241 11.653C4.79282 11.4984 5.1294 11.2464 6.19945 11.2464H17.8005C18.8706 11.2464 19.2072 11.4984 19.3376 11.653C19.5115 11.8592 19.6027 12.2014 19.6683 12.9033L20.1775 18.4412C20.2255 18.9517 19.8125 19.429 19.237 19.429H17.5278C17.3408 19.429 17.2453 19.4089 17.2038 19.3958L17.1968 19.3815C17.171 19.3261 17.1465 19.2558 17.0993 19.1142L16.9174 18.5687L16.8932 18.4968C16.7854 18.1766 16.6128 17.6637 16.2034 17.2858C15.7211 16.8406 15.0761 16.7014 14.3275 16.7014H9.67251C8.8983 16.7014 8.2548 16.8678 7.77927 17.3163C7.36788 17.7043 7.19965 18.214 7.09915 18.5185L7.08255 18.5687L6.90071 19.1142C6.85351 19.2558 6.82903 19.3261 6.80316 19.3815L6.79946 19.3892L6.79618 19.3958C6.75475 19.4089 6.65918 19.429 6.47221 19.429H4.76295C4.18746 19.429 3.77452 18.9517 3.82251 18.4412L3.82268 18.4394L4.33177 12.9031ZM17.1774 19.3849C17.1776 19.3847 17.1806 19.3859 17.1855 19.3892C17.1796 19.3867 17.1771 19.385 17.1774 19.3849ZM6.82261 19.3849C6.82286 19.385 6.82041 19.3867 6.81452 19.3892C6.81942 19.3859 6.82236 19.3847 6.82261 19.3849Z" fill="white"/>
</svg>
