<svg width="40" height="40" viewBox="0 0 33 32" fill="none" xmlns="http://www.w3.org/2000/svg">
<path d="M25.1662 9.49988C25.1662 14.355 21.2303 18.2908 16.3751 18.2908C11.5199 18.2908 7.58403 14.355 7.58403 9.49988C7.58403 4.64477 11.5199 0.708912 16.3751 0.708912C21.2303 0.708912 25.1662 4.64477 25.1662 9.49988Z" stroke="#000000" stroke-width="1.41807" stroke-linecap="round"/>
<ellipse cx="12.7323" cy="6.67904" rx="2.56897" ry="2.56896" stroke="#000000" stroke-width="1.02759" stroke-linecap="round"/>
<ellipse cx="19.9257" cy="6.67904" rx="2.56897" ry="2.56896" stroke="#000000" stroke-width="1.02759" stroke-linecap="round"/>
<ellipse cx="16.329" cy="13.8721" rx="2.56897" ry="2.56896" stroke="#000000" stroke-width="1.02759" stroke-linecap="round"/>
<ellipse cx="21.21" cy="12.0739" rx="1.28449" ry="1.28448" stroke="#000000" stroke-width="0.950006" stroke-linecap="round"/>
<ellipse cx="11.4481" cy="12.0739" rx="1.28449" ry="1.28448" stroke="#000000" stroke-width="0.950006" stroke-linecap="round"/>
<ellipse cx="12.3768" cy="26" rx="2.75176" ry="2.75" stroke="#000000" stroke-width="1.38" stroke-linecap="round"/>
<ellipse cx="20.3768" cy="26" rx="2.75176" ry="2.75" stroke="#000000" stroke-width="1.38" stroke-linecap="round"/>
<path d="M25.6846 26H25.6846L25.6847 26.0077C25.7173 28.9292 23.3362 31.31 20.3858 31.31H12.4008C9.45194 31.31 7.065 28.929 7.065 26C7.065 23.071 9.45194 20.69 12.4008 20.69H20.3489C23.2977 20.69 25.6846 23.071 25.6846 26Z" stroke="#000000" stroke-width="1.38" stroke-linecap="round"/>
</svg>
