<svg width="40" height="40" viewBox="0 0 33 32" fill="none" xmlns="http://www.w3.org/2000/svg">
<path d="M25.7691 8.72256L25.7691 8.72717C25.8047 14.0271 21.4973 18.3132 16.1395 18.3132C10.8192 18.3132 6.47173 14.0254 6.47173 8.72256V5.87824C6.47173 3.00092 8.79579 0.686823 11.7073 0.686823H20.5335C23.445 0.686823 25.7691 3.00092 25.7691 5.87824L25.7691 8.72256Z" stroke="#000000" stroke-width="1.37365" stroke-linecap="round"/>
<ellipse cx="13.5042" cy="4.81633" rx="0.99343" ry="0.986028" stroke="#000000" stroke-width="0.822006"/>
<ellipse cx="18.6619" cy="4.81633" rx="0.99343" ry="0.986028" stroke="#000000" stroke-width="0.822006"/>
<ellipse cx="21.4118" cy="8.27223" rx="1.7194" ry="1.70659" stroke="#000000" stroke-width="1.02751" stroke-linecap="round"/>
<ellipse cx="16.102" cy="8.26746" rx="1.7194" ry="1.70659" stroke="#000000" stroke-width="1.02751" stroke-linecap="round"/>
<ellipse cx="10.79" cy="8.26746" rx="1.7194" ry="1.70659" stroke="#000000" stroke-width="1.02751" stroke-linecap="round"/>
<ellipse cx="18.852" cy="12.8561" rx="1.7194" ry="1.70659" stroke="#000000" stroke-width="1.02751" stroke-linecap="round"/>
<ellipse cx="13.6171" cy="12.8561" rx="1.7194" ry="1.70659" stroke="#000000" stroke-width="1.02751" stroke-linecap="round"/>
<ellipse cx="12.1268" cy="26" rx="2.75176" ry="2.75" stroke="#000000" stroke-width="1.38" stroke-linecap="round"/>
<ellipse cx="20.1268" cy="26" rx="2.75176" ry="2.75" stroke="#000000" stroke-width="1.38" stroke-linecap="round"/>
<path d="M25.4346 26H25.4346L25.4347 26.0077C25.4673 28.9292 23.0862 31.31 20.1358 31.31H12.1508C9.20194 31.31 6.815 28.929 6.815 26C6.815 23.071 9.20194 20.69 12.1508 20.69H20.0989C23.0477 20.69 25.4346 23.071 25.4346 26Z" stroke="#000000" stroke-width="1.38" stroke-linecap="round"/>
</svg>
