<svg width="40" height="40" viewBox="0 0 33 32" fill="none" xmlns="http://www.w3.org/2000/svg">
<g clip-path="url(#clip0_1834_7661)">
<circle cx="16.875" cy="16" r="15.25" stroke="#000000" stroke-width="1.5" stroke-linecap="round"/>
<circle cx="10.375" cy="16" r="5" stroke="#000000" stroke-width="1.5" stroke-linecap="round"/>
<circle cx="23.375" cy="16" r="5" stroke="#000000" stroke-width="1.5" stroke-linecap="round"/>
<path fill-rule="evenodd" clip-rule="evenodd" d="M16.8751 11C19.0842 11 20.8751 9.20914 20.8751 7C20.8751 4.79086 19.0842 3 16.8751 3C14.6659 3 12.875 4.79086 12.875 7C12.875 9.20914 14.6659 11 16.8751 11ZM16.211 5.22921C15.9054 4.9236 15.4098 4.9236 15.1042 5.22921C14.7986 5.53483 14.7986 6.03034 15.1042 6.33595L15.7682 6.99994L15.1042 7.66392C14.7986 7.96954 14.7986 8.46504 15.1042 8.77066C15.4098 9.07628 15.9054 9.07628 16.211 8.77066L16.875 8.10668L17.539 8.77066C17.8446 9.07628 18.3402 9.07628 18.6458 8.77066C18.9514 8.46504 18.9514 7.96954 18.6458 7.66392L17.9818 6.99994L18.6458 6.33595C18.9514 6.03034 18.9514 5.53483 18.6458 5.22921C18.3402 4.9236 17.8446 4.9236 17.539 5.22921L16.875 5.8932L16.211 5.22921Z" fill="#000000"/>
<path fill-rule="evenodd" clip-rule="evenodd" d="M16.8751 29C19.0842 29 20.8751 27.2091 20.8751 25C20.8751 22.7909 19.0842 21 16.8751 21C14.6659 21 12.875 22.7909 12.875 25C12.875 27.2091 14.6659 29 16.8751 29ZM16.211 23.2292C15.9054 22.9236 15.4098 22.9236 15.1042 23.2292C14.7986 23.5348 14.7986 24.0303 15.1042 24.336L15.7682 24.9999L15.1042 25.6639C14.7986 25.9695 14.7986 26.465 15.1042 26.7707C15.4098 27.0763 15.9054 27.0763 16.211 26.7707L16.875 26.1067L17.539 26.7707C17.8446 27.0763 18.3402 27.0763 18.6458 26.7707C18.9514 26.465 18.9514 25.9695 18.6458 25.6639L17.9818 24.9999L18.6458 24.336C18.9514 24.0303 18.9514 23.5348 18.6458 23.2292C18.3402 22.9236 17.8446 22.9236 17.539 23.2292L16.875 23.8932L16.211 23.2292Z" fill="#000000"/>
</g>
<defs>
<clipPath id="clip0_1834_7661">
<rect width="40" height="40" fill="white" transform="translate(0.875)"/>
</clipPath>
</defs>
</svg>
