<svg width="20" height="20" viewBox="0 0 20 20" fill="none" xmlns="http://www.w3.org/2000/svg">
<path fill-rule="evenodd" clip-rule="evenodd" d="M5.16357 3.28307C5.66647 2.78041 6.37626 2.5 7.20592 2.5H12.7899C13.6196 2.5 14.3294 2.78041 14.8323 3.28307C15.3352 3.78575 15.6157 4.49526 15.6157 5.32461V16.4534H15.931C16.3322 16.4534 16.6628 16.784 16.6628 17.1853C16.6628 17.5865 16.3322 17.9171 15.931 17.9171H4.06496C3.66372 17.9171 3.33313 17.5865 3.33313 17.1853C3.33313 16.784 3.66372 16.4534 4.06496 16.4534H4.38009V5.32461C4.38009 4.49526 4.66066 3.78575 5.16357 3.28307ZM14.1521 5.32461V16.4534H5.84375V5.32461C5.84375 4.87417 5.97718 4.53977 6.19888 4.31818C6.42059 4.09657 6.7552 3.96317 7.20592 3.96317H12.7899C13.2406 3.96317 13.5752 4.09657 13.797 4.31818C14.0187 4.53977 14.1521 4.87417 14.1521 5.32461ZM8.7789 5.20833C8.27465 5.20833 7.84822 5.3652 7.54753 5.66575C7.24683 5.96632 7.08986 6.39259 7.08986 6.89666V7.60334C7.08986 8.10741 7.24683 8.53368 7.54753 8.83425C7.84822 9.1348 8.27465 9.29167 8.7789 9.29167H11.2103C11.7146 9.29167 12.141 9.1348 12.4417 8.83425C12.7424 8.53368 12.8994 8.10741 12.8994 7.60334V6.89666C12.8994 6.39259 12.7424 5.96632 12.4417 5.66575C12.141 5.3652 11.7146 5.20833 11.2103 5.20833H8.7789ZM8.30094 6.9024C8.30094 6.68742 8.34569 6.57973 8.4037 6.52175C8.46173 6.46374 8.56952 6.419 8.78465 6.419H11.2161C11.4312 6.419 11.539 6.46374 11.597 6.52175C11.655 6.57973 11.6998 6.68742 11.6998 6.9024V7.60908C11.6998 7.82406 11.655 7.93175 11.597 7.98974C11.539 8.04774 11.4312 8.09249 11.2161 8.09249H8.78465C8.56952 8.09249 8.46173 8.04774 8.4037 7.98974C8.34569 7.93175 8.30094 7.82406 8.30094 7.60908V6.9024ZM7.69822 10.6438C7.3678 10.6438 7.09556 10.9161 7.09556 11.2465C7.09556 11.5769 7.3678 11.8491 7.69822 11.8491H9.42263C9.75305 11.8491 10.0253 11.5769 10.0253 11.2465C10.0253 10.9161 9.75305 10.6438 9.42263 10.6438H7.69822Z" fill="#59698B"/>
</svg>
