<svg width="20" height="20" viewBox="0 0 20 20" fill="none" xmlns="http://www.w3.org/2000/svg">
<path fill-rule="evenodd" clip-rule="evenodd" d="M9.99984 3.18178C6.23426 3.18178 3.18166 6.23438 3.18166 9.99996C3.18166 13.7655 6.23426 16.8181 9.99984 16.8181C13.7654 16.8181 16.818 13.7655 16.818 9.99996C16.818 6.23438 13.7654 3.18178 9.99984 3.18178ZM1.6665 9.99996C1.6665 5.39759 5.39746 1.66663 9.99984 1.66663C14.6022 1.66663 18.3332 5.39759 18.3332 9.99996C18.3332 14.6023 14.6022 18.3333 9.99984 18.3333C5.39746 18.3333 1.6665 14.6023 1.6665 9.99996ZM9.79732 5.55723C10.559 4.70039 11.9848 5.22883 11.9848 6.38629V8.6969H12.5454C13.6169 8.6969 14.1993 9.96221 13.4852 10.7732C13.4852 10.7733 13.4851 10.7733 13.485 10.7734L10.258 14.4398L10.2555 14.4426C9.49388 15.2995 8.06809 14.771 8.06809 13.6136V11.303H7.50748C6.4358 11.303 5.8534 10.0374 6.56781 9.22642L7.13627 9.7272L6.56759 9.22667L6.56781 9.22642L9.79486 5.56L9.79732 5.55723ZM10.4696 7.08666L8.09215 9.7878H8.82566C9.24406 9.7878 9.58324 10.127 9.58324 10.5454V12.9132L11.9607 10.212H11.2272C10.8088 10.212 10.4696 9.87287 10.4696 9.45447V7.08666ZM12.3481 9.77187L12.3479 9.77212L12.3481 9.77187ZM7.70494 10.2277L7.70499 10.2277L7.70494 10.2277Z" fill="#59698B"/>
</svg>
