<svg width="34" height="34" viewBox="0 0 34 34" fill="none" xmlns="http://www.w3.org/2000/svg">
<rect width="34" height="34" rx="17" fill="#F2F2F2"/>
<path fill-rule="evenodd" clip-rule="evenodd" d="M24.0607 11.5607C24.6464 10.9749 24.6464 10.0251 24.0607 9.43934C23.4749 8.85355 22.5251 8.85355 21.9393 9.43934L16.75 14.6287L11.5607 9.43934C10.9749 8.85355 10.0251 8.85355 9.43934 9.43934C8.85355 10.0251 8.85355 10.9749 9.43934 11.5607L14.6287 16.75L9.43934 21.9393C8.85355 22.5251 8.85355 23.4749 9.43934 24.0607C10.0251 24.6464 10.9749 24.6464 11.5607 24.0607L16.75 18.8713L21.9393 24.0607C22.5251 24.6464 23.4749 24.6464 24.0607 24.0607C24.6464 23.4749 24.6464 22.5251 24.0607 21.9393L18.8713 16.75L24.0607 11.5607Z" fill="#EB5757"/>
</svg>
