<svg width="20" height="20" viewBox="0 0 20 20" fill="none" xmlns="http://www.w3.org/2000/svg">
<path fill-rule="evenodd" clip-rule="evenodd" d="M1.66699 9.99996C1.66699 5.41455 5.41492 1.66663 10.0003 1.66663C14.5857 1.66663 18.3337 5.41455 18.3337 9.99996C18.3337 14.5854 14.5857 18.3333 10.0003 18.3333C5.41492 18.3333 1.66699 14.5854 1.66699 9.99996ZM10.0003 3.48181C6.41742 3.48181 3.48217 6.41705 3.48217 9.99996C3.48217 13.5829 6.41742 16.5181 10.0003 16.5181C13.5832 16.5181 16.5185 13.5829 16.5185 9.99996C16.5185 6.41705 13.5832 3.48181 10.0003 3.48181ZM7.25702 7.25674C7.61145 6.90231 8.18611 6.90231 8.54055 7.25674L10.0003 8.71646L11.46 7.25674C11.8144 6.90231 12.3891 6.90231 12.7435 7.25674C13.098 7.61118 13.098 8.18583 12.7435 8.54027L11.2838 9.99999L12.7435 11.4597C13.098 11.8141 13.098 12.3888 12.7435 12.7432C12.3891 13.0977 11.8144 13.0977 11.46 12.7432L10.0003 11.2835L8.54055 12.7432C8.18611 13.0977 7.61145 13.0977 7.25702 12.7432C6.90258 12.3888 6.90258 11.8141 7.25702 11.4597L8.71674 9.99999L7.25702 8.54027C6.90258 8.18583 6.90258 7.61118 7.25702 7.25674Z" fill="#1A2C51"/>
</svg>
