<svg width="24" height="24" viewBox="0 0 24 24" fill="none" xmlns="http://www.w3.org/2000/svg">
<path fill-rule="evenodd" clip-rule="evenodd" d="M8.57538 3.31629C9.66937 2.66896 11.103 3.04818 11.757 4.15337L11.8616 4.32777C12.0962 4.73342 12.3283 4.85555 12.4924 4.85555C12.6566 4.85555 12.8886 4.73333 13.1233 4.32769L13.2176 4.16469L13.2183 4.16349C13.8723 3.04791 15.3073 2.66877 16.41 3.3252L17.8836 4.17336C18.4666 4.5079 18.8866 5.05304 19.0674 5.70944L19.0683 5.7128C19.2392 6.368 19.1542 7.04637 18.8198 7.62959C18.7058 7.83005 18.6402 8.00877 18.6165 8.15469C18.5925 8.30165 18.6135 8.39639 18.6467 8.45287C18.7204 8.57871 18.9641 8.72028 19.4455 8.72028C20.8401 8.72028 21.9762 9.85638 21.9762 11.251V12.7609C21.9762 14.1555 20.8401 15.2916 19.4455 15.2916C18.9641 15.2916 18.7204 15.4332 18.6467 15.559C18.575 15.6814 18.5727 15.9623 18.818 16.3793L18.8194 16.3817C19.1524 16.962 19.2491 17.6496 19.0677 18.3012C18.8954 18.9596 18.4735 19.5053 17.882 19.8394L16.3958 20.6899C16.0339 20.8899 15.6396 20.9965 15.2333 20.9965C15.0288 20.9965 14.8282 20.9673 14.6333 20.9209L14.6248 20.9187C14.0301 20.7557 13.5289 20.3803 13.2111 19.8507L13.1061 19.6756C12.8714 19.2699 12.6394 19.1478 12.4753 19.1478C12.3111 19.1478 12.079 19.27 11.8444 19.6756L11.75 19.8386L11.749 19.8404C11.4328 20.377 10.9317 20.7642 10.3319 20.9194C9.72592 21.0825 9.09758 20.9962 8.56593 20.6779L7.09267 19.83C6.50962 19.4954 6.08961 18.9503 5.90886 18.2939L5.90796 18.2905C5.73703 17.6353 5.82205 16.9569 6.15654 16.3736C6.27045 16.1732 6.33604 15.9945 6.35979 15.8486C6.38371 15.7017 6.36269 15.6069 6.32958 15.5505C6.25582 15.4246 6.0121 15.283 5.53074 15.283C4.1361 15.283 3 14.1469 3 12.7523V11.2424C3 9.84781 4.1361 8.71171 5.53074 8.71171C6.0121 8.71171 6.25582 8.57013 6.32958 8.44429C6.40129 8.32198 6.40352 8.04104 6.15821 7.62401L6.15681 7.6216C5.82226 7.03853 5.73682 6.35121 5.90808 5.70378C6.08015 5.04464 6.50231 4.49827 7.09424 4.16389L8.57538 3.31629ZM14.7514 5.0594L14.752 5.05852C14.9049 4.80082 15.2356 4.71934 15.4776 4.86567L15.8062 5.05369L16.9633 5.71587C17.1329 5.82126 17.2509 5.9738 17.3009 6.16149C17.3524 6.35466 17.3261 6.55015 17.2325 6.71255C16.7118 7.60803 16.6247 8.57489 17.0602 9.33696C17.4971 10.1016 18.3806 10.5047 19.4198 10.5047C19.8252 10.5047 20.149 10.8341 20.149 11.2339V12.7437C20.149 13.1506 19.8267 13.4729 19.4198 13.4729C18.3806 13.4729 17.4971 13.876 17.0602 14.6406C16.9656 14.8061 16.8957 14.9813 16.8495 15.1632C16.7157 15.6904 16.7811 16.2748 17.0234 16.8479C17.0826 16.988 17.1525 17.1274 17.2325 17.2651C17.3261 17.4275 17.3524 17.6229 17.3009 17.8161C17.273 17.921 17.2213 18.0168 17.1524 18.0978C17.0974 18.1624 17.0314 18.2175 16.9575 18.2601L15.4734 19.118L15.4698 19.1201C15.3624 19.1846 15.2276 19.2049 15.0813 19.1683C14.9417 19.1334 14.8292 19.0477 14.7619 18.93L14.667 18.7662C14.1469 17.8628 13.3613 17.3076 12.4795 17.3076C11.5967 17.3076 10.8115 17.8731 10.2923 18.7658L10.2 18.9252C10.1191 19.0543 10.001 19.1439 9.86922 19.1769L9.86668 19.1776C9.73305 19.2124 9.59175 19.194 9.47526 19.1218L7.9872 18.2703C7.8176 18.1649 7.69963 18.0124 7.64958 17.8247C7.59805 17.6314 7.62444 17.4359 7.71809 17.2734C8.23869 16.378 8.32574 15.4112 7.89031 14.6492C7.45339 13.8846 6.56987 13.4815 5.53074 13.4815C5.12529 13.4815 4.80154 13.1521 4.80154 12.7523V11.2424C4.80154 10.8355 5.12383 10.5132 5.53074 10.5132C6.56987 10.5132 7.45339 10.1101 7.89031 9.34554C8.32578 8.58347 8.23868 7.61659 7.71797 6.72111C7.62442 6.55871 7.59808 6.36323 7.64958 6.17007C7.69986 5.98154 7.82665 5.82201 7.99296 5.72606L9.47765 4.86786C9.72265 4.72542 10.0451 4.81092 10.1889 5.04815L10.2809 5.21552L10.2834 5.21988C10.8035 6.12331 11.5892 6.67854 12.471 6.67854C13.3527 6.67854 14.1384 6.12331 14.6585 5.21988L14.7514 5.0594ZM12.4795 8.5229C10.5616 8.5229 9.00514 10.0794 9.00514 11.9973C9.00514 13.9152 10.5616 15.4717 12.4795 15.4717C14.3975 15.4717 15.9539 13.9152 15.9539 11.9973C15.9539 10.0794 14.3975 8.5229 12.4795 8.5229ZM10.8067 11.9973C10.8067 11.0757 11.5579 10.3244 12.4795 10.3244C13.4012 10.3244 14.1524 11.0757 14.1524 11.9973C14.1524 12.9189 13.4012 13.6702 12.4795 13.6702C11.5579 13.6702 10.8067 12.9189 10.8067 11.9973Z" fill="white"/>
</svg>
