<svg width="64" height="64" viewBox="0 0 24 24" fill="none" xmlns="http://www.w3.org/2000/svg">
  <path fill-rule="evenodd" clip-rule="evenodd" d="M10.7153 3.35155C11.1044 3.1219 11.5475 3 12 3C12.4525 3 12.8957 3.12191 13.2848 3.35158C13.2855 3.352 13.2862 3.35242 13.2869 3.35284L18.7314 6.54041C19.0426 6.72451 19.3097 6.97195 19.5176 7.26461C19.5672 7.31731 19.6118 7.37624 19.6503 7.4411C19.6899 7.50792 19.7208 7.57748 19.7434 7.64847C19.9119 8.00075 19.9996 8.3872 20 8.77873V15.1559C19.9995 15.6061 19.8836 16.0496 19.6622 16.4422C19.4406 16.8349 19.1204 17.1641 18.7314 17.3942L18.7275 17.3965L13.2869 20.5818C13.2862 20.5822 13.2856 20.5826 13.2849 20.583C13.0254 20.7362 12.7418 20.8414 12.4474 20.8946C12.3128 20.962 12.1608 21 12 21C11.8392 21 11.6872 20.962 11.5526 20.8946C11.2582 20.8414 10.9747 20.7362 10.7151 20.583C10.7145 20.5826 10.7138 20.5822 10.7131 20.5818L5.27253 17.3965L5.26865 17.3942C4.87959 17.1641 4.55941 16.8349 4.33785 16.4422C4.11638 16.0497 4.00045 15.6061 4 15.1559V8.77873C4.00039 8.38721 4.0881 8.00076 4.25661 7.64848C4.2792 7.57749 4.31014 7.50793 4.34974 7.4411C4.38819 7.37624 4.43282 7.3173 4.48243 7.26461C4.69028 6.97195 4.95742 6.72451 5.26865 6.54041L5.27252 6.53812L10.7153 3.35155ZM6 9.58162V15.1543C6.00017 15.2629 6.02826 15.3682 6.07976 15.4595C6.13092 15.5502 6.20262 15.6226 6.28541 15.6719C6.28591 15.6722 6.28641 15.6725 6.28691 15.6728L11 18.4322V12.545L6 9.58162ZM13 12.545V18.4322L17.7131 15.6728C17.7136 15.6725 17.7141 15.6722 17.7146 15.6719C17.7974 15.6226 17.8691 15.5502 17.9202 15.4595C17.9717 15.3683 17.9998 15.263 18 15.1545C18 15.1543 18 15.1547 18 15.1545V9.58162L13 12.545ZM17.0043 7.84685L12.2686 5.07422C12.1853 5.02494 12.0928 5 12 5C11.9072 5 11.8147 5.02493 11.7314 5.07422L11.7275 5.07651L6.99566 7.84685L12 10.8128L17.0043 7.84685Z" fill="#1A2C51" stroke="#1A2C51" stroke-width="0"/>
</svg>
