<svg width="16" height="16" viewBox="0 0 16 16" fill="none" xmlns="http://www.w3.org/2000/svg">
<path fill-rule="evenodd" clip-rule="evenodd" d="M7.99997 2.66666C7.58739 2.66666 7.21948 2.97301 7.21948 3.37488V7.21951H3.37485C2.97298 7.21951 2.66663 7.58743 2.66663 8C2.66663 8.41257 2.97298 8.78049 3.37485 8.78049H7.21948V12.6251C7.21948 13.027 7.58739 13.3333 7.99997 13.3333C8.41254 13.3333 8.78045 13.027 8.78045 12.6251V8.78049H12.6251C13.027 8.78049 13.3333 8.41257 13.3333 8C13.3333 7.58743 13.027 7.21951 12.6251 7.21951H8.78045V3.37488C8.78045 2.97301 8.41254 2.66666 7.99997 2.66666Z" fill="#1A2C51"/>
</svg>
