<svg width="16" height="16" viewBox="0 0 16 16" fill="none" xmlns="http://www.w3.org/2000/svg">
<path fill-rule="evenodd" clip-rule="evenodd" d="M2.66675 4.66667C2.66675 4.29848 2.94767 4 3.2942 4H12.706C13.0525 4 13.3334 4.29848 13.3334 4.66667C13.3334 5.03486 13.0525 5.33333 12.706 5.33333H3.2942C2.94767 5.33333 2.66675 5.03486 2.66675 4.66667ZM4.23538 8C4.23538 7.63181 4.51629 7.33333 4.86283 7.33333H11.1373C11.4839 7.33333 11.7648 7.63181 11.7648 8C11.7648 8.36819 11.4839 8.66667 11.1373 8.66667H4.86283C4.51629 8.66667 4.23538 8.36819 4.23538 8ZM5.804 11.3333C5.804 10.9651 6.08492 10.6667 6.43145 10.6667H9.56871C9.91524 10.6667 10.1962 10.9651 10.1962 11.3333C10.1962 11.7015 9.91524 12 9.56871 12H6.43145C6.08492 12 5.804 11.7015 5.804 11.3333Z" fill="#1A2C51"/>
</svg>
