<svg width="24" height="24" viewBox="0 0 24 24" fill="none" xmlns="http://www.w3.org/2000/svg">
<path fill-rule="evenodd" clip-rule="evenodd" d="M5.63636 2C4.58714 2 3.63325 2.26292 2.94808 2.94808C2.26292 3.63325 2 4.58714 2 5.63636V7.45455C2 8.50377 2.26292 9.45766 2.94808 10.1428C3.63325 10.828 4.58714 11.0909 5.63636 11.0909H7.45455C8.50377 11.0909 9.45766 10.828 10.1428 10.1428C10.828 9.45766 11.0909 8.50377 11.0909 7.45455V5.63636C11.0909 4.58714 10.828 3.63325 10.1428 2.94808C9.45766 2.26292 8.50377 2 7.45455 2H5.63636ZM3.81818 5.63636C3.81818 4.8674 4.00981 4.45766 4.23373 4.23373C4.45766 4.00981 4.8674 3.81818 5.63636 3.81818H7.45455C8.22351 3.81818 8.63325 4.00981 8.85718 4.23373C9.0811 4.45766 9.27273 4.8674 9.27273 5.63636V7.45455C9.27273 8.22351 9.0811 8.63325 8.85718 8.85718C8.63325 9.0811 8.22351 9.27273 7.45455 9.27273H5.63636C4.8674 9.27273 4.45766 9.0811 4.23373 8.85718C4.00981 8.63325 3.81818 8.22351 3.81818 7.45455V5.63636Z" fill="white"/>
<path fill-rule="evenodd" clip-rule="evenodd" d="M16.5455 2C15.4962 2 14.5423 2.26292 13.8572 2.94808C13.172 3.63325 12.9091 4.58714 12.9091 5.63636V7.45455C12.9091 8.50377 13.172 9.45766 13.8572 10.1428C14.5423 10.828 15.4962 11.0909 16.5455 11.0909H18.3636C19.4129 11.0909 20.3668 10.828 21.0519 10.1428C21.7371 9.45766 22 8.50377 22 7.45455V5.63636C22 4.58714 21.7371 3.63325 21.0519 2.94808C20.3668 2.26292 19.4129 2 18.3636 2H16.5455ZM14.7273 5.63636C14.7273 4.8674 14.9189 4.45766 15.1428 4.23373C15.3668 4.00981 15.7765 3.81818 16.5455 3.81818H18.3636C19.1326 3.81818 19.5423 4.00981 19.7663 4.23373C19.9902 4.45766 20.1818 4.8674 20.1818 5.63636V7.45455C20.1818 8.22351 19.9902 8.63325 19.7663 8.85718C19.5423 9.0811 19.1326 9.27273 18.3636 9.27273H16.5455C15.7765 9.27273 15.3668 9.0811 15.1428 8.85718C14.9189 8.63325 14.7273 8.22351 14.7273 7.45455V5.63636Z" fill="white"/>
<path fill-rule="evenodd" clip-rule="evenodd" d="M13.8572 13.8572C14.5423 13.172 15.4962 12.9091 16.5455 12.9091H18.3636C19.4129 12.9091 20.3668 13.172 21.0519 13.8572C21.7371 14.5423 22 15.4962 22 16.5455V18.3636C22 19.4129 21.7371 20.3668 21.0519 21.0519C20.3668 21.7371 19.4129 22 18.3636 22H16.5455C15.4962 22 14.5423 21.7371 13.8572 21.0519C13.172 20.3668 12.9091 19.4129 12.9091 18.3636V16.5455C12.9091 15.4962 13.172 14.5423 13.8572 13.8572ZM15.1428 15.1428C14.9189 15.3668 14.7273 15.7765 14.7273 16.5455V18.3636C14.7273 19.1326 14.9189 19.5423 15.1428 19.7663C15.3668 19.9902 15.7765 20.1818 16.5455 20.1818H18.3636C19.1326 20.1818 19.5423 19.9902 19.7663 19.7663C19.9902 19.5423 20.1818 19.1326 20.1818 18.3636V16.5455C20.1818 15.7765 19.9902 15.3668 19.7663 15.1428C19.5423 14.9189 19.1326 14.7273 18.3636 14.7273H16.5455C15.7765 14.7273 15.3668 14.9189 15.1428 15.1428Z" fill="white"/>
<path fill-rule="evenodd" clip-rule="evenodd" d="M5.63636 12.9091C4.58714 12.9091 3.63325 13.172 2.94808 13.8572C2.26292 14.5423 2 15.4962 2 16.5455V18.3636C2 19.4129 2.26292 20.3668 2.94808 21.0519C3.63325 21.7371 4.58714 22 5.63636 22H7.45455C8.50377 22 9.45766 21.7371 10.1428 21.0519C10.828 20.3668 11.0909 19.4129 11.0909 18.3636V16.5455C11.0909 15.4962 10.828 14.5423 10.1428 13.8572C9.45766 13.172 8.50377 12.9091 7.45455 12.9091H5.63636ZM3.81818 16.5455C3.81818 15.7765 4.00981 15.3668 4.23373 15.1428C4.45766 14.9189 4.8674 14.7273 5.63636 14.7273H7.45455C8.22351 14.7273 8.63325 14.9189 8.85718 15.1428C9.0811 15.3668 9.27273 15.7765 9.27273 16.5455V18.3636C9.27273 19.1326 9.0811 19.5423 8.85718 19.7663C8.63325 19.9902 8.22351 20.1818 7.45455 20.1818H5.63636C4.8674 20.1818 4.45766 19.9902 4.23373 19.7663C4.00981 19.5423 3.81818 19.1326 3.81818 18.3636V16.5455Z" fill="white"/>
</svg>
