<svg width="20" height="20" viewBox="0 0 20 20" fill="none" xmlns="http://www.w3.org/2000/svg">
<path fill-rule="evenodd" clip-rule="evenodd" d="M10.926 5.46292C10.926 6.17885 10.3456 6.75922 9.62967 6.75922C8.91375 6.75922 8.33337 6.17885 8.33337 5.46292C8.33337 4.747 8.91375 4.16663 9.62967 4.16663C10.3456 4.16663 10.926 4.747 10.926 5.46292ZM10.926 9.99999C10.926 10.7159 10.3456 11.2963 9.62967 11.2963C8.91375 11.2963 8.33337 10.7159 8.33337 9.99999C8.33337 9.28407 8.91375 8.7037 9.62967 8.7037C10.3456 8.7037 10.926 9.28407 10.926 9.99999ZM9.62967 15.8333C10.3456 15.8333 10.926 15.2529 10.926 14.537C10.926 13.821 10.3456 13.2407 9.62967 13.2407C8.91375 13.2407 8.33337 13.821 8.33337 14.537C8.33337 15.2529 8.91375 15.8333 9.62967 15.8333Z" fill="#9DA9C2"/>
</svg>
