<svg width="24" height="24" viewBox="0 0 24 24" fill="none" xmlns="http://www.w3.org/2000/svg">
<path fill-rule="evenodd" clip-rule="evenodd" d="M19.2384 4.55108C18.0058 3.39135 16.7544 2.86686 15.4888 3.02871C14.2755 3.18386 13.3023 3.94341 12.5369 4.7519L11.1757 6.1927C11.1697 6.19892 11.1637 6.20522 11.1578 6.21159L4.32621 13.4426L4.32426 13.4447C4.07195 13.7133 3.86591 14.0597 3.71806 14.3767C3.56953 14.6952 3.43942 15.0706 3.39188 15.4272L3.38956 15.4459L3.01956 18.6859L3.01922 18.6889C2.92467 19.5399 3.17922 20.3576 3.77624 20.9237C4.37419 21.4908 5.2054 21.7009 6.05272 21.5549L9.27148 21.0051L9.27814 21.0039C9.63619 20.9403 10.0075 20.792 10.3221 20.6238C10.6317 20.4582 10.9686 20.2296 11.2252 19.9506L17.9449 12.8381C18.0345 12.7705 18.1127 12.6881 18.1755 12.5939L19.4293 11.2669C20.1943 10.4587 20.9014 9.44342 20.9869 8.22036C21.0761 6.9446 20.4765 5.72194 19.2402 4.55282L19.2384 4.55108ZM16.9564 10.972L17.9769 9.8919C18.6318 9.20012 18.9548 8.61014 18.9918 8.0809C19.0251 7.60431 18.8399 6.92726 17.8669 6.00684C16.9 5.09732 16.2166 4.95192 15.7424 5.01255C15.2159 5.07988 14.6443 5.43511 13.99 6.12613L12.9756 7.19984C13.4587 9.11928 15.0104 10.5877 16.9564 10.972ZM11.4311 8.83466L5.78196 14.8141L5.78123 14.8148C5.72345 14.8767 5.62491 15.0199 5.53065 15.222C5.43895 15.4187 5.38922 15.5897 5.3753 15.6846L5.00699 18.9098L5.00685 18.9111C4.97182 19.2293 5.0721 19.3963 5.15247 19.4725C5.23195 19.5479 5.40062 19.6378 5.7132 19.5839L5.71474 19.5837L8.93051 19.0344C9.02298 19.0175 9.19041 18.9609 9.37911 18.86C9.57172 18.757 9.7016 18.6533 9.75415 18.5956L9.76621 18.5826L15.4149 12.6037C13.6396 11.9292 12.2012 10.571 11.4311 8.83466Z" fill="white"/>
</svg>
