<?xml version="1.0" ?>

<!-- Uploaded to: SVG Repo, www.svgrepo.com, Generator: SVG Repo Mixer Tools -->
<svg width="80px" height="80px" viewBox="0 0 960 960" version="1.1" xml:space="preserve" xmlns="http://www.w3.org/2000/svg" xmlns:xlink="http://www.w3.org/1999/xlink">

<style type="text/css">
	.st0{display:none;}
	.st1{display:inline;opacity:0.93;}
	.st2{display:inline;}
	.st3{fill:#000000;stroke:#000000;stroke-width:15;stroke-linecap:round;stroke-linejoin:round;stroke-miterlimit:10;}
	.st4{display:inline;fill:none;stroke:#000000;stroke-width:15;stroke-linecap:round;stroke-linejoin:round;stroke-miterlimit:10;}
	.st5{fill:#222222;}
	.st6{fill:#DDEDE7;}
	.st7{fill:#1A1D3F;}
	.st8{fill:#ED644E;}
	.st9{fill:#E9B44D;}
	.st10{fill:#3DC5A1;}
	.st11{fill:#494EDF;}
</style>



<g id="outline">

<path class="st3" d="M575,490.1c-0.1,0-0.2,0-0.3,0c-10.4,0.1-19.2,0.3-27,0.5c-20,0.5-35,0.8-59.1-0.3   c1.6-11.4,6.6-42.5,22.4-126.9c1.7-9.3-3-17.9-11.7-21.5c-8.8-3.6-18.2-0.7-23.4,7.2c-34,50.8-96.2,143.1-130.2,190.9   c-4.3,6-4.8,13.7-1.4,20.2c3.4,6.5,10.1,10.5,17.4,10.4c8.8-0.1,16.9-0.3,24.7-0.6c14.8-0.4,29-0.8,47.8-0.5   c-9.3,21.7-19.1,47.6-29.5,74.8c-7.3,19.3-14.9,39.3-23.1,59.9c-3.5,8.8-0.3,18.5,7.8,23.6c3.2,2,6.8,3,10.3,3   c5.3,0,10.4-2.2,14.2-6.4c63-69.1,107-120.3,175.9-202.4c4.9-5.9,6-13.8,2.7-20.8C589.3,494.3,582.6,490.1,575,490.1z M578.4,512.3   c-68.8,81.9-112.6,133.1-175.5,202c-2.2,2.4-4.6,1.3-5.6,0.8c-0.9-0.6-3-2.3-1.8-5.3c8.2-20.7,15.8-40.8,23.2-60.1   c11.9-31.4,23.2-61.1,33.6-84.2c1-2.3,0.8-4.9-0.5-7c-1.3-2.1-3.6-3.4-6.1-3.5c-9.8-0.3-18.5-0.5-26.5-0.5c-12.4,0-23,0.3-33.3,0.6   c-7.7,0.2-15.7,0.5-24.4,0.6c0,0,0,0-0.1,0c-2.4,0-3.5-1.6-3.9-2.4c-0.4-0.7-1.1-2.6,0.3-4.6c34.1-48,96.4-140.4,130.4-191.2   c1.8-2.7,4.3-2,5.3-1.6c1,0.4,3.3,1.7,2.7,4.9c-6.7,36.1-12.1,65.7-16,88.1c-8.6,49.4-8.2,50-5.6,53.3c1.3,1.7,3.4,2.8,5.6,2.9   c29.3,1.6,45.5,1.2,67.9,0.7c7.8-0.2,16.5-0.4,26.8-0.5c0,0,0,0,0.1,0c2.5,0,3.6,1.8,4,2.5C579.3,508.4,580,510.4,578.4,512.3z    M557.1,163.8c-19.5-31.6-47.6-49.9-77.1-50.1c-0.2,0-0.3,0-0.5,0c-28.1,0-53.8,16.1-72.4,45.3c-48.4,76.2-215.5,341.2-334.8,554.9   c-20.1,35.9-22.8,69.7-7.6,95.1c14.4,24.1,43.4,37.3,81.8,37.3c1,0,1.9,0,2.9,0c152-2.6,340.1-1.7,506.1-0.8   c52.7,0.3,102.4,0.5,149.8,0.6c0.2,0,0.4,0,0.6,0c43.2,0,75.2-14,90-39.5c14.9-25.6,11.1-60.4-10.5-98.1   C783.4,530.8,647.2,309.9,557.1,163.8z M882.9,799c-12,20.7-39.4,32.1-77,32.1c-0.2,0-0.4,0-0.5,0c-47.4-0.1-97.1-0.4-149.8-0.6   c-166-0.8-354.2-1.7-506.4,0.9c-34.2,0.6-59.6-10.1-71.6-30c-12.3-20.6-9.6-49,7.8-80.1c119.1-213.3,286.1-478.1,334.4-554.1   c15.7-24.8,36.9-38.4,59.7-38.4c0.1,0,0.3,0,0.4,0c24.2,0.2,47.7,15.8,64.4,43c90,146.1,226.1,366.8,328,544.3   C891.2,748.8,895,778.3,882.9,799z M656.5,475.2c-58.2-95.4-118.3-194-170.9-289.1c-1.3-2.4-3.8-3.9-6.5-3.9c0,0,0,0,0,0   c-2.7,0-5.2,1.5-6.5,3.8C421.8,277,371.2,360,322.4,440.4C261.3,540.9,198,644.9,132.1,767.6c-1.2,2.3-1.2,5.1,0.1,7.3   c1.3,2.3,3.7,3.7,6.3,3.7c55,0.9,108.8,1.3,161.8,1.3c89.6,0,176.6-1,261.8-2c84.2-1,171.4-2,258.9-2c2.7,0,5.1-1.4,6.5-3.7   s1.4-5.1,0.1-7.4C775,669.4,714.8,570.7,656.5,475.2z M562.1,762.9c-131.7,1.5-267.7,3.1-410.9,0.9   c63.6-117.6,124.8-218.3,184-315.7c46.8-77,95.1-156.4,143.8-243c51.1,91.7,108.8,186.3,164.7,277.8   c55.9,91.6,113.6,186.3,164.7,277.9C725.1,761,642.3,762,562.1,762.9z"/>

</g>

</svg>