<svg width="29" height="28" viewBox="0 0 29 28" fill="none" xmlns="http://www.w3.org/2000/svg">
<rect opacity="0.01" x="28.5742" y="28" width="28" height="28" transform="rotate(180 28.5742 28)" fill="#333333"/>
<path d="M18.2488 9.79984C16.4429 9.79365 14.7086 10.5059 13.4284 11.7796C12.1481 13.0533 11.4269 14.7839 11.4238 16.5898V23.4498C11.4238 23.7283 11.5345 23.9954 11.7314 24.1923C11.9283 24.3892 12.1954 24.4998 12.4738 24.4998H14.9238C15.5037 24.4998 15.9738 24.0297 15.9738 23.4498V16.5898C15.9734 15.9466 16.2466 15.3336 16.7252 14.9039C17.2039 14.4743 17.8427 14.2686 18.4822 14.3382C19.6558 14.486 20.5331 15.4887 20.5238 16.6715V23.4498C20.5238 24.0297 20.9939 24.4998 21.5738 24.4998H24.0238C24.6037 24.4998 25.0738 24.0297 25.0738 23.4498V16.5898C25.0707 14.7839 24.3496 13.0533 23.0693 11.7796C21.789 10.5059 20.0548 9.79365 18.2488 9.79984V9.79984Z" fill="#333333"/>
<rect x="4.07422" y="10.8496" width="5.25" height="13.65" rx="0.975857" fill="#333333"/>
<circle cx="6.69922" cy="6.125" r="2.625" fill="#333333"/>
</svg>
