<svg width="24" height="24" viewBox="0 0 24 24" fill="none" xmlns="http://www.w3.org/2000/svg">
<path fill-rule="evenodd" clip-rule="evenodd" d="M15.3909 2C14.589 2 13.7924 2.14443 13.2123 2.69014C12.6183 3.24896 12.4545 4.0335 12.4545 4.81818V11C12.4545 11.7847 12.6183 12.5692 13.2123 13.128C13.7924 13.6738 14.589 13.8182 15.3909 13.8182H19.0636C19.8655 13.8182 20.6622 13.6738 21.2422 13.128C21.8362 12.5692 22 11.7847 22 11V4.81818C22 4.0335 21.8362 3.24896 21.2422 2.69014C20.6622 2.14443 19.8655 2 19.0636 2H15.3909ZM14.2727 4.81818C14.2727 4.23922 14.3999 4.06922 14.4581 4.01441C14.5303 3.94648 14.7474 3.81818 15.3909 3.81818H19.0636C19.7072 3.81818 19.9242 3.94648 19.9964 4.01441C20.0547 4.06922 20.1818 4.23922 20.1818 4.81818V11C20.1818 11.579 20.0547 11.749 19.9964 11.8038C19.9242 11.8717 19.7072 12 19.0636 12H15.3909C14.7474 12 14.5303 11.8717 14.4581 11.8038C14.3999 11.749 14.2727 11.579 14.2727 11V4.81818Z" fill="white"/>
<path fill-rule="evenodd" clip-rule="evenodd" d="M15.3909 14.7273C14.589 14.7273 13.7924 14.8717 13.2123 15.4174C12.6183 15.9762 12.4545 16.7608 12.4545 17.5455V19.1818C12.4545 19.9665 12.6183 20.751 13.2123 21.3099C13.7924 21.8556 14.589 22 15.3909 22H19.0636C19.8655 22 20.6622 21.8556 21.2422 21.3099C21.8362 20.751 22 19.9665 22 19.1818V17.5455C22 16.7608 21.8362 15.9762 21.2422 15.4174C20.6622 14.8717 19.8655 14.7273 19.0636 14.7273H15.3909ZM14.2727 17.5455C14.2727 16.9665 14.3999 16.7965 14.4581 16.7417C14.5303 16.6737 14.7474 16.5455 15.3909 16.5455H19.0636C19.7072 16.5455 19.9242 16.6737 19.9964 16.7417C20.0547 16.7965 20.1818 16.9665 20.1818 17.5455V19.1818C20.1818 19.7608 20.0547 19.9308 19.9964 19.9856C19.9242 20.0535 19.7072 20.1818 19.0636 20.1818H15.3909C14.7474 20.1818 14.5303 20.0535 14.4581 19.9856C14.3999 19.9308 14.2727 19.7608 14.2727 19.1818V17.5455Z" fill="white"/>
<path fill-rule="evenodd" clip-rule="evenodd" d="M2.75777 10.872C3.33783 10.3263 4.13447 10.1818 4.93636 10.1818H8.60909C9.41099 10.1818 10.2076 10.3263 10.7877 10.872C11.3817 11.4308 11.5455 12.2153 11.5455 13V19.1818C11.5455 19.9665 11.3817 20.751 10.7877 21.3099C10.2076 21.8556 9.41099 22 8.60909 22H4.93636C4.13447 22 3.33783 21.8556 2.75777 21.3099C2.16376 20.751 2 19.9665 2 19.1818V13C2 12.2153 2.16376 11.4308 2.75777 10.872ZM4.0036 12.1962C3.94533 12.251 3.81818 12.421 3.81818 13V19.1818C3.81818 19.7608 3.94533 19.9308 4.0036 19.9856C4.0758 20.0535 4.29281 20.1818 4.93636 20.1818H8.60909C9.25265 20.1818 9.46965 20.0535 9.54186 19.9856C9.60012 19.9308 9.72727 19.7608 9.72727 19.1818V13C9.72727 12.421 9.60012 12.251 9.54186 12.1962C9.46965 12.1283 9.25265 12 8.60909 12H4.93636C4.29281 12 4.0758 12.1283 4.0036 12.1962Z" fill="white"/>
<path fill-rule="evenodd" clip-rule="evenodd" d="M4.93636 2C4.13447 2 3.33783 2.14443 2.75777 2.69014C2.16376 3.24896 2 4.0335 2 4.81818V6.45455C2 7.23922 2.16376 8.02376 2.75777 8.58259C3.33783 9.1283 4.13447 9.27273 4.93636 9.27273H8.60909C9.41099 9.27273 10.2076 9.1283 10.7877 8.58259C11.3817 8.02376 11.5455 7.23922 11.5455 6.45455V4.81818C11.5455 4.0335 11.3817 3.24896 10.7877 2.69014C10.2076 2.14443 9.41099 2 8.60909 2H4.93636ZM3.81818 4.81818C3.81818 4.23922 3.94533 4.06922 4.0036 4.01441C4.0758 3.94648 4.29281 3.81818 4.93636 3.81818H8.60909C9.25265 3.81818 9.46965 3.94648 9.54186 4.01441C9.60012 4.06922 9.72727 4.23922 9.72727 4.81818V6.45455C9.72727 7.0335 9.60012 7.20351 9.54186 7.25832C9.46965 7.32625 9.25265 7.45455 8.60909 7.45455H4.93636C4.29281 7.45455 4.0758 7.32625 4.0036 7.25832C3.94533 7.20351 3.81818 7.0335 3.81818 6.45455V4.81818Z" fill="white"/>
</svg>
