<svg width="150" height="280" viewBox="0 0 150 280" fill="none" xmlns="http://www.w3.org/2000/svg">
<circle cx="171.081" cy="129.419" r="128.919" fill="#E1E7F2"/>
<circle cx="128.919" cy="142.392" r="128.919" fill="#F3F5FD"/>
<path fill-rule="evenodd" clip-rule="evenodd" d="M174.048 265.807L251.154 218.358C265.409 209.587 274.093 194.05 274.093 177.318V105.88C274.093 89.1382 265.409 73.6014 251.154 64.8306L174.048 17.3816C158.559 7.84937 139.023 7.84937 123.534 17.3816L46.4282 64.8306C32.1733 73.6014 23.4989 89.1382 23.4989 105.88V177.318C23.4989 194.05 32.1733 209.587 46.4282 218.358L123.534 265.807C139.023 275.339 158.559 275.339 174.048 265.807Z" stroke="#2755F6" stroke-width="12.973" stroke-linecap="round" stroke-linejoin="round"/>
<path d="M148.79 252.435V165.691" stroke="#2755F6" stroke-width="12.973" stroke-linecap="round" stroke-linejoin="round"/>
<path d="M129.513 136.776L52.4073 88.585" stroke="#2755F6" stroke-width="12.973" stroke-linecap="round" stroke-linejoin="round"/>
<circle cx="29.9237" cy="41.5277" r="8.03186" fill="#2755F6"/>
</svg>
