<svg width="186" height="173" viewBox="0 0 186 173" fill="none" xmlns="http://www.w3.org/2000/svg">
<circle cx="106" cy="80.2156" r="79.5" fill="#E1E7F2"/>
<circle cx="80" cy="88.2156" r="79.5" fill="#F3F5FD"/>
<path fill-rule="evenodd" clip-rule="evenodd" d="M107.829 164.321L155.377 135.061C164.168 129.653 169.523 120.072 169.523 109.753V65.6997C169.523 55.3757 164.168 45.7947 155.377 40.386L107.829 11.1258C98.2775 5.24761 86.2299 5.24761 76.6786 11.1258L29.13 40.386C20.3395 45.7947 14.9902 55.3757 14.9902 65.6997V109.753C14.9902 120.072 20.3395 129.653 29.13 135.061L76.6786 164.321C86.2299 170.2 98.2775 170.2 107.829 164.321Z" stroke="#2755F6" stroke-width="8" stroke-linecap="round" stroke-linejoin="round"/>
<path d="M92.252 156.075V102.583" stroke="#2755F6" stroke-width="8" stroke-linecap="round" stroke-linejoin="round"/>
<path d="M80.365 84.7524L32.8164 55.0345" stroke="#2755F6" stroke-width="8" stroke-linecap="round" stroke-linejoin="round"/>
<path d="M104.141 84.7524L151.689 55.0345" stroke="#2755F6" stroke-width="8" stroke-linecap="round" stroke-linejoin="round"/>
<circle cx="165.065" cy="11.9342" r="6.93417" fill="#FF3CA5"/>
<circle cx="18.953" cy="26.0161" r="4.95298" fill="#2755F6"/>
</svg>
