<svg width="24" height="24" viewBox="0 0 24 24" fill="none" xmlns="http://www.w3.org/2000/svg">
<path fill-rule="evenodd" clip-rule="evenodd" d="M2 12C2 6.49774 6.49774 2 12 2C17.5023 2 22 6.49774 22 12C22 17.5023 17.5023 22 12 22C6.49774 22 2 17.5023 2 12ZM12 3.98198C7.59235 3.98198 3.98198 7.59235 3.98198 12C3.98198 16.4076 7.59235 20.018 12 20.018C16.4076 20.018 20.018 16.4076 20.018 12C20.018 7.59235 16.4076 3.98198 12 3.98198ZM12 7.40541C12.5473 7.40541 12.991 7.84909 12.991 8.3964V12.9009C12.991 13.4482 12.5473 13.8919 12 13.8919C11.4527 13.8919 11.009 13.4482 11.009 12.9009V8.3964C11.009 7.84909 11.4527 7.40541 12 7.40541ZM11.9952 14.6126C11.4479 14.6126 11.0042 15.0563 11.0042 15.6036C11.0042 16.1509 11.4479 16.5946 11.9952 16.5946H12.0033C12.5506 16.5946 12.9942 16.1509 12.9942 15.6036C12.9942 15.0563 12.5506 14.6126 12.0033 14.6126H11.9952Z" fill="white"/>
</svg>
