<svg width="14" height="14" viewBox="0 0 14 14" fill="none" xmlns="http://www.w3.org/2000/svg">
<path fill-rule="evenodd" clip-rule="evenodd" d="M0.333252 7.00001C0.333252 3.33183 3.33174 0.333344 6.99992 0.333344C10.6681 0.333344 13.6666 3.33183 13.6666 7.00001C13.6666 10.6682 10.6681 13.6667 6.99992 13.6667C3.33174 13.6667 0.333252 10.6682 0.333252 7.00001ZM6.99992 1.65466C4.06149 1.65466 1.65457 4.06158 1.65457 7.00001C1.65457 9.93844 4.06149 12.3454 6.99992 12.3454C9.93835 12.3454 12.3453 9.93844 12.3453 7.00001C12.3453 4.06158 9.93835 1.65466 6.99992 1.65466ZM6.99992 3.93695C7.36479 3.93695 7.66058 4.23273 7.66058 4.59761V7.60061C7.66058 7.96548 7.36479 8.26127 6.99992 8.26127C6.63505 8.26127 6.33926 7.96548 6.33926 7.60061V4.59761C6.33926 4.23273 6.63505 3.93695 6.99992 3.93695ZM6.99669 8.74175C6.63182 8.74175 6.33603 9.03754 6.33603 9.40241C6.33603 9.76729 6.63182 10.0631 6.99669 10.0631H7.00209C7.36696 10.0631 7.66275 9.76729 7.66275 9.40241C7.66275 9.03754 7.36696 8.74175 7.00209 8.74175H6.99669Z" fill="#9DA9C2"/>
</svg>
