<svg width="24" height="24" viewBox="0 0 24 24" fill="none" xmlns="http://www.w3.org/2000/svg">
<path fill-rule="evenodd" clip-rule="evenodd" d="M8.27803 12C8.27803 14.0546 9.94537 15.722 12 15.722C14.0546 15.722 15.722 14.0546 15.722 12C15.722 9.94537 14.0546 8.27803 12 8.27803C9.94537 8.27803 8.27803 9.94537 8.27803 12ZM13.6592 12C13.6592 12.914 12.914 13.6592 12 13.6592C11.086 13.6592 10.3408 12.914 10.3408 12C10.3408 11.086 11.086 10.3408 12 10.3408C12.914 10.3408 13.6592 11.086 13.6592 12Z" fill="white"/>
<path fill-rule="evenodd" clip-rule="evenodd" d="M10.9686 3.03139V4.31041C7.51311 4.77124 4.77124 7.51311 4.31041 10.9686H3.03139C2.46555 10.9686 2 11.4342 2 12C2 12.5658 2.46555 13.0314 3.03139 13.0314H4.31041C4.77124 16.4869 7.51311 19.2288 10.9686 19.6896V20.9686C10.9686 21.5345 11.4342 22 12 22C12.5658 22 13.0314 21.5345 13.0314 20.9686V19.6896C16.4869 19.2288 19.2288 16.4869 19.6896 13.0314H20.9686C21.5345 13.0314 22 12.5658 22 12C22 11.4342 21.5345 10.9686 20.9686 10.9686H19.6896C19.2288 7.51311 16.4869 4.77124 13.0314 4.31041V3.03139C13.0314 2.46555 12.5658 2 12 2C11.4342 2 10.9686 2.46555 10.9686 3.03139ZM12.6726 19.3688C12.6725 19.3688 12.6726 19.3688 12.6726 19.3688V19.3688ZM3.0313 11.3274H4.6311C4.6311 11.3274 4.6311 11.3274 4.6311 11.3274H3.0313ZM6.30493 12C6.30493 8.86181 8.86181 6.30493 12 6.30493C15.1382 6.30493 17.6951 8.86181 17.6951 12C17.6951 15.1382 15.1382 17.6951 12 17.6951C8.86181 17.6951 6.30493 15.1382 6.30493 12Z" fill="white"/>
</svg>
