<svg width="20px" height="20px" viewBox="0 0 24 24" version="1.1" xmlns="http://www.w3.org/2000/svg" xmlns:xlink="http://www.w3.org/1999/xlink">
    <g id="页面-1" stroke="none" stroke-width="1" fill="none" fill-rule="evenodd">
        <g id="Design" transform="translate(-720.000000, -192.000000)">
            <g id="layout_5_line" transform="translate(720.000000, 192.000000)">
                <path d="M5,3 C3.89543,3 3,3.89543 3,5 L3,19 C3,20.1046 3.89543,21 5,21 L19,21 C20.1046,21 21,20.1046 21,19 L21,5 C21,3.89543 20.1046,3 19,3 L5,3 Z M5,5 L19,5 L19,8 L5,8 L5,5 Z M5,10 L5,19 L19,19 L19,10 L5,10 Z M7,13 C7,12.4477 7.44772,12 8,12 L16,12 C16.5523,12 17,12.4477 17,13 C17,13.5523 16.5523,14 16,14 L8,14 C7.44772,14 7,13.5523 7,13 Z M8,15 C7.44772,15 7,15.4477 7,16 C7,16.5523 7.44772,17 8,17 L16,17 C16.5523,17 17,16.5523 17,16 C17,15.4477 16.5523,15 16,15 L8,15 Z" id="形状" fill="#09244B">

</path>
            </g>
        </g>
    </g>
</svg>
