<svg width="24" height="24" viewBox="0 0 24 24" fill="none" xmlns="http://www.w3.org/2000/svg">
<path fill-rule="evenodd" clip-rule="evenodd" d="M11.7534 6.69466C9.67813 6.69466 7.98131 8.37064 7.98131 10.4577C7.98131 12.5438 9.67721 14.2297 11.7534 14.2297C13.8286 14.2297 15.5254 12.5537 15.5254 10.4667C15.5254 8.3806 13.8295 6.69466 11.7534 6.69466ZM9.8809 10.4667C9.8809 9.43234 10.7265 8.59425 11.7534 8.59425C12.7802 8.59425 13.6258 9.43234 13.6258 10.4667C13.6258 11.5018 12.7885 12.3392 11.7534 12.3392C10.7182 12.3392 9.8809 11.5018 9.8809 10.4667Z" fill="white"/>
<path fill-rule="evenodd" clip-rule="evenodd" d="M11.7535 2C8.28557 2 4.28721 4.0393 3.24832 8.61534C2.10224 13.6376 5.14546 17.8296 7.83003 20.4141C8.93094 21.4675 10.3464 22 11.7535 22C13.1606 22 14.5767 21.467 15.6776 20.4135C18.362 17.8292 21.4046 13.6469 20.2678 8.6248C19.2291 4.03956 15.23 2 11.7618 2H11.7535ZM5.10724 9.03431C5.96569 5.25365 9.20218 3.89959 11.7535 3.89959C14.305 3.89959 17.5506 5.25387 18.4179 9.03459C19.3428 13.1459 16.7625 16.7244 14.3602 19.0368C12.9004 20.4459 10.615 20.4453 9.15527 19.0362C6.74388 16.7237 4.16461 13.1452 5.10724 9.03431Z" fill="white"/>
</svg>
