<svg width="72" height="72" viewBox="0 0 72 72" fill="none" xmlns="http://www.w3.org/2000/svg">
<circle cx="40.4999" cy="33.66" r="28.62" fill="#E1E7F2"/>
<circle cx="31.1395" cy="36.5399" r="28.62" fill="#F3F5FD"/>
<path fill-rule="evenodd" clip-rule="evenodd" d="M40.4985 60.7604L55.7311 51.3866C58.5472 49.6539 60.2628 46.5846 60.2628 43.2791V29.1661C60.2628 25.8587 58.5472 22.7893 55.7311 21.0566L40.4985 11.6829C37.4386 9.79973 33.5791 9.79973 30.5192 11.6829L15.2866 21.0566C12.4705 22.7893 10.7568 25.8587 10.7568 29.1661V43.2791C10.7568 46.5846 12.4705 49.6539 15.2866 51.3866L30.5192 60.7604C33.5791 62.6435 37.4386 62.6435 40.4985 60.7604Z" stroke="#2755F6" stroke-width="2.88" stroke-linecap="round" stroke-linejoin="round"/>
<path fill-rule="evenodd" clip-rule="evenodd" d="M15.2464 24.9861C15.6679 24.3117 16.5563 24.1067 17.2307 24.5282L32.4633 34.0485C33.1377 34.47 33.3428 35.3584 32.9213 36.0329C32.4998 36.7073 31.6113 36.9123 30.9369 36.4908L15.7043 26.9704C15.0299 26.5489 14.8249 25.6605 15.2464 24.9861ZM35.5082 39.542C36.3035 39.542 36.9482 40.1867 36.9482 40.982V58.1186C36.9482 58.9139 36.3035 59.5586 35.5082 59.5586C34.7129 59.5586 34.0682 58.9139 34.0682 58.1186V40.982C34.0682 40.1867 34.7129 39.542 35.5082 39.542ZM55.3121 26.9704C55.9865 26.5489 56.1915 25.6605 55.77 24.9861C55.3485 24.3117 54.4601 24.1067 53.7857 24.5282L38.5531 34.0485C37.8787 34.47 37.6737 35.3584 38.0952 36.0329C38.5167 36.7073 39.4051 36.9123 40.0795 36.4908L55.3121 26.9704Z" fill="#2755F6"/>
<circle cx="58.8357" cy="11.9416" r="2.22142" fill="#FF4264"/>
<circle cx="16.6218" cy="11.9416" r="2.22142" fill="#4FA20D"/>
<circle cx="8.42657" cy="16.4525" r="1.58673" fill="#2755F6"/>
</svg>
