<svg width="187" height="177" viewBox="0 0 187 177" fill="none" xmlns="http://www.w3.org/2000/svg">
<path d="M67.0368 122.999C79.3149 110.72 79.3149 90.8137 67.0368 78.5357C54.7588 66.2576 34.852 66.2576 22.574 78.5357C10.2959 90.8137 10.2959 110.72 22.574 122.999C34.852 135.277 54.7588 135.277 67.0368 122.999Z" fill="#C7D3EC"/>
<path d="M186.54 66.0523C185.97 67.8223 184.33 68.9423 182.56 68.9423C182.13 68.9423 181.7 68.8723 181.27 68.7323L166.05 63.7923C163.85 63.0823 162.65 60.7223 163.36 58.5223C164.07 56.3223 166.43 55.1223 168.63 55.8323L183.85 60.7723C186.05 61.4823 187.25 63.8523 186.54 66.0423V66.0523ZM143.39 23.9223C143.68 23.9823 143.98 24.0123 144.26 24.0123C146.19 24.0123 147.93 22.6623 148.35 20.7023L151.68 5.05227C152.16 2.79227 150.72 0.572273 148.46 0.0922729C146.2 -0.387727 143.98 1.05227 143.5 3.31227L140.17 18.9623C139.69 21.2223 141.13 23.4423 143.39 23.9223ZM166.62 38.4023L180.36 30.4723C182.36 29.3123 183.05 26.7623 181.89 24.7523C180.73 22.7523 178.18 22.0623 176.17 23.2223L162.43 31.1523C160.43 32.3123 159.74 34.8623 160.9 36.8723C161.68 38.2123 163.08 38.9623 164.53 38.9623C165.24 38.9623 165.96 38.7823 166.62 38.4023ZM157.9 89.8523C159.58 92.7523 160.02 96.1423 159.15 99.3923C158.28 102.642 156.2 105.352 153.3 107.032C151.32 108.172 149.16 108.712 147.03 108.712C143.59 108.712 140.22 107.292 137.81 104.712C119.39 106.472 101.01 111.592 83.0701 119.942L105.8 142.672C107.43 144.302 107.43 146.952 105.8 148.592L91.4101 162.982C90.6301 163.762 89.5601 164.212 88.4501 164.212C87.3401 164.212 86.2801 163.772 85.4901 162.982L56.9801 134.472C53.1901 136.352 49.1301 137.262 45.1201 137.262C35.8601 137.262 26.8401 132.462 21.8801 123.872L14.5701 111.212C7.19012 98.4223 11.5801 82.0123 24.3701 74.6223L43.8401 63.3823C62.1301 51.3623 77.3501 36.9023 89.1101 20.3923C87.4301 14.9123 89.6801 8.80227 94.8401 5.81227C100.85 2.34227 108.55 4.41227 112.02 10.4123L125.4 33.5823L126.5 32.9523C130.91 30.4123 136.05 29.7323 140.99 31.0623C145.93 32.3823 150.05 35.5423 152.6 39.9523C155.14 44.3623 155.82 49.5023 154.49 54.4523C153.17 59.3923 150.01 63.5123 145.6 66.0623L144.5 66.6923L157.88 89.8623L157.9 89.8523ZM129.6 40.8323L140.34 59.4323L141.44 58.8023C143.91 57.3723 145.68 55.0623 146.43 52.2723C147.18 49.4823 146.8 46.6023 145.37 44.1223C143.94 41.6523 141.63 39.8823 138.84 39.1323C136.06 38.3823 133.17 38.7623 130.69 40.1923L129.59 40.8223L129.6 40.8323ZM51.6301 68.2223L77.6301 113.252C95.7001 104.602 114.25 99.0823 132.89 96.8223L93.4901 28.5823C82.2101 43.5923 68.1601 56.8923 51.6301 68.2223ZM54.2901 126.412L70.2401 117.202L44.5201 72.6423L28.5701 81.8523C19.7801 86.9323 16.7501 98.2123 21.8301 107.002L29.1401 119.662C34.2201 128.452 45.5001 131.482 54.2901 126.402V126.412ZM96.9301 145.622L75.2701 123.962L64.5301 130.162L88.4601 154.092L96.9301 145.622ZM150.66 94.0323L104.79 14.5923C103.63 12.5823 101.05 11.8923 99.0401 13.0523C97.0301 14.2123 96.3401 16.7923 97.5001 18.8023L143.37 98.2423C144.53 100.252 147.11 100.942 149.12 99.7823C150.09 99.2223 150.78 98.3123 151.07 97.2223C151.36 96.1323 151.22 94.9923 150.66 94.0323Z" fill="#1A2C51"/>
<path d="M178.392 140.057L13.4555 44.8307C11.1775 43.5155 10.3933 40.5887 11.7085 38.3107C13.0237 36.0327 15.9505 35.2485 18.2285 36.5637L183.165 131.79C185.443 133.105 186.227 136.032 184.912 138.31C183.597 140.588 180.67 141.372 178.392 140.057Z" fill="#1A2C51"/>
</svg>
