<svg width="80" height="60" viewBox="0 0 166 145" fill="none" xmlns="http://www.w3.org/2000/svg">
<path d="M162.5 81.1599C162.5 101.42 162.6 106.56 162.6 121.69C151.58 121.69 137.78 121.69 121.97 121.69C121.97 99.3099 140.12 81.1599 162.5 81.1599Z" fill="#C7D3EC"/>
<path d="M3.36001 62.02C3.36001 41.99 3.26001 36.91 3.26001 21.96C14.15 21.96 27.79 21.96 43.42 21.96C43.42 44.08 25.49 62.01 3.37001 62.01L3.36001 62.02Z" fill="#C7D3EC"/>
<path fill-rule="evenodd" clip-rule="evenodd" d="M82.56 75.26C74.74 74.02 68.96 68.04 68.96 61.14C68.96 54.24 74.73 48.26 82.56 47.02V43.76C82.56 42.09 83.91 40.74 85.58 40.74C87.25 40.74 88.6 42.09 88.6 43.76V47.02C96.42 48.26 102.2 54.24 102.2 61.14C102.2 62.81 100.85 64.16 99.18 64.16C97.51 64.16 96.16 62.81 96.16 61.14C96.16 57.26 92.91 54.17 88.61 53.17V69.68C96.43 70.92 102.21 76.9 102.21 83.8C102.21 90.7 96.44 96.68 88.61 97.92V101.18C88.61 102.85 87.26 104.2 85.59 104.2C83.92 104.2 82.57 102.85 82.57 101.18V97.92C74.75 96.68 68.97 90.7 68.97 83.8C68.97 82.13 70.32 80.78 71.99 80.78C73.66 80.78 75.01 82.13 75.01 83.8C75.01 87.68 78.26 90.77 82.56 91.77V75.26ZM82.56 53.17C78.26 54.17 75.01 57.25 75.01 61.14C75.01 65.03 78.26 68.11 82.56 69.11V53.18V53.17ZM88.6 91.77C92.9 90.77 96.15 87.69 96.15 83.8C96.15 79.91 92.9 76.83 88.6 75.83V91.76V91.77Z" fill="#1A2C51"/>
<path d="M0 30.07V114.16C0 120.28 4.98 125.27 11.11 125.27H154.69C160.81 125.27 165.8 120.29 165.8 114.16V30.07C165.8 23.95 160.82 18.96 154.69 18.96H11.11C4.99 18.96 0 23.94 0 30.07ZM154.68 26.36C156.72 26.36 158.38 28.02 158.38 30.06V114.15C158.38 116.19 156.72 117.85 154.68 117.85H11.11C9.07 117.85 7.41 116.19 7.41 114.15V30.07C7.41 28.03 9.07 26.37 11.11 26.37H154.69L154.68 26.36Z" fill="#1A2C51"/>
<path d="M151.71 8.14988L17.04 142.82C15.18 144.68 12.15 144.68 10.29 142.82C8.43002 140.96 8.43002 137.93 10.29 136.07L144.96 1.39988C146.82 -0.460117 149.85 -0.460117 151.71 1.39988C153.57 3.25988 153.57 6.28988 151.71 8.14988Z" fill="#1A2C51"/>
</svg>
