<svg width="20" height="19" viewBox="0 0 20 19" fill="none" xmlns="http://www.w3.org/2000/svg">
<path d="M9.38195 0.927052C9.6813 0.00574112 10.9847 0.00573993 11.2841 0.927051L12.8027 5.60081C12.9365 6.01284 13.3205 6.2918 13.7537 6.2918H18.668C19.6367 6.2918 20.0395 7.53141 19.2558 8.10081L15.28 10.9894C14.9296 11.244 14.7829 11.6954 14.9168 12.1074L16.4354 16.7812C16.7347 17.7025 15.6802 18.4686 14.8965 17.8992L10.9208 15.0106C10.5703 14.756 10.0957 14.756 9.74522 15.0106L5.76948 17.8992C4.98577 18.4686 3.93129 17.7025 4.23064 16.7812L5.74924 12.1074C5.88311 11.6954 5.73645 11.244 5.38597 10.9894L1.41023 8.10081C0.626515 7.53141 1.02929 6.2918 1.99801 6.2918H6.9123C7.34552 6.2918 7.72948 6.01284 7.86335 5.60081L9.38195 0.927052Z" fill="#FF4264"/>
</svg>
