<?xml version="1.0" standalone="no"?>
<svg version="1.0" xmlns="http://www.w3.org/2000/svg"
 width="80px" height="80px" viewBox="0 0 128.000000 128.000000"
 preserveAspectRatio="xMidYMid meet">

<g transform="translate(0.000000,128.000000) scale(0.100000,-0.100000)"
 stroke="none">
<path d="M240 1098 c-102 -53 -139 -163 -86 -260 l25 -48 -43 -29 c-56 -39
-110 -121 -126 -191 -6 -30 -10 -91 -8 -135 l3 -80 113 -3 112 -3 0 -79 c0
-43 3 -85 6 -94 5 -14 50 -16 404 -16 354 0 399 2 404 16 3 9 6 51 6 94 l0 79
113 3 112 3 3 95 c4 146 -38 245 -133 310 l-44 30 25 48 c75 139 -46 307 -200
278 -44 -8 -85 -40 -71 -55 7 -7 24 -6 54 5 54 18 102 10 143 -24 59 -50 73
-121 35 -186 -28 -49 -77 -76 -139 -76 -48 0 -71 -15 -47 -31 20 -13 104 -11
133 3 22 10 32 7 73 -18 89 -55 138 -163 131 -286 l-3 -53 -94 0 -95 0 -12 47
c-27 105 -88 193 -174 249 l-49 31 27 40 c31 47 42 144 22 203 -27 83 -129
155 -220 155 -91 0 -193 -72 -220 -155 -20 -59 -9 -156 22 -203 l27 -40 -55
-36 c-68 -46 -135 -135 -158 -212 -10 -33 -19 -65 -22 -72 -3 -9 -27 -12 -96
-10 l-93 3 1 86 c2 101 22 157 78 212 52 53 93 72 123 58 29 -13 112 -14 132
-2 24 16 1 31 -47 31 -62 0 -111 27 -139 76 -38 65 -24 136 35 186 41 34 89
42 143 24 70 -24 81 12 13 40 -48 20 -93 17 -144 -8z m490 -43 c57 -30 100
-104 100 -172 -1 -118 -120 -212 -232 -182 -120 31 -179 154 -129 264 21 47
70 92 109 101 15 3 32 7 37 9 17 6 88 -7 115 -20z m-155 -392 c47 -17 119 -12
165 12 29 15 33 15 81 -12 62 -33 113 -90 148 -163 22 -48 26 -71 29 -177 l4
-123 -362 0 -362 0 4 123 c3 106 7 129 30 179 42 91 165 198 208 181 8 -3 33
-12 55 -20z"/>
</g>
</svg>
