<svg width="24" height="24" viewBox="0 0 24 24" fill="none"
    xmlns="http://www.w3.org/2000/svg">
    <path fill-rule="evenodd" clip-rule="evenodd" d="M12 4C11.3812 4 10.8293 4.45952 10.8293 5.06233V10.8293H5.06233C4.45952 10.8293 4 11.3812 4 12C4 12.6189 4.45952 13.1707 5.06233 13.1707H10.8293V18.9377C10.8293 19.5405 11.3812 20 12 20C12.6189 20 13.1707 19.5405 13.1707 18.9377V13.1707H18.9377C19.5405 13.1707 20 12.6189 20 12C20 11.3812 19.5405 10.8293 18.9377 10.8293H13.1707V5.06233C13.1707 4.45952 12.6189 4 12 4Z" fill="white"/>
</svg>
