<svg width="40" height="42" viewBox="0 0 40 42" fill="none" xmlns="http://www.w3.org/2000/svg">
<g filter="url(#filter0_f_928_14473)">
<ellipse cx="19.8007" cy="38.3993" rx="6.67813" ry="1.21421" fill="black" fill-opacity="0.15"/>
</g>
<path d="M20.8581 37.0851C20.5225 37.4851 20.2071 37.881 19.9523 38.2082C19.6975 37.881 19.3821 37.4851 19.0466 37.0851C18.6405 36.601 18.1932 36.097 17.7817 35.7001C17.5767 35.5024 17.3666 35.3175 17.1643 35.1724C16.9853 35.0441 16.7211 34.8785 16.4214 34.8339C8.06134 33.5899 2.49814 26.7058 2.49814 18.0175C2.49814 8.49352 10.3049 0.758878 19.9523 0.758878C29.5998 0.758878 37.4065 8.49352 37.4065 18.0175C37.4065 26.7058 31.8433 33.5899 23.4832 34.8339C23.1836 34.8785 22.9194 35.0441 22.7404 35.1724C22.5381 35.3175 22.3279 35.5024 22.123 35.7001C21.7115 36.097 21.2642 36.601 20.8581 37.0851Z" stroke="#25B400" stroke-width="1.51776"/>
<path d="M20.0331 35.1022C20.0059 35.1348 19.979 35.1673 19.9522 35.1997C19.9253 35.1673 19.8984 35.1348 19.8712 35.1022C19.4907 34.6459 19.0555 34.151 18.6422 33.7499C18.4373 33.551 18.2068 33.3447 17.9678 33.1723C17.7805 33.0372 17.3788 32.7641 16.8603 32.6865C9.72024 31.6174 4.92637 25.7175 4.92637 18.1354C4.92637 9.88707 11.6463 3.18723 19.9522 3.18723C28.258 3.18723 34.9779 9.88707 34.9779 18.1354C34.9779 25.7175 30.1841 31.6174 23.044 32.6865C22.5255 32.7641 22.1238 33.0372 21.9365 33.1723C21.6975 33.3447 21.467 33.551 21.2621 33.7499C20.8488 34.151 20.4136 34.6459 20.0331 35.1022Z" fill="#D5F4CD" stroke="white" stroke-width="3.33906"/>
<mask id="path-4-inside-1_928_14473" fill="white">
<path d="M15.3989 13.5657C15.3989 12.3602 16.3761 11.3831 17.5815 11.3831H21.583C22.7884 11.3831 23.7655 12.3602 23.7655 13.5657V21.9323C23.7655 22.3341 23.4398 22.6598 23.038 22.6598H16.1265C15.7247 22.6598 15.3989 22.3341 15.3989 21.9323V13.5657Z"/>
</mask>
<path d="M15.3989 13.5657C15.3989 12.3602 16.3761 11.3831 17.5815 11.3831H21.583C22.7884 11.3831 23.7655 12.3602 23.7655 13.5657V21.9323C23.7655 22.3341 23.4398 22.6598 23.038 22.6598H16.1265C15.7247 22.6598 15.3989 22.3341 15.3989 21.9323V13.5657Z" fill="white" stroke="#2BC605" stroke-width="2.1826" mask="url(#path-4-inside-1_928_14473)"/>
<rect x="16.1265" y="16.8395" width="6.91156" height="4.72896" fill="#2BC605"/>
<defs>
<filter id="filter0_f_928_14473" x="11.6048" y="35.6673" width="16.392" height="5.46398" filterUnits="userSpaceOnUse" color-interpolation-filters="sRGB">
<feFlood flood-opacity="0" result="BackgroundImageFix"/>
<feBlend mode="normal" in="SourceGraphic" in2="BackgroundImageFix" result="shape"/>
<feGaussianBlur stdDeviation="0.758878" result="effect1_foregroundBlur_928_14473"/>
</filter>
</defs>
</svg>
