<svg width="24" height="24" viewBox="0 0 24 24" fill="none" xmlns="http://www.w3.org/2000/svg">
<path d="M9.25898 7.45455C8.25482 7.45455 7.44078 8.26858 7.44078 9.27274C7.44078 10.2769 8.25485 11.0909 9.25898 11.0909C10.2631 11.0909 11.0771 10.2769 11.0771 9.27274C11.0771 8.26861 10.2632 7.45455 9.25898 7.45455Z" fill="white"/>
<path d="M15.4701 9.67008C15.8252 9.31506 15.8252 8.73945 15.4701 8.38443C15.1151 8.02941 14.5395 8.02941 14.1845 8.38443L8.23906 14.3299C7.88403 14.6849 7.88403 15.2605 8.23906 15.6155C8.59408 15.9705 9.16968 15.9705 9.5247 15.6155L15.4701 9.67008Z" fill="white"/>
<path d="M13.1728 14.3909C13.1728 13.3867 13.9868 12.5727 14.9909 12.5727C15.9951 12.5727 16.8091 13.3867 16.8091 14.3909C16.8091 15.3951 15.9951 16.2091 14.9909 16.2091C13.9867 16.2091 13.1728 15.395 13.1728 14.3909Z" fill="white"/>
<path fill-rule="evenodd" clip-rule="evenodd" d="M12 2C6.47715 2 2 6.47715 2 12C2 17.5228 6.47715 22 12 22C17.5228 22 22 17.5228 22 12C22 6.47715 17.5228 2 12 2ZM3.81818 12C3.81818 7.48131 7.48131 3.81818 12 3.81818C16.5187 3.81818 20.1818 7.48131 20.1818 12C20.1818 16.5187 16.5187 20.1818 12 20.1818C7.48131 20.1818 3.81818 16.5187 3.81818 12Z" fill="white"/>
</svg>
