<svg width="20" height="20" viewBox="0 0 20 20" fill="none" xmlns="http://www.w3.org/2000/svg">
<path d="M3.41816 2.67088C4.19519 1.84031 5.39979 1.66666 6.83312 1.66666H12.5604C13.9937 1.66666 15.1983 1.84031 15.9754 2.67088C16.7356 3.48348 16.8937 4.72746 16.8937 6.24242V9.46968C16.8937 9.88808 16.5545 10.2273 16.1362 10.2273C15.7178 10.2273 15.3786 9.88808 15.3786 9.46968V6.24242C15.3786 4.70435 15.1807 4.03923 14.8689 3.706C14.574 3.39074 13.9907 3.18181 12.5604 3.18181H6.83312C5.40282 3.18181 4.81954 3.39074 4.5246 3.706C4.21285 4.03923 4.01494 4.70435 4.01494 6.24242V14.7727C4.01494 15.2155 4.07683 15.5179 4.15262 15.7037C4.18949 15.7941 4.22502 15.8456 4.24831 15.8723C4.25967 15.8853 4.26793 15.8922 4.27224 15.8954C4.27445 15.897 4.27668 15.8984 4.27668 15.8984L4.27749 15.8988L4.27956 15.8993C4.28184 15.8997 4.28852 15.9006 4.3008 15.8999C4.32595 15.8986 4.37682 15.8905 4.45601 15.8563C4.62041 15.7853 4.85812 15.6227 5.15003 15.3094C5.15586 15.3031 5.1618 15.2969 5.16784 15.2909L5.16858 15.2901C6.1103 14.3004 7.60491 14.3816 8.42456 15.478L9.18972 16.5007C9.44036 16.8357 9.37196 17.3105 9.03695 17.5611C8.70193 17.8118 8.22716 17.7434 7.97652 17.4084L7.21136 16.3856C6.95752 16.046 6.56429 16.0183 6.2632 16.3378C6.25873 16.3425 6.25421 16.3472 6.24963 16.3518C5.8737 16.7535 5.47338 17.0674 5.05659 17.2474C4.62905 17.4319 4.14163 17.49 3.67833 17.2905C3.22057 17.0933 2.92416 16.7038 2.74965 16.2759C2.57616 15.8505 2.49979 15.3375 2.49979 14.7727V6.24242C2.49979 4.72746 2.65794 3.48348 3.41816 2.67088Z" fill="#59698B"/>
<path fill-rule="evenodd" clip-rule="evenodd" d="M11.2119 14.697C11.2119 12.9397 12.6365 11.5151 14.3937 11.5151C16.151 11.5151 17.5755 12.9397 17.5755 14.697C17.5755 15.301 17.4072 15.8657 17.1149 16.3468L17.8082 17.0401C18.1041 17.3359 18.1041 17.8156 17.8082 18.1114C17.5123 18.4073 17.0327 18.4073 16.7368 18.1114L16.0436 17.4182C15.5625 17.7105 14.9978 17.8788 14.3937 17.8788C12.6365 17.8788 11.2119 16.4542 11.2119 14.697ZM14.3937 13.0303C13.4733 13.0303 12.7271 13.7765 12.7271 14.697C12.7271 15.6174 13.4733 16.3636 14.3937 16.3636C15.3142 16.3636 16.0604 15.6174 16.0604 14.697C16.0604 13.7765 15.3142 13.0303 14.3937 13.0303Z" fill="#59698B"/>
<path d="M5.90888 6.21211C5.90888 5.79371 6.24806 5.45454 6.66645 5.45454H12.7271C13.1455 5.45454 13.4846 5.79371 13.4846 6.21211C13.4846 6.63051 13.1455 6.96969 12.7271 6.96969H6.66645C6.24806 6.96969 5.90888 6.63051 5.90888 6.21211Z" fill="#59698B"/>
<path d="M7.42403 8.48484C7.00563 8.48484 6.66645 8.82402 6.66645 9.24241C6.66645 9.66081 7.00563 9.99999 7.42403 9.99999H11.9695C12.3879 9.99999 12.7271 9.66081 12.7271 9.24241C12.7271 8.82402 12.3879 8.48484 11.9695 8.48484H7.42403Z" fill="#59698B"/>
</svg>
