<svg width="24" height="24" viewBox="0 0 24 24" fill="none" xmlns="http://www.w3.org/2000/svg">
<path d="M4.10204 3.20507C5.03448 2.20838 6.48 2 8.2 2H15.0727C16.7927 2 18.2382 2.20838 19.1707 3.20507C20.0829 4.18019 20.2727 5.67297 20.2727 7.49092V11.3636C20.2727 11.8657 19.8657 12.2727 19.3636 12.2727C18.8616 12.2727 18.4545 11.8657 18.4545 11.3636V7.49092C18.4545 5.64523 18.2171 4.84709 17.843 4.44721C17.489 4.06889 16.7891 3.81818 15.0727 3.81818H8.2C6.48364 3.81818 5.7837 4.06889 5.42978 4.44721C5.05567 4.84709 4.81818 5.64523 4.81818 7.49092V17.7273C4.81818 18.2586 4.89245 18.6215 4.9834 18.8445C5.02764 18.953 5.07028 19.0148 5.09823 19.0467C5.11186 19.0623 5.12177 19.0706 5.12695 19.0745C5.12959 19.0764 5.13228 19.0781 5.13228 19.0781L5.13324 19.0786L5.13573 19.0792C5.13846 19.0796 5.14648 19.0807 5.16122 19.0799C5.19139 19.0783 5.25244 19.0686 5.34747 19.0276C5.54475 18.9424 5.83 18.7473 6.18029 18.3712C6.18729 18.3637 6.19441 18.3563 6.20166 18.3491L6.20255 18.3482C7.33261 17.1605 9.12614 17.2579 10.1097 18.5736L11.0279 19.8009C11.3287 20.2029 11.2466 20.7726 10.8446 21.0734C10.4426 21.3741 9.87285 21.2921 9.57208 20.89L8.65389 19.6628C8.34929 19.2552 7.87741 19.222 7.51609 19.6053C7.51074 19.611 7.50531 19.6166 7.49981 19.6222C7.04869 20.1042 6.56831 20.4809 6.06817 20.6968C5.55511 20.9184 4.97021 20.988 4.41425 20.7486C3.86494 20.512 3.50925 20.0446 3.29984 19.5311C3.09164 19.0206 3 18.4051 3 17.7273V7.49092C3 5.67297 3.18978 4.18019 4.10204 3.20507Z" fill="white"/>
<path fill-rule="evenodd" clip-rule="evenodd" d="M13.4545 17.6364C13.4545 15.5277 15.164 13.8182 17.2727 13.8182C19.3815 13.8182 21.0909 15.5277 21.0909 17.6364C21.0909 18.3612 20.8889 19.0389 20.5382 19.6162L21.3701 20.4481C21.7251 20.8031 21.7251 21.3787 21.3701 21.7337C21.0151 22.0888 20.4395 22.0888 20.0844 21.7337L19.2525 20.9018C18.6753 21.2526 17.9976 21.4545 17.2727 21.4545C15.164 21.4545 13.4545 19.7451 13.4545 17.6364ZM17.2727 15.6364C16.1682 15.6364 15.2727 16.5318 15.2727 17.6364C15.2727 18.7409 16.1682 19.6364 17.2727 19.6364C18.3773 19.6364 19.2727 18.7409 19.2727 17.6364C19.2727 16.5318 18.3773 15.6364 17.2727 15.6364Z" fill="white"/>
<path d="M7.09091 7.45455C7.09091 6.95247 7.49792 6.54545 8 6.54545H15.2727C15.7748 6.54545 16.1818 6.95247 16.1818 7.45455C16.1818 7.95662 15.7748 8.36364 15.2727 8.36364H8C7.49792 8.36364 7.09091 7.95662 7.09091 7.45455Z" fill="white"/>
<path d="M8.90909 10.1818C8.40701 10.1818 8 10.5888 8 11.0909C8 11.593 8.40701 12 8.90909 12H14.3636C14.8657 12 15.2727 11.593 15.2727 11.0909C15.2727 10.5888 14.8657 10.1818 14.3636 10.1818H8.90909Z" fill="white"/>
</svg>
