<svg width="18" height="18" viewBox="0 0 18 18" fill="none" xmlns="http://www.w3.org/2000/svg">
<path d="M8.73309 4.74816C8.22484 4.74816 7.80717 5.16583 7.80717 5.67409V8.71112C7.80717 9.50044 8.2978 10.3696 8.98033 10.7773L11.2698 12.1436C11.4277 12.2461 11.5954 12.2815 11.7479 12.2815C12.0614 12.2815 12.365 12.1189 12.5435 11.8333L12.5465 11.8286L12.5493 11.8237C12.8027 11.3893 12.6754 10.8192 12.2252 10.5552L9.93031 9.18565L9.92647 9.18342C9.88978 9.16212 9.81726 9.09187 9.7504 8.97432C9.68381 8.85723 9.65902 8.75678 9.65902 8.71112V5.67409C9.65902 5.16583 9.24134 4.74816 8.73309 4.74816Z" fill="#59698B"/>
<path fill-rule="evenodd" clip-rule="evenodd" d="M8.99984 0.666672C4.40269 0.666672 0.666504 4.40286 0.666504 9.00001C0.666504 13.5971 4.40269 17.3333 8.99984 17.3333C13.597 17.3333 17.3332 13.5971 17.3332 9.00001C17.3332 4.40286 13.597 0.666672 8.99984 0.666672ZM2.51836 9.00001C2.51836 5.42678 5.42661 2.51852 8.99984 2.51852C12.5731 2.51852 15.4813 5.42678 15.4813 9.00001C15.4813 12.5732 12.5731 15.4815 8.99984 15.4815C5.42661 15.4815 2.51836 12.5732 2.51836 9.00001Z" fill="#59698B"/>
</svg>
