<svg width="61" height="60" viewBox="0 0 61 60" fill="none" xmlns="http://www.w3.org/2000/svg">
<circle cx="30.5972" cy="30" r="29" stroke="#1A2C51" stroke-width="2"/>
<path d="M32.8317 39.181H28.7994C28.6692 39.181 28.5434 39.226 28.4426 39.3084L23.1478 43.6508V39.7435C23.1478 39.4326 22.8959 39.181 22.5853 39.181H19.7C17.7977 39.181 16.25 37.6506 16.25 35.7692V20.1823C16.25 18.3009 17.7977 16.7705 19.7 16.7705H41.9374C43.8397 16.7705 45.3874 18.3009 45.3874 20.1823V33.729C45.3874 34.0399 45.6393 34.2915 45.9499 34.2915C46.2605 34.2915 46.5124 34.0399 46.5124 33.729V20.1823C46.5124 17.6807 44.4601 15.6455 41.9374 15.6455H19.7C17.1772 15.6455 15.125 17.6807 15.125 20.1823V35.7692C15.125 38.2708 17.1772 40.306 19.7 40.306H22.0228V44.8395C22.0228 45.057 22.148 45.2548 22.3447 45.3481C22.4213 45.3844 22.5034 45.402 22.5853 45.402C22.713 45.402 22.8393 45.3586 22.942 45.2745L29.0005 40.306H32.8317C33.1423 40.306 33.3942 40.0544 33.3942 39.7435C33.3942 39.4326 33.1423 39.181 32.8317 39.181Z" fill="#1A2C51"/>
<path d="M40.2118 22.0165H21.4254C21.1148 22.0165 20.8629 22.2681 20.8629 22.579C20.8629 22.8899 21.1148 23.1415 21.4254 23.1415H40.2118C40.5224 23.1415 40.7743 22.8899 40.7743 22.579C40.7743 22.2681 40.5224 22.0165 40.2118 22.0165Z" fill="#1A2C51"/>
<path d="M40.7743 27.7667C40.7743 27.4558 40.5224 27.2042 40.2118 27.2042H21.4254C21.1148 27.2042 20.8629 27.4558 20.8629 27.7667C20.8629 28.0776 21.1148 28.3292 21.4254 28.3292H40.2118C40.5224 28.3292 40.7743 28.0776 40.7743 27.7667Z" fill="#1A2C51"/>
<path d="M21.4254 32.3914C21.1148 32.3914 20.8629 32.643 20.8629 32.9539C20.8629 33.2648 21.1148 33.5164 21.4254 33.5164H33.1184C33.4291 33.5164 33.6809 33.2648 33.6809 32.9539C33.6809 32.643 33.4291 32.3914 33.1184 32.3914H21.4254Z" fill="#1A2C51"/>
<path d="M47.5852 35.4615L43.8677 34.9265C43.7441 34.9089 43.6373 34.8326 43.5823 34.7222L41.9201 31.3862C41.6644 30.8737 41.148 30.5551 40.5721 30.5551C39.9961 30.5551 39.4798 30.8737 39.2241 31.3862L37.5618 34.7222C37.5069 34.8326 37.4 34.9089 37.2759 34.9265L33.5587 35.4621C32.9855 35.5445 32.5191 35.9367 32.3422 36.4849C32.1662 37.0293 32.3134 37.6154 32.7265 38.0148L35.4156 40.6108C35.5035 40.696 35.5439 40.8179 35.5233 40.9366L34.8883 44.6033C34.7911 45.1652 35.0177 45.7239 35.4796 46.0617C35.745 46.2556 36.0561 46.3539 36.3693 46.3539C36.6077 46.3539 36.8474 46.2968 37.0691 46.1815L40.3941 44.4506C40.5059 44.3918 40.6388 44.3929 40.7506 44.4506L44.0751 46.1815C44.5881 46.4479 45.197 46.4028 45.6645 46.0617C46.1265 45.7239 46.3531 45.1652 46.2559 44.6033L45.6208 40.9366C45.6002 40.8179 45.6406 40.696 45.728 40.6114L48.418 38.0142C48.8308 37.6154 48.978 37.0293 48.8019 36.4849C48.6251 35.9367 48.1587 35.5445 47.5852 35.4615ZM47.6366 37.2051L44.9463 39.8022C44.5903 40.1467 44.428 40.6427 44.5123 41.1288L45.1473 44.7955C45.1822 44.9966 45.0564 45.1125 45.0007 45.1531C44.9424 45.196 44.7862 45.2833 44.5947 45.1839L41.2708 43.453C40.833 43.2245 40.3106 43.2239 39.8739 43.453L36.5494 45.1839C36.3577 45.2833 36.2009 45.196 36.1435 45.1531C36.0877 45.1125 35.9619 44.9966 35.9968 44.7955L36.6318 41.1288C36.7161 40.6427 36.5538 40.1467 36.1973 39.8017L33.5079 37.2056C33.359 37.0617 33.3917 36.8953 33.4126 36.8304C33.4343 36.764 33.507 36.6058 33.7194 36.5756L37.4358 36.0405C37.9252 35.9702 38.3487 35.6653 38.5687 35.2242L40.231 31.8882C40.3246 31.6998 40.5007 31.6801 40.5721 31.6801C40.6435 31.6801 40.8195 31.6998 40.9132 31.8882L42.5754 35.2242C42.7954 35.6653 43.219 35.9702 43.7078 36.0405L47.4245 36.575C47.6371 36.6058 47.7099 36.764 47.7316 36.8304C47.7525 36.8953 47.7851 37.0617 47.6366 37.2051Z" fill="#1A2C51"/>
</svg>
