<svg width="24" height="24" viewBox="0 0 24 24" fill="none" xmlns="http://www.w3.org/2000/svg">
<path d="M7.45455 8C7.45455 7.49792 7.04753 7.09091 6.54545 7.09091C6.04338 7.09091 5.63636 7.49792 5.63636 8V15.2727C5.63636 15.7748 6.04338 16.1818 6.54545 16.1818C7.04753 16.1818 7.45455 15.7748 7.45455 15.2727V8Z" fill="white"/>
<path d="M9.27273 7.09091C9.77481 7.09091 10.1818 7.49792 10.1818 8V11.6364C10.1818 12.1384 9.77481 12.5455 9.27273 12.5455C8.77065 12.5455 8.36364 12.1384 8.36364 11.6364V8C8.36364 7.49792 8.77065 7.09091 9.27273 7.09091Z" fill="white"/>
<path d="M10.1818 14.3636C10.1818 13.8616 9.77481 13.4545 9.27273 13.4545C8.77065 13.4545 8.36364 13.8616 8.36364 14.3636V15.2727C8.36364 15.7748 8.77065 16.1818 9.27273 16.1818C9.77481 16.1818 10.1818 15.7748 10.1818 15.2727V14.3636Z" fill="white"/>
<path d="M14.7273 7.09091C15.2294 7.09091 15.6364 7.49792 15.6364 8V8.90909C15.6364 9.41117 15.2294 9.81818 14.7273 9.81818C14.2252 9.81818 13.8182 9.41117 13.8182 8.90909V8C13.8182 7.49792 14.2252 7.09091 14.7273 7.09091Z" fill="white"/>
<path d="M12.9091 8C12.9091 7.49792 12.5021 7.09091 12 7.09091C11.4979 7.09091 11.0909 7.49792 11.0909 8V15.2727C11.0909 15.7748 11.4979 16.1818 12 16.1818C12.5021 16.1818 12.9091 15.7748 12.9091 15.2727V8Z" fill="white"/>
<path d="M14.7273 10.7273C15.2294 10.7273 15.6364 11.1343 15.6364 11.6364V15.2727C15.6364 15.7748 15.2294 16.1818 14.7273 16.1818C14.2252 16.1818 13.8182 15.7748 13.8182 15.2727V11.6364C13.8182 11.1343 14.2252 10.7273 14.7273 10.7273Z" fill="white"/>
<path d="M18.3636 8C18.3636 7.49792 17.9566 7.09091 17.4545 7.09091C16.9525 7.09091 16.5455 7.49792 16.5455 8V15.2727C16.5455 15.7748 16.9525 16.1818 17.4545 16.1818C17.9566 16.1818 18.3636 15.7748 18.3636 15.2727V8Z" fill="white"/>
<path fill-rule="evenodd" clip-rule="evenodd" d="M7.45455 3C5.95155 3 4.56018 3.37562 3.5405 4.32246C2.50862 5.28063 2 6.69036 2 8.45455V14.8182C2 16.5824 2.50862 17.9921 3.5405 18.9503C4.56018 19.8971 5.95155 20.2727 7.45455 20.2727H16.5455C18.0484 20.2727 19.4398 19.8971 20.4595 18.9503C21.4914 17.9921 22 16.5824 22 14.8182V8.45455C22 6.69036 21.4914 5.28063 20.4595 4.32246C19.4398 3.37562 18.0484 3 16.5455 3H7.45455ZM3.81818 8.45455C3.81818 7.03691 4.21865 6.17392 4.77768 5.65481C5.34891 5.12438 6.23027 4.81818 7.45455 4.81818H16.5455C17.7697 4.81818 18.6511 5.12438 19.2223 5.65481C19.7814 6.17392 20.1818 7.03691 20.1818 8.45455V14.8182C20.1818 16.2358 19.7814 17.0988 19.2223 17.6179C18.6511 18.1483 17.7697 18.4545 16.5455 18.4545H7.45455C6.23027 18.4545 5.34891 18.1483 4.77768 17.6179C4.21865 17.0988 3.81818 16.2358 3.81818 14.8182V8.45455Z" fill="white"/>
</svg>
