<svg width="20" height="20" viewBox="0 0 20 20" fill="none" xmlns="http://www.w3.org/2000/svg">
<path fill-rule="evenodd" clip-rule="evenodd" d="M8.49992 3.33333C5.65133 3.33333 3.33325 5.65141 3.33325 8.5C3.33325 11.3486 5.65133 13.6667 8.49992 13.6667C11.3485 13.6667 13.6666 11.3486 13.6666 8.5C13.6666 5.65141 11.3485 3.33333 8.49992 3.33333ZM5.17065 8.5C5.17065 6.66645 6.66276 5.17073 8.49992 5.17073C10.3371 5.17073 11.8292 6.66645 11.8292 8.5C11.8292 10.3335 10.3371 11.8293 8.49992 11.8293C6.66276 11.8293 5.17065 10.3335 5.17065 8.5ZM14.4094 12.8262C13.9742 12.3913 13.2617 12.3913 12.8265 12.8262C12.3911 13.2613 12.3911 13.974 12.8265 14.4091L14.2571 15.8387C14.4796 16.0611 14.7665 16.1667 15.0486 16.1667C15.3306 16.1667 15.6175 16.0611 15.84 15.8387C16.2754 15.4036 16.2754 14.6909 15.84 14.2558L14.4094 12.8262Z" fill="#1A2C51"/>
</svg>
