<svg width="24" height="24" viewBox="0 0 24 24" fill="none" xmlns="http://www.w3.org/2000/svg">
<path fill-rule="evenodd" clip-rule="evenodd" d="M12 3.81818C7.48131 3.81818 3.81818 7.48131 3.81818 12C3.81818 16.5187 7.48131 20.1818 12 20.1818C16.5187 20.1818 20.1818 16.5187 20.1818 12C20.1818 7.48131 16.5187 3.81818 12 3.81818ZM2 12C2 6.47715 6.47715 2 12 2C17.5228 2 22 6.47715 22 12C22 17.5228 17.5228 22 12 22C6.47715 22 2 17.5228 2 12ZM11.757 6.66872C12.6709 5.64052 14.3819 6.27464 14.3819 7.6636V10.4363H15.0546C16.3405 10.4363 17.0394 11.9547 16.1825 12.9279C16.1824 12.928 16.1823 12.9281 16.1822 12.9282L12.3098 17.3279L12.3068 17.3312C11.3929 18.3594 9.6819 17.7253 9.6819 16.3363V13.5636H9.00917C7.72316 13.5636 7.02427 12.0449 7.88157 11.0717L8.56372 11.6727L7.88131 11.0721L7.88157 11.0717L11.754 6.67205L11.757 6.66872ZM12.5637 8.50404L9.71077 11.7454H10.591C11.0931 11.7454 11.5001 12.1524 11.5001 12.6545V15.4959L14.353 12.2545H13.4728C12.9707 12.2545 12.5637 11.8475 12.5637 11.3454V8.50404ZM14.8179 11.7263L14.8177 11.7266L14.8179 11.7263ZM9.24613 12.2733L9.24618 12.2733L9.24613 12.2733Z" fill="white"/>
</svg>
