<svg width="20" height="20" viewBox="0 0 20 20" fill="none" xmlns="http://www.w3.org/2000/svg">
<path fill-rule="evenodd" clip-rule="evenodd" d="M9.99972 3.18182C6.23414 3.18182 3.18153 6.23442 3.18153 10C3.18153 13.7656 6.23414 16.8182 9.99972 16.8182C13.7653 16.8182 16.8179 13.7656 16.8179 10C16.8179 6.23442 13.7653 3.18182 9.99972 3.18182ZM1.66638 10C1.66638 5.39762 5.39734 1.66666 9.99972 1.66666C14.6021 1.66666 18.333 5.39762 18.333 10C18.333 14.6024 14.6021 18.3333 9.99972 18.3333C5.39734 18.3333 1.66638 14.6024 1.66638 10ZM9.7972 5.55726C10.5588 4.70043 11.9846 5.22887 11.9846 6.38633V8.69693H12.5452C13.6168 8.69693 14.1992 9.96225 13.4851 10.7732C13.4851 10.7733 13.485 10.7734 13.4849 10.7735L10.2579 14.4399L10.2554 14.4427C9.49376 15.2995 8.06796 14.7711 8.06796 13.6136V11.303H7.50736C6.43568 11.303 5.85328 10.0374 6.56769 9.22646L7.13615 9.72724L6.56747 9.22671L6.56769 9.22646L9.79474 5.56004L9.7972 5.55726ZM10.4695 7.0867L8.09203 9.78784H8.82554C9.24394 9.78784 9.58312 10.127 9.58312 10.5454V12.9132L11.9606 10.2121H11.2271C10.8087 10.2121 10.4695 9.87291 10.4695 9.45451V7.0867ZM12.348 9.77191L12.3478 9.77216L12.348 9.77191ZM7.70482 10.2278L7.70487 10.2277L7.70482 10.2278Z" fill="#59698B"/>
</svg>
