<svg width="24px" height="24px" viewBox="0 0 24 24" version="1.1" xmlns="http://www.w3.org/2000/svg" xmlns:xlink="http://www.w3.org/1999/xlink">
    <g id="页面-1" stroke="none" stroke-width="1" fill="none" fill-rule="evenodd">
        <g id="Building" transform="translate(-432.000000, -96.000000)">
            <g id="store_2_line" transform="translate(432.000000, 96.000000)">

                <path d="M2,5 C2,3.34315 3.34315,2 5,2 L18,2 C19.6569,2 21,3.34315 21,5 L21,18 C21,19.6569 19.6569,21 18,21 L5,21 C3.34315,21 2,19.6569 2,18 L2,5 Z M19,5 L19,6 C19,7.10457 18.1046,8 17,8 C15.8954,8 15,7.10457 15,6 C15,5.44772 14.5523,5 14,5 C13.4477,5 13,5.44772 13,6 L13,6.5 C13,7.32843 12.3284,8 11.5,8 C10.6716,8 10,7.32843 10,6.5 L10,6 C10,5.44772 9.55228,5 9,5 C8.44772,5 8,5.44772 8,6 C8,7.10457 7.10457,8 6,8 C4.89543,8 4,7.10457 4,6 L4,5 C4,4.44772 4.44772,4 5,4 L18,4 C18.5523,4 19,4.44772 19,5 Z M17,10 C15.8796,10 14.8669,9.53938 14.1407,8.7972 C13.499,9.53418 12.5539,10 11.5,10 C10.4461,10 9.50097,9.53418 8.85931,8.7972 C8.13315,9.53939 7.12037,10 6,10 C5.27143,10 4.58835,9.80521 4,9.46487 L4,18 C4,18.5523 4.44772,19 5,19 L8,19 L8,15 C8,13.3431 9.34315,12 11,12 L12,12 C13.6569,12 15,13.3431 15,15 L15,19 L18,19 C18.5523,19 19,18.5523 19,18 L19,9.46487 C18.4117,9.80521 17.7286,10 17,10 Z M13,19 L13,15 C13,14.4477 12.5523,14 12,14 L11,14 C10.4477,14 10,14.4477 10,15 L10,19 L13,19 Z" id="形状" fill="#09244B">

</path>
            </g>
        </g>
    </g>
</svg>
