<svg width="20" height="20" viewBox="0 0 20 20" fill="none" xmlns="http://www.w3.org/2000/svg">
<path fill-rule="evenodd" clip-rule="evenodd" d="M6.27803 10C6.27803 12.0546 7.94537 13.722 10 13.722C12.0546 13.722 13.722 12.0546 13.722 10C13.722 7.94537 12.0546 6.27803 10 6.27803C7.94537 6.27803 6.27803 7.94537 6.27803 10ZM11.6592 10C11.6592 10.914 10.914 11.6592 10 11.6592C9.08602 11.6592 8.34081 10.914 8.34081 10C8.34081 9.08602 9.08602 8.34081 10 8.34081C10.914 8.34081 11.6592 9.08602 11.6592 10Z" fill="white"/>
<path fill-rule="evenodd" clip-rule="evenodd" d="M8.96861 1.03139V2.31041C5.51311 2.77124 2.77124 5.51311 2.31041 8.96861H1.03139C0.465548 8.96861 0 9.43416 0 10C0 10.5658 0.465548 11.0314 1.03139 11.0314H2.31041C2.77124 14.4869 5.51311 17.2288 8.96861 17.6896V18.9686C8.96861 19.5345 9.43416 20 10 20C10.5658 20 11.0314 19.5345 11.0314 18.9686V17.6896C14.4869 17.2288 17.2288 14.4869 17.6896 11.0314H18.9686C19.5345 11.0314 20 10.5658 20 10C20 9.43416 19.5345 8.96861 18.9686 8.96861H17.6896C17.2288 5.51311 14.4869 2.77124 11.0314 2.31041V1.03139C11.0314 0.465548 10.5658 0 10 0C9.43416 0 8.96861 0.465548 8.96861 1.03139ZM10.6726 17.3688C10.6725 17.3688 10.6726 17.3688 10.6726 17.3688V17.3688ZM1.0313 9.32738H2.6311C2.6311 9.32738 2.6311 9.32737 2.6311 9.32738H1.0313ZM4.30493 10C4.30493 6.86181 6.86181 4.30493 10 4.30493C13.1382 4.30493 15.6951 6.86181 15.6951 10C15.6951 13.1382 13.1382 15.6951 10 15.6951C6.86181 15.6951 4.30493 13.1382 4.30493 10Z" fill="white"/>
</svg>
