<svg width="95" height="62" viewBox="0 0 95 62" fill="none" xmlns="http://www.w3.org/2000/svg">
<g clip-path="url(#clip0_419_2218)">
<path d="M31.6505 33.6896C35.0352 29.5862 38.4289 23.886 38.9306 17.1685C39.5481 8.91293 33.3474 1.39711 25.4019 0.75285C21.2072 0.416752 17.1961 1.79088 14.1206 4.61663C11.0831 7.41355 9.34735 11.3638 9.34735 15.4772C9.34735 22.9255 13.0114 29.2401 16.6663 33.6995C11.8931 34.5069 8.26794 36.1315 8.26794 38.5239C8.26794 42.0894 16.2713 43.9537 24.1688 43.9537C32.0664 43.9537 40.0697 42.0894 40.0697 38.5239C40.0697 36.1306 36.4346 34.497 31.6514 33.6896H31.6505ZM11.2756 15.4772C11.2756 11.9018 12.7899 8.46149 15.4215 6.02951C17.8325 3.81919 20.8981 2.62707 24.158 2.62707C24.5151 2.62707 24.8812 2.63699 25.2473 2.66582C31.8331 3.19475 37.0403 9.19136 37.0403 16.0061C37.0403 16.3422 37.0304 16.6883 37.0015 17.0253C36.4997 23.7526 32.8267 29.4519 29.4031 33.3833C28.8435 34.0275 28.2849 34.6132 27.7542 35.1611C26.616 36.3243 25.5845 37.2561 24.7944 37.9192C24.4283 38.2265 23.9076 38.2265 23.5505 37.9292C22.7405 37.247 21.709 36.3144 20.5808 35.1611C20.0501 34.6231 19.4914 34.0266 18.9418 33.3833C15.2389 29.1545 11.2756 22.8876 11.2756 15.4781V15.4772ZM24.1679 42.0326C15.1232 42.0326 10.1962 39.716 10.1962 38.5248C10.1962 37.6408 12.9634 36.1126 18.1607 35.4008C19.7328 37.1209 21.2172 38.4761 22.2975 39.3898C22.8372 39.8511 23.5026 40.0818 24.1679 40.0818C24.8333 40.0818 25.4986 39.8511 26.0384 39.3898C27.0988 38.486 28.5841 37.1407 30.1652 35.4008C35.3724 36.1117 38.1396 37.6399 38.1396 38.5248C38.1396 39.7169 33.2127 42.0326 24.1679 42.0326Z" fill="#1A2C51"/>
</g>
<path d="M24.1312 30.1519C29.0279 30.1519 32.9975 26.2649 32.9975 21.47C32.9975 16.6752 29.0279 12.7882 24.1312 12.7882C19.2345 12.7882 15.2649 16.6752 15.2649 21.47C15.2649 26.2649 19.2345 30.1519 24.1312 30.1519Z" fill="#C7D3EC"/>
<path d="M28.7914 16.2144L23.4667 15.8816L26.6283 11.5553C26.7947 11.3889 26.7947 11.0561 26.6283 10.8897C26.4619 10.7233 26.1291 10.7233 25.9627 10.8897L19.3068 17.0464C18.974 17.0464 18.974 17.0464 18.974 17.2128C18.974 17.3792 18.974 17.5456 18.974 17.5456C18.974 17.712 19.1404 17.712 19.1404 17.8784C19.3068 18.0448 19.4732 18.0448 19.4732 18.0448L24.7979 18.3776L21.6364 22.7039C21.6364 22.8703 21.47 22.8703 21.47 23.0367C21.47 23.2031 21.47 23.2031 21.6364 23.3695C21.8028 23.5359 22.1355 23.5359 22.3019 23.3695L28.9578 17.2128C29.6234 17.0464 29.2906 16.2144 28.7914 16.2144Z" fill="#1A2C51"/>
<g clip-path="url(#clip1_419_2218)">
<path d="M81.8405 33.6896C85.2251 29.5862 88.6189 23.886 89.1206 17.1685C89.738 8.91293 83.5373 1.39711 75.5919 0.75285C71.3972 0.416752 67.386 1.79088 64.3105 4.61663C61.273 7.41355 59.5373 11.3638 59.5373 15.4772C59.5373 22.9255 63.2013 29.2401 66.8563 33.6995C62.083 34.5069 58.4579 36.1315 58.4579 38.5239C58.4579 42.0894 66.4612 43.9537 74.3588 43.9537C82.2563 43.9537 90.2597 42.0894 90.2597 38.5239C90.2597 36.1306 86.6246 34.497 81.8414 33.6896H81.8405ZM61.4656 15.4772C61.4656 11.9018 62.9798 8.46149 65.6114 6.02951C68.0225 3.81919 71.088 2.62707 74.3479 2.62707C74.705 2.62707 75.0711 2.63699 75.4373 2.66582C82.0231 3.19475 87.2303 9.19136 87.2303 16.0061C87.2303 16.3422 87.2203 16.6883 87.1914 17.0253C86.6897 23.7526 83.0166 29.4519 79.5931 33.3833C79.0335 34.0275 78.4748 34.6132 77.9441 35.1611C76.806 36.3243 75.7745 37.2561 74.9844 37.9192C74.6182 38.2265 74.0975 38.2265 73.7404 37.9292C72.9304 37.247 71.8989 36.3144 70.7707 35.1611C70.24 34.6231 69.6813 34.0266 69.1317 33.3833C65.4288 29.1545 61.4656 22.8876 61.4656 15.4781V15.4772ZM74.3579 42.0326C65.3131 42.0326 60.3862 39.716 60.3862 38.5248C60.3862 37.6408 63.1534 36.1126 68.3506 35.4008C69.9227 37.1209 71.4071 38.4761 72.4874 39.3898C73.0271 39.8511 73.6925 40.0818 74.3579 40.0818C75.0232 40.0818 75.6886 39.8511 76.2283 39.3898C77.2887 38.486 78.774 37.1407 80.3552 35.4008C85.5623 36.1117 88.3296 37.6399 88.3296 38.5248C88.3296 39.7169 83.4026 42.0326 74.3579 42.0326Z" fill="#1A2C51"/>
</g>
<path d="M74.3211 30.1519C79.2179 30.1519 83.1874 26.2649 83.1874 21.47C83.1874 16.6752 79.2179 12.7882 74.3211 12.7882C69.4244 12.7882 65.4548 16.6752 65.4548 21.47C65.4548 26.2649 69.4244 30.1519 74.3211 30.1519Z" fill="#C7D3EC"/>
<path d="M78.9814 16.2144L73.6567 15.8816L76.8182 11.5553C76.9846 11.3889 76.9846 11.0561 76.8182 10.8897C76.6518 10.7233 76.319 10.7233 76.1526 10.8897L69.4967 17.0464C69.1639 17.0464 69.1639 17.0464 69.1639 17.2128C69.1639 17.3792 69.1639 17.5456 69.1639 17.5456C69.1639 17.712 69.3303 17.712 69.3303 17.8784C69.4967 18.0448 69.6631 18.0448 69.6631 18.0448L74.9878 18.3776L71.8263 22.7039C71.8263 22.8703 71.6599 22.8703 71.6599 23.0367C71.6599 23.2031 71.6599 23.2031 71.8263 23.3695C71.9927 23.5359 72.3255 23.5359 72.4919 23.3695L79.1478 17.2128C79.8134 17.0464 79.4806 16.2144 78.9814 16.2144Z" fill="#1A2C51"/>
<g clip-path="url(#clip2_419_2218)">
<path d="M59.1832 47.6194C63.4023 42.5043 67.6328 35.3987 68.2582 27.025C69.0279 16.734 61.2984 7.3651 51.3939 6.56199C46.1651 6.14302 41.1649 7.85595 37.3312 11.3784C33.5447 14.8649 31.3811 19.7892 31.3811 24.9167C31.3811 34.2013 35.9484 42.0729 40.5046 47.6318C34.5545 48.6382 30.0355 50.6634 30.0355 53.6456C30.0355 58.0902 40.0121 60.4142 49.8568 60.4142C59.7016 60.4142 69.6781 58.0902 69.6781 53.6456C69.6781 50.6623 65.1468 48.6259 59.1843 47.6194H59.1832ZM33.7848 24.9167C33.7848 20.4597 35.6724 16.1712 38.9528 13.1396C41.9583 10.3843 45.7797 8.89831 49.8433 8.89831C50.2884 8.89831 50.7448 8.91066 51.2012 8.9466C59.4108 9.60594 65.9018 17.081 65.9018 25.576C65.9018 25.995 65.8895 26.4263 65.8534 26.8464C65.228 35.2325 60.6493 42.3369 56.3817 47.2376C55.6841 48.0407 54.9877 48.7708 54.3262 49.4537C52.9074 50.9038 51.6216 52.0652 50.6367 52.8919C50.1803 53.2749 49.5312 53.2749 49.086 52.9043C48.0763 52.054 46.7905 50.8914 45.3841 49.4537C44.7226 48.7831 44.0262 48.0395 43.341 47.2376C38.7252 41.9662 33.7848 34.1542 33.7848 24.9178V24.9167ZM49.8557 58.0194C38.5809 58.0194 32.4392 55.1316 32.4392 53.6467C32.4392 52.5448 35.8887 50.6398 42.3674 49.7525C44.3271 51.8967 46.1775 53.5861 47.5241 54.725C48.1969 55.3001 49.0263 55.5877 49.8557 55.5877C50.6851 55.5877 51.5145 55.3001 52.1873 54.725C53.5092 53.5984 55.3607 51.9214 57.3317 49.7525C63.8227 50.6387 67.2722 52.5437 67.2722 53.6467C67.2722 55.1327 61.1305 58.0194 49.8557 58.0194Z" fill="#1A2C51"/>
</g>
<g clip-path="url(#clip3_419_2218)">
<path d="M49.8 54.5C49.8 54.5 33.7 44.8 32.4 24.5C33.8 6.90001 49.4 7.60001 49.4 7.60001C49.4 7.60001 67.3 8.90001 66.9 25.1C68.1 41.9 49.8 54.5 49.8 54.5Z" fill="white"/>
<path d="M59.2 47.6C63.4 42.5 67.6 35.4 68.3 27C69.1 16.7 61.3 7.3 51.4 6.5C46.2 6.1 41.2 7.9 37.3 11.4C33.5 14.9 31.3 19.8 31.3 24.9C31.3 34.2 35.9 42.1 40.4 47.6C34.4 48.6 29.9 50.6 29.9 53.6C29.9 58 39.9 60.4 49.7 60.4C59.5 60.4 69.5 58.1 69.5 53.6C69.7 50.7 65.1 48.6 59.2 47.6ZM33.8 24.9C33.8 20.4 35.7 16.2 39 13.1C42 10.3 45.8 8.9 49.9 8.9C50.3 8.9 50.8 8.9 51.3 8.9C59.5 9.6 66 17 66 25.5C66 25.9 66 26.4 66 26.8C65.4 35.2 60.8 42.3 56.5 47.2C55.8 48 55.1 48.7 54.4 49.4C53 50.9 51.7 52 50.7 52.8C50.2 53.2 49.6 53.2 49.1 52.8C48.1 51.9 46.8 50.8 45.4 49.3C44.7 48.6 44 47.9 43.4 47.1C38.7 42 33.8 34.2 33.8 24.9ZM49.9 58C38.6 58 32.4 55.1 32.4 53.6C32.4 52.5 35.8 50.6 42.3 49.7C44.3 51.8 46.1 53.5 47.5 54.7C48.2 55.3 49 55.6 49.8 55.6C50.6 55.6 51.5 55.3 52.1 54.7C53.4 53.6 55.3 51.9 57.2 49.7C63.7 50.6 67.1 52.5 67.1 53.6C67.3 55.1 61.1 58 49.9 58Z" fill="#1A2C51"/>
</g>
<path d="M49.8088 43.2094C55.9128 43.2094 60.8611 38.364 60.8611 32.387C60.8611 26.4099 55.9128 21.5645 49.8088 21.5645C43.7048 21.5645 38.7565 26.4099 38.7565 32.387C38.7565 38.364 43.7048 43.2094 49.8088 43.2094Z" fill="#C7D3EC"/>
<path d="M55.6181 25.8355L48.9805 25.4207L52.9216 20.0277C53.129 19.8203 53.129 19.4054 52.9216 19.198C52.7142 18.9906 52.2993 18.9906 52.0919 19.198L43.795 26.8727C43.3801 26.8727 43.3801 26.8727 43.3801 27.0801C43.3801 27.2875 43.3801 27.4949 43.3801 27.4949C43.3801 27.7023 43.5875 27.7023 43.5875 27.9098C43.795 28.1172 44.0024 28.1172 44.0024 28.1172L50.6399 28.532L46.6989 33.925C46.6989 34.1325 46.4915 34.1325 46.4915 34.3399C46.4915 34.5473 46.4915 34.5473 46.6989 34.7547C46.9063 34.9621 47.3212 34.9621 47.5286 34.7547L55.8255 27.0801C56.6552 26.8727 56.2404 25.8355 55.6181 25.8355Z" fill="#1A2C51"/>
<defs>
<clipPath id="clip0_419_2218">
<rect width="31.8018" height="43.2504" fill="white" transform="translate(8.26794 0.703491)"/>
</clipPath>
<clipPath id="clip1_419_2218">
<rect width="31.8018" height="43.2504" fill="white" transform="translate(58.4579 0.703491)"/>
</clipPath>
<clipPath id="clip2_419_2218">
<rect width="39.6426" height="53.914" fill="white" transform="translate(30.0355 6.50035)"/>
</clipPath>
<clipPath id="clip3_419_2218">
<rect width="40" height="55" fill="white" transform="translate(30 6)"/>
</clipPath>
</defs>
</svg>
