<svg version="1.0" xmlns="http://www.w3.org/2000/svg"
 width="123.000000pt" height="123.000000pt" viewBox="0 0 123.000000 123.000000"
 preserveAspectRatio="xMidYMid meet">

<g transform="translate(0.000000,123.000000) scale(0.100000,-0.100000)"
fill="#1a2c51" stroke="none">
<path d="M461 1205 c-238 -67 -406 -252 -448 -492 -41 -237 68 -477 277 -612
87 -56 173 -82 295 -88 118 -6 203 11 298 58 162 82 279 226 323 399 23 89 15
261 -16 347 -59 167 -206 314 -373 373 -82 29 -275 37 -356 15z m397 -357 c8
-8 12 -58 12 -159 0 -141 -1 -149 -28 -200 -84 -161 -292 -186 -415 -50 -115
128 -69 327 93 400 38 18 66 21 185 21 97 0 145 -4 153 -12z"/>
<path d="M588 685 c-42 -39 -76 -75 -77 -81 -1 -14 32 -24 82 -24 20 0 37 -2
37 -5 0 -3 -16 -27 -35 -54 -20 -27 -32 -52 -28 -54 5 -3 44 28 88 69 89 82
89 94 3 94 -27 0 -48 4 -48 8 0 5 14 28 31 51 51 71 27 69 -53 -4z"/>
</g>
</svg>
