<svg width="399" height="131" viewBox="0 0 399 131" fill="none" xmlns="http://www.w3.org/2000/svg">
<ellipse cx="61.3562" cy="62.3309" rx="61.0714" ry="60.9375" fill="#1a2c51"/>
<ellipse cx="61.4551" cy="62.3313" rx="61.0714" ry="60.9375" fill="#1a2c51"/>
<rect width="37.9433" height="37.8601" transform="matrix(0.999831 -0.0183818 0.0184627 0.99983 46.1562 42.835)" fill="#1a2c51"/>
<path d="M61.3377 37.8652C47.7276 38.1154 36.0204 49.2552 36.2889 63.7975C36.3996 69.7954 38.924 77.6519 46.24 83.5108C50.8319 87.0335 56.4868 88.8954 62.2781 88.7914C68.7997 88.6715 75.3035 86.0613 80.1736 80.9907C82.5067 78.5894 84.34 75.7509 85.5678 72.6388C86.7955 69.5268 87.3934 66.2029 87.3268 62.8591L86.9444 42.1498C86.8959 39.5244 84.7283 37.4352 82.1029 37.4834L61.3377 37.8652ZM72.6813 63.8642L58.2923 77.2326C57.8464 77.6653 57.137 77.65 56.7039 77.2335C56.5066 77.0468 56.3838 76.7952 56.3579 76.5252C56.3321 76.2551 56.405 75.9849 56.5633 75.7644L63.3078 66.2158L51.8034 65.2952C51.5223 65.2741 51.2534 65.1722 51.0292 65.0017C50.8051 64.8312 50.6352 64.5996 50.5403 64.3348C50.4454 64.07 50.4294 63.7834 50.4944 63.5097C50.5593 63.2361 50.7024 62.9871 50.9062 62.7929L65.2952 49.4245C65.7411 48.9918 66.4505 49.0071 66.8836 49.4236C67.2879 49.8124 67.3561 50.4338 67.0242 50.8928L60.2797 60.4413L71.7841 61.3619C73.0622 61.4516 73.6013 62.9983 72.6813 63.8642Z" fill="white"/>
<path d="M173.931 100.418C188.784 100.418 199.337 92.6175 199.337 79.455C199.337 65.025 187.709 61.4175 177.351 58.2975C166.701 55.08 165.039 52.935 165.039 49.815C165.039 47.085 167.482 44.6475 172.368 44.6475C178.622 44.6475 181.846 47.67 184.191 52.545L197.383 44.8425C192.399 34.8 183.605 29.4375 172.368 29.4375C160.545 29.4375 149.405 37.0425 149.405 50.205C149.405 63.27 159.372 68.145 169.534 70.9725C179.794 73.8 183.703 75.4575 183.703 79.65C183.703 82.2825 181.846 85.2075 174.42 85.2075C166.701 85.2075 162.499 81.405 160.056 75.75L146.571 83.55C150.382 93.5925 159.567 100.418 173.931 100.418Z" fill="#1a2c51"/>
<path d="M234.152 50.3025V76.92C234.152 83.8425 230.439 86.9625 225.065 86.9625C220.375 86.9625 216.564 84.135 216.564 78.09V50.3025H201.907V80.235C201.907 93.3975 210.31 100.418 220.179 100.418C226.628 100.418 231.514 98.0775 234.152 94.47V99.0525H248.809V50.3025H234.152Z" fill="#1a2c51"/>
<path d="M270.144 58.98V50.3025H255.487V99.0525H270.144V77.0175C270.144 67.365 278.743 64.9275 284.802 65.9025V49.3275C278.646 49.3275 272.099 52.4475 270.144 58.98Z" fill="#1a2c51"/>
<path d="M322.011 50.3025V55.275C318.787 51.2775 314.097 48.9375 307.745 48.9375C293.87 48.9375 283.707 60.2475 283.707 73.7025C283.707 87.1575 293.87 98.4675 307.745 98.4675C314.097 98.4675 318.787 96.1275 322.011 92.13V96.615C322.011 103.538 317.81 107.048 310.97 107.048C304.521 107.048 301.687 104.318 299.83 100.905L287.323 108.12C291.818 116.115 300.319 119.918 310.481 119.918C323.477 119.918 336.278 112.995 336.278 96.615V50.3025H322.011ZM310.188 85.0125C303.25 85.0125 298.365 80.43 298.365 73.7025C298.365 66.975 303.25 62.3925 310.188 62.3925C317.126 62.3925 322.011 66.975 322.011 73.7025C322.011 80.43 317.126 85.0125 310.188 85.0125Z" fill="#1a2c51"/>
<path d="M356.053 80.5275H390.742C391.133 78.675 391.328 76.725 391.328 74.6775C391.328 59.955 380.775 48.9375 366.509 48.9375C351.07 48.9375 340.517 60.15 340.517 74.6775C340.517 89.205 350.874 100.418 367.583 100.418C376.866 100.418 384.097 97.005 388.885 90.375L377.159 83.6475C375.205 85.7925 371.785 87.3525 367.779 87.3525C362.405 87.3525 357.91 85.5975 356.053 80.5275ZM355.76 69.6075C357.128 64.635 360.841 61.905 366.411 61.905C370.808 61.905 375.205 63.9525 376.769 69.6075H355.76Z" fill="#1a2c51"/>
</svg>
