<svg width="150" height="50" viewBox="0 0 399 131" fill="none" xmlns="http://www.w3.org/2000/svg">

<g transform="translate(0.000000,123.000000) scale(0.100000,-0.100000)"
fill="#1a2c51" stroke="none">
<path d="M461 1205 c-238 -67 -406 -252 -448 -492 -41 -237 68 -477 277 -612
87 -56 173 -82 295 -88 118 -6 203 11 298 58 162 82 279 226 323 399 23 89 15
261 -16 347 -59 167 -206 314 -373 373 -82 29 -275 37 -356 15z m397 -357 c8
-8 12 -58 12 -159 0 -141 -1 -149 -28 -200 -84 -161 -292 -186 -415 -50 -115
128 -69 327 93 400 38 18 66 21 185 21 97 0 145 -4 153 -12z"/>
<path d="M588 685 c-42 -39 -76 -75 -77 -81 -1 -14 32 -24 82 -24 20 0 37 -2
37 -5 0 -3 -16 -27 -35 -54 -20 -27 -32 -52 -28 -54 5 -3 44 28 88 69 89 82
89 94 3 94 -27 0 -48 4 -48 8 0 5 14 28 31 51 51 71 27 69 -53 -4z"/>
</g>
<path d="M173.931 100.418C188.784 100.418 199.337 92.6175 199.337 79.455C199.337 65.025 187.709 61.4175 177.351 58.2975C166.701 55.08 165.039 52.935 165.039 49.815C165.039 47.085 167.482 44.6475 172.368 44.6475C178.622 44.6475 181.846 47.67 184.191 52.545L197.383 44.8425C192.399 34.8 183.605 29.4375 172.368 29.4375C160.545 29.4375 149.405 37.0425 149.405 50.205C149.405 63.27 159.372 68.145 169.534 70.9725C179.794 73.8 183.703 75.4575 183.703 79.65C183.703 82.2825 181.846 85.2075 174.42 85.2075C166.701 85.2075 162.499 81.405 160.056 75.75L146.571 83.55C150.382 93.5925 159.567 100.418 173.931 100.418Z" fill="#1a2c51"/>
<path d="M234.152 50.3025V76.92C234.152 83.8425 230.439 86.9625 225.065 86.9625C220.375 86.9625 216.564 84.135 216.564 78.09V50.3025H201.907V80.235C201.907 93.3975 210.31 100.418 220.179 100.418C226.628 100.418 231.514 98.0775 234.152 94.47V99.0525H248.809V50.3025H234.152Z" fill="#1a2c51"/>
<path d="M270.144 58.98V50.3025H255.487V99.0525H270.144V77.0175C270.144 67.365 278.743 64.9275 284.802 65.9025V49.3275C278.646 49.3275 272.099 52.4475 270.144 58.98Z" fill="#1a2c51"/>
<path d="M322.011 50.3025V55.275C318.787 51.2775 314.097 48.9375 307.745 48.9375C293.87 48.9375 283.707 60.2475 283.707 73.7025C283.707 87.1575 293.87 98.4675 307.745 98.4675C314.097 98.4675 318.787 96.1275 322.011 92.13V96.615C322.011 103.538 317.81 107.048 310.97 107.048C304.521 107.048 301.687 104.318 299.83 100.905L287.323 108.12C291.818 116.115 300.319 119.918 310.481 119.918C323.477 119.918 336.278 112.995 336.278 96.615V50.3025H322.011ZM310.188 85.0125C303.25 85.0125 298.365 80.43 298.365 73.7025C298.365 66.975 303.25 62.3925 310.188 62.3925C317.126 62.3925 322.011 66.975 322.011 73.7025C322.011 80.43 317.126 85.0125 310.188 85.0125Z" fill="#1a2c51"/>
<path d="M356.053 80.5275H390.742C391.133 78.675 391.328 76.725 391.328 74.6775C391.328 59.955 380.775 48.9375 366.509 48.9375C351.07 48.9375 340.517 60.15 340.517 74.6775C340.517 89.205 350.874 100.418 367.583 100.418C376.866 100.418 384.097 97.005 388.885 90.375L377.159 83.6475C375.205 85.7925 371.785 87.3525 367.779 87.3525C362.405 87.3525 357.91 85.5975 356.053 80.5275ZM355.76 69.6075C357.128 64.635 360.841 61.905 366.411 61.905C370.808 61.905 375.205 63.9525 376.769 69.6075H355.76Z" fill="#1a2c51"/>
</svg>
