<svg width="40" height="40" viewBox="0 0 35 27" fill="none" xmlns="http://www.w3.org/2000/svg">
<path d="M33.375 10.152V12.9133C33.375 19.9452 27.6745 25.6457 20.6425 25.6457C20.0698 25.6457 19.6055 25.1814 19.6055 24.6087V23.36H15.1476V24.6087C15.1476 25.1814 14.6833 25.6457 14.1106 25.6457H14.1075C7.07552 25.6457 1.375 19.9452 1.375 12.9133V10.152C1.375 5.0975 5.47251 1 10.527 1H24.2229C29.2761 1 33.375 5.09585 33.375 10.152Z" stroke="#000000" stroke-width="1.32031" stroke-miterlimit="10"/>
<path d="M8.2005 4.99068C10.0532 4.99068 11.5604 6.49793 11.5604 8.35059C11.5604 10.2033 10.0532 11.7105 8.2005 11.7105C6.34782 11.7105 4.84057 10.2033 4.84057 8.35059C4.84057 6.49793 6.34782 4.99068 8.2005 4.99068ZM8.2005 4.52072C6.0853 4.52072 4.37061 6.2354 4.37061 8.35059C4.37061 10.4658 6.0853 12.1805 8.2005 12.1805C10.3157 12.1805 12.0304 10.4658 12.0304 8.35059C12.0304 6.2354 10.3157 4.52072 8.2005 4.52072Z" stroke="#000000" stroke-width="0.880204"/>
<path d="M26.2447 4.99068C28.0973 4.99068 29.6046 6.49793 29.6046 8.35059C29.6046 10.2033 28.0973 11.7105 26.2447 11.7105C24.392 11.7105 22.8848 10.2033 22.8848 8.35059C22.8848 6.49793 24.392 4.99068 26.2447 4.99068ZM26.2447 4.52072C24.1295 4.52072 22.4148 6.2354 22.4148 8.35059C22.4148 10.4658 24.1295 12.1805 26.2447 12.1805C28.3599 12.1805 30.0746 10.4658 30.0746 8.35059C30.0746 6.2354 28.3599 4.52072 26.2447 4.52072Z" stroke="#000000" stroke-width="0.880204"/>
<path d="M17.2344 18.6251C17.9672 18.6251 18.5634 19.2213 18.5634 19.9541C18.5634 20.6869 17.9672 21.2831 17.2344 21.2831C16.5016 21.2831 15.9054 20.6869 15.9054 19.9541C15.9054 19.2213 16.5016 18.6251 17.2344 18.6251ZM17.2344 18.3902C16.3706 18.3902 15.6704 19.0904 15.6704 19.9541C15.6704 20.8179 16.3706 21.5181 17.2344 21.5181C18.0982 21.5181 18.7984 20.8179 18.7984 19.9541C18.7984 19.0904 18.0982 18.3902 17.2344 18.3902Z" stroke="#000000" stroke-width="0.77018"/>
<path d="M12.5492 20.3836C13.0227 20.3836 13.4079 20.7687 13.4079 21.2422C13.4079 21.7157 13.0227 22.1009 12.5492 22.1009C12.0757 22.1009 11.6905 21.7157 11.6905 21.2422C11.6905 20.7687 12.0757 20.3836 12.5492 20.3836ZM12.5492 20.1486C11.9452 20.1486 11.4556 20.6382 11.4556 21.2422C11.4556 21.8462 11.9452 22.3358 12.5492 22.3358C13.1532 22.3358 13.6429 21.8462 13.6429 21.2422C13.6429 20.6382 13.1532 20.1486 12.5492 20.1486Z" stroke="#000000" stroke-width="0.77018"/>
<path d="M22.2008 20.3836C22.6743 20.3836 23.0595 20.7687 23.0595 21.2422C23.0595 21.7157 22.6743 22.1009 22.2008 22.1009C21.7273 22.1009 21.3422 21.7157 21.3422 21.2422C21.3422 20.7687 21.7273 20.3836 22.2008 20.3836ZM22.2008 20.1486C21.5968 20.1486 21.1072 20.6382 21.1072 21.2422C21.1072 21.8462 21.5968 22.3358 22.2008 22.3358C22.8048 22.3358 23.2945 21.8462 23.2945 21.2422C23.2945 20.6382 22.8048 20.1486 22.2008 20.1486Z" stroke="#000000" stroke-width="0.77018"/>
<path d="M22.2074 4.02621C22.1923 4.31801 22.0891 4.60215 21.9061 4.85311C21.2455 5.76386 19.8582 8.18455 21.2389 10.9853C22.152 12.8434 23.9462 13.9091 26.1617 13.9091C27.6322 13.9091 29.1712 13.4329 30.4222 12.5964C30.546 13.1169 30.5701 14.4649 30.1162 16.0861C29.7778 17.2948 28.938 19.4315 27.1193 20.1608C26.734 20.3115 26.3972 20.388 26.1184 20.388C25.4186 20.388 25.0734 19.9089 24.5234 19.0621C24.1575 18.499 23.7429 17.8607 23.0964 17.3677C21.2332 15.9445 17.5506 15.771 17.3947 15.7643L17.3746 15.7634L17.3544 15.7643C17.1987 15.771 13.5192 15.9445 11.6526 17.3677C11.0075 17.8607 10.5936 18.4985 10.2285 19.0612C9.67867 19.9086 9.33357 20.388 8.6338 20.388C8.35499 20.388 8.01823 20.3115 7.63641 20.1621C5.80982 19.4304 4.96973 17.2895 4.63155 16.0785C4.17937 14.4592 4.20461 13.114 4.32872 12.5955C5.57994 13.4325 7.1191 13.909 8.5895 13.909C10.8039 13.909 12.5985 12.8435 13.5131 10.9858C14.894 8.1845 13.5067 5.76383 12.8453 4.85208C12.663 4.60206 12.5598 4.31799 12.5448 4.02619L22.2074 4.02621ZM22.2712 3.55625H12.4779C12.2539 3.55625 12.0729 3.73465 12.0729 3.9517C12.0729 4.37387 12.2141 4.78417 12.4657 5.12908C13.1406 6.05965 14.3402 8.24494 13.0915 10.7781C12.1686 12.6526 10.4208 13.4391 8.58952 13.4391C7.12116 13.4391 5.59911 12.9334 4.40584 12.0773C4.33981 12.0252 4.27832 12.0004 4.22141 12.0004C3.2607 12.0004 3.66426 19.0771 7.46165 20.5984C7.92328 20.779 8.30686 20.858 8.63382 20.858C10.2821 20.858 10.4863 18.8503 11.938 17.7412C13.7082 16.3914 17.3746 16.2339 17.3746 16.2339C17.3746 16.2339 21.044 16.3914 22.8112 17.7412C24.2656 18.8503 24.4697 20.858 26.1184 20.858C26.4453 20.858 26.8291 20.779 27.2906 20.5984C31.0853 19.077 31.4887 12.0004 30.5303 12.0004C30.4737 12.0004 30.4122 12.0252 30.3464 12.0773C29.153 12.9335 27.6307 13.4391 26.1617 13.4391C24.3301 13.4391 22.5818 12.6524 21.6607 10.7781C20.412 8.24494 21.6116 6.05965 22.2866 5.12908C22.5381 4.78417 22.6793 4.37387 22.6793 3.9517C22.6793 3.73467 22.4951 3.55625 22.2712 3.55625Z" stroke="#000000" stroke-width="0.880204"/>
</svg>
