<svg width="61" height="60" viewBox="0 0 61 60" fill="none" xmlns="http://www.w3.org/2000/svg">
<circle cx="30.2098" cy="30" r="30" fill="#4FA10D"/>
<path d="M29.4909 43.9091V14.8182H31.3545V43.9091H29.4909ZM35.3204 23.8409C35.1992 22.7652 34.6992 21.9318 33.8204 21.3409C32.9416 20.7424 31.8356 20.4432 30.5022 20.4432C29.5477 20.4432 28.7219 20.5947 28.025 20.8977C27.328 21.1932 26.7863 21.6023 26.4 22.125C26.0212 22.6402 25.8318 23.2273 25.8318 23.8864C25.8318 24.4394 25.9606 24.9167 26.2181 25.3182C26.4833 25.7197 26.828 26.0568 27.2522 26.3295C27.684 26.5947 28.1462 26.8182 28.6386 27C29.131 27.1742 29.6045 27.3182 30.059 27.4318L32.3318 28.0227C33.0742 28.2045 33.8356 28.4508 34.6159 28.7614C35.3962 29.072 36.1197 29.4811 36.7863 29.9886C37.453 30.4962 37.9909 31.125 38.4 31.875C38.8166 32.625 39.025 33.5227 39.025 34.5682C39.025 35.8864 38.684 37.0568 38.0022 38.0795C37.328 39.1023 36.3469 39.9091 35.059 40.5C33.7787 41.0909 32.2295 41.3864 30.4113 41.3864C28.6689 41.3864 27.1613 41.1098 25.8886 40.5568C24.6159 40.0038 23.6197 39.2197 22.9 38.2045C22.1803 37.1818 21.7825 35.9697 21.7068 34.5682H25.2295C25.2977 35.4091 25.5704 36.1098 26.0477 36.6705C26.5325 37.2235 27.15 37.6364 27.9 37.9091C28.6575 38.1742 29.4871 38.3068 30.3886 38.3068C31.381 38.3068 32.2636 38.1515 33.0363 37.8409C33.8166 37.5227 34.4303 37.0833 34.8772 36.5227C35.3242 35.9545 35.5477 35.2917 35.5477 34.5341C35.5477 33.8447 35.3507 33.2803 34.9568 32.8409C34.5704 32.4015 34.0439 32.0379 33.3772 31.75C32.7181 31.4621 31.9719 31.2083 31.1386 30.9886L28.3886 30.2386C26.525 29.7311 25.0477 28.9848 23.9568 28C22.8734 27.0152 22.3318 25.7121 22.3318 24.0909C22.3318 22.75 22.6954 21.5795 23.4227 20.5795C24.15 19.5795 25.1348 18.803 26.3772 18.25C27.6197 17.6894 29.0212 17.4091 30.5818 17.4091C32.1575 17.4091 33.5477 17.6856 34.7522 18.2386C35.9644 18.7917 36.9189 19.553 37.6159 20.5227C38.3128 21.4848 38.6765 22.5909 38.7068 23.8409H35.3204Z" fill="white"/>
</svg>
