<svg width="50" height="72" viewBox="0 0 50 72" fill="none" xmlns="http://www.w3.org/2000/svg">
<g clip-path="url(#clip0_244_7747)">
<path d="M25.3248 61.5C33.0236 61.5 39.2647 55.3887 39.2647 47.85C39.2647 40.3113 33.0236 34.2 25.3248 34.2C17.626 34.2 11.3848 40.3113 11.3848 47.85C11.3848 55.3887 17.626 61.5 25.3248 61.5Z" fill="#C7D3EC"/>
<path d="M33.5294 7.2H16.4706C14.038 7.2 12.0588 9.138 12.0588 11.52V16.992C12.0588 19.374 14.038 21.312 16.4706 21.312H33.5294C35.962 21.312 37.9412 19.374 37.9412 16.992V11.52C37.9412 9.138 35.962 7.2 33.5294 7.2ZM35 16.992C35 17.787 34.3398 18.432 33.5294 18.432H16.4706C15.6602 18.432 15 17.787 15 16.992V11.52C15 10.725 15.6602 10.08 16.4706 10.08H33.5294C34.3398 10.08 35 10.725 35 11.52V16.992Z" fill="#1A2C51"/>
<path d="M34.4118 52.992H15.5883C14.7764 52.992 14.1177 53.6355 14.1177 54.432C14.1177 55.2285 14.7764 55.872 15.5883 55.872H34.4118C35.2237 55.872 35.8824 55.2285 35.8824 54.432C35.8824 53.6355 35.2237 52.992 34.4118 52.992Z" fill="#1A2C51"/>
<path d="M45.2941 45.792V7.2C45.2941 3.2295 41.996 0 37.9412 0H12.0588C8.00398 0 4.70588 3.2295 4.70588 7.2V59.904H4.41176C1.97917 59.904 0 61.842 0 64.224V67.68C0 70.062 1.97917 72 4.41176 72H45.5882C48.0208 72 50 70.062 50 67.68V64.224C50 61.842 48.0208 59.904 45.5882 59.904H45.2941V45.792ZM47.0588 64.224V67.68C47.0588 68.475 46.3986 69.12 45.5882 69.12H4.41176C3.60141 69.12 2.94118 68.475 2.94118 67.68V64.224C2.94118 63.429 3.60141 62.784 4.41176 62.784H45.5882C46.3986 62.784 47.0588 63.429 47.0588 64.224ZM7.64706 59.904V7.2C7.64706 4.818 9.62623 2.88 12.0588 2.88H37.9412C40.3738 2.88 42.3529 4.818 42.3529 7.2V59.904H7.64706Z" fill="#1A2C51"/>
<path d="M32.6803 38.9933L24.787 38.5L29.4736 32.0867C29.7203 31.84 29.7203 31.3467 29.4736 31.1C29.227 30.8533 28.7336 30.8533 28.487 31.1L18.6203 40.2267C18.127 40.2267 18.127 40.2267 18.127 40.4733C18.127 40.72 18.127 40.9667 18.127 40.9667C18.127 41.2133 18.3736 41.2133 18.3736 41.46C18.6203 41.7067 18.867 41.7067 18.867 41.7067L26.7603 42.2L22.0736 48.6133C22.0736 48.86 21.827 48.86 21.827 49.1067C21.827 49.3533 21.827 49.3533 22.0736 49.6C22.3203 49.8467 22.8136 49.8467 23.0603 49.6L32.927 40.4733C33.9136 40.2267 33.4203 38.9933 32.6803 38.9933Z" fill="#1A2C51"/>
</g>
<defs>
<clipPath id="clip0_244_7747">
<rect width="50" height="72" fill="white"/>
</clipPath>
</defs>
</svg>
