<svg width="61" height="60" viewBox="0 0 61 60" fill="none" xmlns="http://www.w3.org/2000/svg">
<circle cx="30.5972" cy="30" r="30" fill="#2755f6"/>
<path d="M41.6986 28.415L28.8451 27.6569L36.4769 17.8007C36.8785 17.4216 36.8785 16.6634 36.4769 16.2843C36.0752 15.9052 35.2718 15.9052 34.8702 16.2843L18.8033 30.3105C18 30.3105 18 30.3105 18 30.6895C18 31.0686 18 31.4477 18 31.4477C18 31.8268 18.4017 31.8268 18.4017 32.2059C18.8033 32.585 19.205 32.585 19.205 32.585L32.0585 33.3431L24.4267 43.1993C24.4267 43.5784 24.0251 43.5784 24.0251 43.9575C24.0251 44.3366 24.0251 44.3366 24.4267 44.7157C24.8284 45.0948 25.6317 45.0948 26.0334 44.7157L42.1003 30.6895C43.7069 30.3105 42.9036 28.415 41.6986 28.415Z" fill="white"/>
</svg>
