<svg width="198" height="138" viewBox="0 0 198 138" fill="none" xmlns="http://www.w3.org/2000/svg">
<path d="M162.5 93.79C162.5 114.05 162.6 119.19 162.6 134.32C151.58 134.32 137.78 134.32 121.97 134.32C121.97 111.94 140.12 93.79 162.5 93.79Z" fill="#C7D3EC"/>
<path d="M3.36001 74.6501C3.36001 54.6201 3.26001 49.5401 3.26001 34.5901C14.15 34.5901 27.79 34.5901 43.42 34.5901C43.42 56.7101 25.49 74.6401 3.37001 74.6401L3.36001 74.6501Z" fill="#C7D3EC"/>
<path fill-rule="evenodd" clip-rule="evenodd" d="M82.56 87.8901C74.74 86.6501 68.96 80.6701 68.96 73.7701C68.96 66.8701 74.73 60.8901 82.56 59.6501V56.3901C82.56 54.7201 83.91 53.3701 85.58 53.3701C87.25 53.3701 88.6 54.7201 88.6 56.3901V59.6501C96.42 60.8901 102.2 66.8701 102.2 73.7701C102.2 75.4401 100.85 76.7901 99.18 76.7901C97.51 76.7901 96.16 75.4401 96.16 73.7701C96.16 69.8901 92.91 66.8001 88.61 65.8001V82.3101C96.43 83.5501 102.21 89.5301 102.21 96.4301C102.21 103.33 96.44 109.31 88.61 110.55V113.81C88.61 115.48 87.26 116.83 85.59 116.83C83.92 116.83 82.57 115.48 82.57 113.81V110.55C74.75 109.31 68.97 103.33 68.97 96.4301C68.97 94.7601 70.32 93.4101 71.99 93.4101C73.66 93.4101 75.01 94.7601 75.01 96.4301C75.01 100.31 78.26 103.4 82.56 104.4V87.8801V87.8901ZM82.56 65.8101C78.26 66.8101 75.01 69.8901 75.01 73.7801C75.01 77.6701 78.26 80.7501 82.56 81.7501V65.8201V65.8101ZM88.6 104.41C92.9 103.41 96.15 100.33 96.15 96.4401C96.15 92.5501 92.9 89.4701 88.6 88.4701V104.4V104.41Z" fill="#1A2C51"/>
<path d="M0 42.7001V126.79C0 132.91 4.98 137.9 11.11 137.9H154.69C160.81 137.9 165.8 132.92 165.8 126.79V42.7001C165.8 36.5801 160.82 31.5901 154.69 31.5901H11.11C4.99 31.5901 0 36.5701 0 42.7001ZM154.68 39.0001C156.72 39.0001 158.38 40.6601 158.38 42.7001V126.79C158.38 128.83 156.72 130.49 154.68 130.49H11.11C9.07 130.49 7.41 128.83 7.41 126.79V42.7001C7.41 40.6601 9.07 39.0001 11.11 39.0001H154.69H154.68Z" fill="#1A2C51"/>
<path d="M162.39 70C181.72 70 197.39 54.33 197.39 35C197.39 15.67 181.72 0 162.39 0C143.06 0 127.39 15.67 127.39 35C127.39 54.33 143.06 70 162.39 70Z" fill="#40D66A"/>
<path d="M166.191 34.5182L160.092 42.8625H171V47H153V44.4068L160.65 34.3795L153 24.592V22H171V26.1727H160.179L166.191 34.2602V34.5182Z" fill="white"/>
</svg>
