<svg width="29" height="28" viewBox="0 0 29 28" fill="none" xmlns="http://www.w3.org/2000/svg">
<path opacity="0.01" d="M0.287109 0H28.2871V28H0.287109" fill="#333333"/>
<path d="M9.71397 23.3329C13.1993 23.4496 16.5836 22.1518 19.0974 19.7347C21.6111 17.3177 23.0405 13.9868 23.0606 10.4996C23.8512 9.52125 24.4383 8.39474 24.7873 7.18627C24.8405 6.99124 24.7743 6.78313 24.6182 6.6547C24.4621 6.52627 24.2451 6.50144 24.064 6.59127C23.2159 6.99952 22.2018 6.82113 21.544 6.14794C20.7165 5.24183 19.5574 4.7094 18.3309 4.67203C17.1044 4.63466 15.915 5.09555 15.034 5.94961C13.8194 7.12583 13.3103 8.85259 13.6923 10.4996C9.78397 10.7329 7.10064 8.87794 4.95397 6.33461C4.8222 6.18538 4.61465 6.12819 4.42503 6.18886C4.23542 6.24954 4.09963 6.4166 4.07897 6.61461C3.24144 11.2605 5.38198 15.9371 9.44564 18.3396C8.11522 19.8654 6.24688 20.8184 4.23064 20.9996C4.00918 21.0363 3.83558 21.2098 3.79867 21.4312C3.76177 21.6527 3.86973 21.873 4.06731 21.9796C5.82141 22.8562 7.75307 23.3192 9.71397 23.3329" fill="#333333"/>
</svg>
