<svg width="61" height="60" viewBox="0 0 61 60" fill="none" xmlns="http://www.w3.org/2000/svg">
<circle cx="30.7376" cy="30" r="30" fill="#FF4264"/>
<path d="M30.2376 45.9062C39.2985 45.9062 46.6439 38.5609 46.6439 29.5C46.6439 20.4391 39.2985 13.0938 30.2376 13.0938C21.1767 13.0938 13.8314 20.4391 13.8314 29.5C13.8314 38.5609 21.1767 45.9062 30.2376 45.9062Z" fill="white"/>
<path d="M19.9274 21.3773L38.3604 39.8103C35.8365 41.8001 32.6703 42.7947 29.4619 42.6055C26.2536 42.4164 23.2262 41.0566 20.9536 38.7841C18.681 36.5115 17.3213 33.4841 17.1321 30.2757C16.943 27.0674 17.9376 23.9012 19.9274 21.3773Z" fill="#FF4264"/>
<path d="M22.1149 19.1897L40.5478 37.6227C42.5376 35.0988 43.5322 31.9326 43.3431 28.7243C43.1539 25.5159 41.7942 22.4885 39.5216 20.2159C37.249 17.9434 34.2216 16.5836 31.0133 16.3945C27.805 16.2053 24.6387 17.1999 22.1149 19.1897Z" fill="#FF4264"/>
</svg>
