<svg width="40" height="40" viewBox="0 0 33 32" fill="none" xmlns="http://www.w3.org/2000/svg">
<path d="M31.375 16C31.375 24.4223 24.5473 31.25 16.125 31.25C7.70266 31.25 0.875 24.4223 0.875 16C0.875 7.57766 7.70266 0.75 16.125 0.75C24.5473 0.75 31.375 7.57766 31.375 16Z" stroke="#000000" stroke-width="1.5" stroke-miterlimit="10"/>
<path d="M13.6404 17.8654H13.6404V17.8696C13.6404 18.4268 14.0921 18.8784 14.6492 18.8784H17.0164C17.5719 18.8784 18.0225 18.4296 18.0252 17.8748C18.0299 17.436 18.0859 17.1082 18.17 16.8712C18.2597 16.6325 18.3917 16.4251 18.5694 16.2431C18.7738 16.0393 19.0497 15.8281 19.4094 15.6141L19.4098 15.6139C19.9338 15.3017 20.398 14.9474 20.797 14.5484L20.8008 14.5446C21.2167 14.1226 21.5413 13.6377 21.7712 13.0938C22.0152 12.5237 22.1279 11.8933 22.1279 11.2169C22.1279 10.1995 21.8729 9.28451 21.3297 8.51025C20.8003 7.75572 20.0757 7.19205 19.1841 6.81292C18.298 6.43101 17.3013 6.25 16.2096 6.25C15.2003 6.25 14.2582 6.43153 13.3938 6.80577C12.5073 7.18442 11.7841 7.76793 11.2405 8.5501C10.9212 9.00663 10.6941 9.5237 10.5528 10.0918C10.2419 11.3414 11.327 12.241 12.3554 12.241H13.1299C13.6706 12.241 14.1022 12.0024 14.4201 11.732C14.7314 11.4673 14.9749 11.138 15.1573 10.8668L15.1573 10.8668L15.1608 10.8616C15.2773 10.6852 15.4168 10.565 15.5842 10.4842L15.5842 10.4842L15.5936 10.4796C15.7835 10.3846 15.9807 10.338 16.1944 10.338C16.4264 10.338 16.6179 10.3856 16.7827 10.4695L16.7827 10.4695L16.7876 10.472C16.952 10.5542 17.074 10.6651 17.1672 10.8119L17.8004 10.4101L17.1672 10.8119C17.2494 10.9416 17.3016 11.1056 17.3016 11.3311C17.3016 11.5438 17.2557 11.7171 17.1743 11.8668C17.0728 12.0481 16.9319 12.2225 16.7425 12.3887C16.5259 12.5788 16.2756 12.7667 15.9897 12.9514C15.5208 13.2457 15.1087 13.5805 14.76 13.9588C14.3664 14.3857 14.0897 14.9208 13.9076 15.5317L13.9076 15.5317L13.9058 15.5381C13.7264 16.1599 13.6457 16.9452 13.6404 17.8654ZM14.0618 25.9937L14.0618 25.9938L14.0694 26.0012C14.5704 26.4953 15.1937 26.75 15.8975 26.75C16.3541 26.75 16.7859 26.634 17.1781 26.4016L17.1781 26.4017L17.1868 26.3964C17.5618 26.1672 17.8675 25.8617 18.0969 25.4869C18.3415 25.0905 18.4672 24.6513 18.4742 24.1845L18.4744 24.175L18.4743 24.1655C18.4671 23.4628 18.1962 22.8474 17.6915 22.3566C17.195 21.8739 16.5868 21.6116 15.8975 21.6116C15.1937 21.6116 14.5704 21.8663 14.0694 22.3603L14.0694 22.3603L14.0656 22.3641C13.5713 22.8584 13.3155 23.4752 13.3207 24.1732C13.3155 24.8737 13.5693 25.4942 14.0618 25.9937Z" stroke="#000000" stroke-width="1.5"/>
</svg>
