<svg width="142" height="155" viewBox="0 0 142 155" fill="none" xmlns="http://www.w3.org/2000/svg">
<path d="M30.68 128.85C47.6241 128.85 61.36 115.114 61.36 98.17C61.36 81.2259 47.6241 67.49 30.68 67.49C13.7359 67.49 0 81.2259 0 98.17C0 115.114 13.7359 128.85 30.68 128.85Z" fill="#C7D3EC"/>
<path d="M84.0101 57.62C91.6201 51.1 95.9701 42.4 95.9701 32.61C95.9701 14.13 81.8401 0 63.3601 0C44.8801 0 30.7401 14.13 30.7401 32.62C30.7401 42.4 35.0901 51.1 42.7001 57.63C29.6501 63.07 19.8701 77.2 19.8701 92.42V114.16C19.8701 122.86 27.4801 130.47 36.1801 130.47H90.5401C99.2401 130.47 106.85 122.86 106.85 114.16V92.42C106.85 77.2 97.0701 63.07 84.0201 57.63L84.0101 57.62ZM63.3601 8.58C75.3201 8.58 87.4001 20.66 87.4001 32.62C87.4001 44.58 75.3201 56.66 63.3601 56.66C51.4001 56.66 39.3201 44.58 39.3201 32.62C39.3201 20.66 51.4001 8.58 63.3601 8.58ZM98.2701 114.15C98.2701 117.41 93.8001 121.88 90.5401 121.88H36.1801C32.9201 121.88 28.4501 117.41 28.4501 114.15V92.41C28.4501 77.19 42.7001 62.94 57.9201 62.94H68.7901C84.0101 62.94 98.2601 77.19 98.2601 92.41V114.15H98.2701Z" fill="#1A2C51"/>
<path d="M110.38 60.6399L85.3301 74.3599L76.5701 83.8399L56.5701 135.69H110.43L110.38 60.6399Z" fill="white"/>
<path d="M107 155C126.33 155 142 139.33 142 120C142 100.67 126.33 85 107 85C87.67 85 72 100.67 72 120C72 139.33 87.67 155 107 155Z" fill="#2755F6"/>
<path d="M121.81 116.45L104.29 115.34L114.69 100.95C115.24 100.4 115.24 99.2896 114.69 98.7396C114.14 98.1896 113.05 98.1896 112.5 98.7396L90.6 119.22C89.8667 119.22 89.5 119.403 89.5 119.77V120.88C89.5 121.43 90.05 121.43 90.05 121.99C90.6 122.54 91.14 122.54 91.14 122.54L108.66 123.65L98.26 138.04C98.26 138.59 97.71 138.59 97.71 139.15C97.71 139.71 97.71 139.7 98.26 140.26C98.81 140.81 99.9 140.81 100.45 140.26L122.35 119.78C124.54 119.23 123.44 116.46 121.8 116.46L121.81 116.45Z" fill="white"/>
</svg>
